# WaveFront *.obj file (generated by Autodesk ATF)

mtllib 茶杓.mtl

g ソリッド2

v 0.000000 11.051266 -9.000000
v 0.000000 11.051266 -2.000000
v 0.000000 12.551266 -9.000000
v 0.000000 12.551266 -2.000000
v 0.000000 12.801266 -8.933012
v 0.000000 12.801266 -2.066987
v 0.000000 12.984278 -8.750000
v 0.000000 12.984278 -2.250000
v 0.000000 13.051265 -8.500000
v 0.000000 13.051265 -2.500000
v 1.487869 10.059353 -8.736695
v 1.487869 10.059353 -2.263305
v 2.106431 9.646978 -8.424070
v 2.106431 9.646978 -2.575930
v 2.583975 9.328616 -8.016109
v 2.583975 9.328616 -2.983891
v 4.921658 9.208905 -7.778272
v 4.921658 9.208905 -3.221728
v 6.621672 9.121849 -7.526640
v 6.621672 9.121849 -3.473360
v 7.653884 9.068990 -7.265674
v 7.653884 9.068990 -3.734325
v 7.913375 9.055702 -7.133133
v 7.913375 9.055702 -3.866867
v 7.978338 9.052375 -7.066603
v 7.978338 9.052375 -3.933397
v 8.000000 9.051266 -7.000000
v 8.000000 9.051266 -4.000000
v 19.079149 9.051266 -7.000000
v 19.079149 9.051266 -4.000000
v 35.491567 9.089695 -7.390181
v 35.491567 9.089695 -3.609819
v 43.500009 9.137385 -7.580569
v 43.500009 9.137385 -3.419431
v 51.273265 9.203507 -7.765367
v 51.273265 9.203507 -3.234633
v 58.736477 9.287423 -7.942793
v 58.736477 9.287423 -3.057207
v 65.817766 9.388326 -8.111141
v 65.817766 9.388326 -2.888860
v 72.448936 9.505245 -8.268787
v 72.448936 9.505245 -2.731214
v 78.566122 9.637052 -8.414214
v 78.566122 9.637052 -2.585787
v 84.110422 9.782479 -8.546021
v 84.110422 9.782479 -2.453979
v 89.028435 9.940125 -8.662939
v 89.028435 9.940125 -2.337061
v 93.272791 10.108472 -8.763843
v 93.272791 10.108472 -2.236158
v 94.737844 9.051266 -8.798672
v 94.737844 9.051266 -2.201328
v 95.970354 13.051265 -8.000000
v 95.970354 13.051265 -3.000000
v 95.986814 13.051265 -8.065403
v 95.986814 13.051265 -2.934597
v 96.036110 13.051265 -8.130526
v 96.036110 13.051265 -2.869474
v 96.232262 13.051265 -8.258819
v 96.232262 13.051265 -2.741181
v 96.802626 10.285900 -8.847759
v 96.802626 10.285900 -2.152241
v 97.000122 13.051265 -8.500000
v 97.000122 13.051265 -2.500000
v 98.288698 10.377486 -8.883088
v 98.288698 10.377486 -2.116912
v 98.432875 12.924823 -8.832349
v 98.432875 12.924823 -2.167651
v 99.583941 10.470697 -8.913881
v 99.583941 10.470697 -2.086119
v 99.846163 12.551266 -9.000000
v 99.846163 12.551266 -2.000000
v 100.685244 10.565306 -8.940063
v 100.685244 10.565306 -2.059938
v 101.589956 10.661086 -8.961570
v 101.589956 10.661086 -2.038429
v 102.157526 10.066242 -8.975064
v 102.157526 10.066242 -2.024936
v 102.295885 10.757805 -8.978353
v 102.295885 10.757805 -2.021647
v 102.801342 10.855231 -8.990369
v 102.801342 10.855231 -2.009631
v 103.105097 10.953131 -8.997591
v 103.105097 10.953131 -2.002409
v 103.181095 11.002183 -8.999398
v 103.181095 11.002183 -2.000602
v 103.200102 11.026723 -8.999850
v 103.200102 11.026723 -2.000151
v 103.206434 11.051266 -9.000000
v 103.206434 11.051266 -2.000000
v 103.206434 12.992193 -9.000000
v 103.206434 12.992193 -2.000000
v 103.206434 13.010702 -9.000000
v 103.206434 13.010702 -2.000000
v 103.206434 13.496478 -8.866025
v 103.206434 13.496478 -2.133975
v 103.206434 13.761513 -8.799401
v 103.206434 13.761513 -2.200599
v 103.206434 13.865641 -8.500000
v 103.206434 13.865641 -2.500000
v 103.206434 14.000764 -8.000000
v 103.206434 14.000764 -3.000000
v 103.206434 14.310890 -8.251242
v 103.206434 14.310890 -2.748758
v 103.206434 14.511935 -7.502096
v 103.206434 14.511935 -3.497905
v 103.999996 14.240651 -8.455180
v 103.999996 14.240651 -2.544820
v 103.999996 14.419492 -8.171160
v 103.999996 14.419492 -2.828840
v 103.999996 14.530507 -7.854470
v 103.999996 14.530507 -3.145530
v 103.999996 14.568141 -7.520961
v 103.999996 14.568141 -3.479038
v 104.507799 14.111516 -8.642765
v 104.507799 14.111516 -2.357235
v 104.525156 14.179770 -8.578638
v 104.525156 14.179770 -2.421361
v 104.541435 14.243804 -8.510460
v 104.541435 14.243804 -2.489540
v 104.556589 14.303373 -8.438492
v 104.556589 14.303373 -2.561508
v 105.001478 13.905183 -8.832414
v 105.001478 13.905183 -2.167586
v 105.001478 13.957094 -8.742311
v 105.001478 13.957094 -2.257689
v 105.001478 13.989158 -8.643652
v 105.001478 13.989158 -2.356348
v 105.001478 14.000000 -8.540663
v 105.001478 14.000000 -2.459337
v 105.001478 14.012043 -8.762743
v 105.001478 14.012043 -2.237257
v 105.001478 14.112576 -8.684263
v 105.001478 14.112576 -2.315737
v 105.001478 14.206057 -8.597542
v 105.001478 14.206057 -2.402458
v 106.539173 13.246748 -9.079231
v 106.539173 13.246748 -1.920769
v 109.408159 10.066242 -8.150450
v 109.408159 10.066242 -2.849550
v 109.442749 10.066242 -8.249096
v 109.442749 10.066242 -2.750904
v 109.546175 10.066242 -8.348408
v 109.546175 10.066242 -2.651592
v 109.954929 10.066242 -8.545227
v 109.954929 10.066242 -2.454773
v 110.618782 10.066242 -8.733374
v 110.618782 10.066242 -2.266626
v 111.512327 10.066242 -8.905649
v 111.512327 10.066242 -2.094351
v 113.844252 10.066242 -9.177071
v 113.844252 10.066242 -1.822929
v 116.597137 10.066242 -9.318344
v 116.597137 10.066242 -1.681656
v 157.642403 3.313661 -9.297147
v 157.642403 3.313661 -1.702853
v 157.649269 3.447427 -9.796057
v 157.649269 3.447427 -1.203943
v 157.691298 3.809772 -10.161833
v 157.691298 3.809772 -0.838168
v 157.757282 4.304003 -10.296865
v 157.757282 4.304003 -0.703136
v 159.948874 4.735307 -10.348966
v 159.948874 4.735307 -0.651034
v 159.989882 4.982726 -10.282623
v 159.989882 4.982726 -0.717377
v 160.023060 5.163541 -10.099578
v 160.023060 5.163541 -0.900422
v 160.039444 5.229076 -9.849108
v 160.039444 5.229076 -1.150892
v 161.272125 3.429563 -0.823429
v 161.273422 3.784611 -0.651438
v 161.275215 3.168537 -1.119435
v 161.277046 3.112588 -1.232385
v 161.375637 4.030706 -10.382886
v 161.375637 4.030706 -0.617114
v 161.980858 3.029807 -9.396791
v 161.980858 3.029807 -1.603209
v 161.980839 3.108533 -9.784084
v 161.980782 3.164437 -9.897009
v 161.981163 3.425696 -10.193367
v 161.983414 3.781139 -10.365487
v 162.821198 4.446348 -10.417252
v 162.821198 4.446348 -0.582749
v 163.413086 4.554320 -10.415373
v 163.418484 4.731938 -10.329438
v 163.424473 4.862469 -10.181394
v 163.426361 4.890414 -10.124921
v 163.924484 4.549235 -0.572479
v 163.926220 4.726804 -0.658452
v 163.929539 4.857330 -0.806459
v 163.930836 4.885307 -0.862953
v 163.935356 4.923810 -9.943618
v 163.935356 4.923810 -1.056383
v 164.829826 3.948821 -0.567009
v 164.872513 3.595299 -0.738572
v 164.907875 3.335757 -1.034772
v 164.916630 3.280259 -1.147885
v 164.999390 4.219384 -10.469035
v 164.999390 4.219384 -0.530965
v 165.707664 4.490435 -10.485873
v 165.707664 4.490435 -0.514127
v 166.249466 4.139418 -10.466763
v 166.309757 3.787894 -10.295386
v 166.313915 3.386701 -9.496311
v 166.313915 3.386701 -1.503689
v 166.358051 3.529966 -9.999024
v 166.369534 3.474943 -9.885976
v 166.833000 5.061944 -10.207044
v 166.835022 5.034121 -10.263426
v 166.847172 4.904513 -10.411364
v 166.866379 4.728424 -10.497537
v 167.830257 5.241864 -10.038103
v 167.830257 5.241864 -0.961898
v 167.832012 5.202883 -0.768908
v 167.835178 5.175186 -0.712518
v 167.852612 5.046359 -0.564635
v 167.879028 4.871414 -0.478388
v 168.338470 4.553179 -0.483715
v 168.424664 4.206646 -0.654853
v 168.491917 3.952584 -0.951245
v 168.507442 3.898387 -1.064519
v 168.569813 4.866979 -10.553916
v 168.569813 4.866979 -0.446084
v 168.672237 4.889151 -10.556346
v 168.671627 4.889018 -0.443669
v 170.182896 5.704530 -10.287799
v 170.188770 5.677373 -10.344092
v 170.218735 5.551192 -10.491922
v 170.262089 5.380021 -10.578330
v 170.408478 5.127864 -10.565497
v 170.520439 4.788013 -10.394626
v 170.547466 4.376593 -9.593545
v 170.547466 4.376593 -1.406455
v 170.606537 4.539056 -10.098037
v 170.626030 4.486097 -9.984795
v 171.185360 5.570016 -10.613306
v 171.184883 5.569861 -0.386704
v 171.625023 6.175144 -10.130159
v 171.625023 6.175144 -0.869842
v 171.632366 6.139277 -0.677295
v 171.639881 6.112573 -0.621006
v 171.677532 5.988730 -0.473244
v 171.731262 5.820845 -0.386733
v 171.745625 5.586800 -0.402830
v 171.874180 5.252613 -0.573555
v 171.972370 5.007930 -0.870133
v 171.994476 4.955855 -0.983565
v 173.411312 6.805991 -10.365623
v 173.420906 6.780032 -10.421830
v 173.468037 6.659719 -10.569559
v 173.534565 6.496748 -10.656192
v 173.617992 6.495155 -10.665702
v 173.617611 6.494989 -0.334305
v 174.376011 6.720188 -10.659685
v 174.385948 6.722811 -0.340150
v 174.537430 6.399574 -10.489298
v 174.547405 6.402375 -0.510552
v 174.589539 5.977980 -9.686382
v 174.589539 5.977980 -1.313618
v 174.659557 6.165076 -10.192491
v 174.669590 6.168004 -0.807276
v 174.686680 6.115328 -10.079066
v 174.696751 6.118214 -0.920830
v 175.223141 7.699908 -10.217444
v 175.223141 7.699908 -0.782556
v 175.236778 7.665090 -0.590406
v 175.248489 7.640076 -0.534212
v 175.305347 7.524380 -0.386563
v 175.384979 7.367788 -0.299800
v 175.622425 7.869018 -10.418924
v 175.634575 7.844239 -10.475073
v 175.693455 7.729586 -10.622733
v 175.775852 7.574437 -10.709518
v 175.949898 7.657313 -10.716504
v 175.949631 7.657169 -0.283501
v 176.899204 8.117646 -0.280486
v 177.092056 7.814221 -0.450581
v 177.237072 7.592514 -0.747443
v 177.269020 7.545496 -0.861114
v 177.715931 9.148235 -10.469390
v 177.730522 9.124890 -10.525484
v 177.800541 9.017047 -10.673077
v 177.897892 8.871249 -10.760007
v 178.064156 8.881966 -10.747241
v 178.155041 9.044091 -10.767126
v 178.154850 9.043955 -0.232877
v 178.271675 8.587767 -10.577306
v 178.352337 8.156080 -9.772804
v 178.352337 8.156080 -1.227195
v 178.427334 8.372906 -10.280294
v 178.461494 8.327439 -10.166699
v 178.533058 9.777362 -10.297738
v 178.533058 9.777362 -0.702262
v 178.552780 9.744758 -0.510472
v 178.568344 9.722071 -0.454365
v 178.642788 9.617418 -0.306821
v 178.746071 9.475991 -0.219831
v 179.796391 10.178771 -0.211708
v 180.025501 9.900640 -0.381447
v 180.196838 9.697646 -0.678469
v 180.212479 10.642377 -10.817842
v 180.212421 10.642323 -0.182157
v 180.232143 11.114891 -10.530045
v 180.234318 9.654684 -0.792276
v 180.249672 11.093770 -10.586072
v 180.333080 10.996393 -10.733588
v 180.448380 10.864894 -10.820690
v 181.388817 11.569622 -10.826167
v 181.470566 12.354653 -10.368998
v 181.470566 12.354653 -0.631002
v 181.494331 12.327147 -0.439564
v 181.513329 12.307397 -0.383535
v 181.603432 12.216492 -0.236082
v 181.638031 11.308513 -10.656642
v 181.727695 12.093801 -0.148890
v 181.754131 10.863580 -9.850936
v 181.754131 10.863580 -1.149064
v 181.823902 11.118066 -10.359447
v 181.864376 11.077859 -10.245695
v 182.101879 12.436415 -10.867361
v 182.101860 12.436382 -0.132645
v 182.416897 12.581791 -0.149498
v 182.471409 13.391829 -10.584023
v 182.491550 13.373305 -10.639992
v 182.586861 13.288041 -10.787437
v 182.678890 12.333299 -0.318914
v 182.718105 13.173018 -10.874693
v 182.874050 12.152128 -0.616082
v 182.916489 12.113854 -0.730011
v 183.803654 14.407072 -10.913256
v 183.803883 14.407367 -0.086743
v 183.960915 15.366211 -10.429411
v 183.960915 15.366211 -0.570589
v 183.990364 15.342411 -0.379397
v 184.012280 15.326116 -0.323433
v 184.115658 15.251255 -0.176058
v 184.257660 15.150330 -0.088695
v 184.280338 14.718844 -10.894810
v 184.395313 15.940894 -10.630399
v 184.417706 15.925294 -10.686318
v 184.523258 15.853591 -10.833703
v 184.565887 14.496706 -10.725644
v 184.668159 15.756942 -10.921091
v 184.719753 15.290803 -0.094830
v 184.721031 14.041671 -9.919078
v 184.721031 14.041671 -1.080922
v 184.778061 14.334872 -10.428288
v 184.823971 14.300774 -10.314400
v 185.010681 15.075860 -0.263960
v 185.226765 14.919291 -0.561256
v 185.273552 14.886267 -0.675294
v 185.302963 16.536646 -10.951716
v 185.303288 16.537168 -0.048276
v 185.359039 16.625702 -10.953056
v 185.359039 16.625702 -0.046945
v 185.716991 17.246400 -10.961565
v 185.716991 17.246400 -0.038435
v 185.737839 17.204040 -10.962061
v 185.737839 17.204040 -0.037940
v 185.940762 18.735415 -10.477439
v 185.940762 18.735415 -0.522561
v 185.998325 18.704660 -10.724332
v 185.998325 18.704660 -0.275668
v 186.045952 18.782583 -10.724001
v 186.045952 18.782583 -0.275999
v 186.056995 17.877101 -10.969647
v 186.056995 17.877101 -0.030352
v 186.102467 17.791395 -10.970728
v 186.102467 17.791395 -0.029271
v 186.118221 18.936535 -10.477439
v 186.118221 18.936535 -0.522561
v 186.158237 18.625026 -10.906820
v 186.158237 18.625026 -0.093180
v 186.187134 18.673928 -10.906436
v 186.187134 18.673928 -0.093564
v 186.279297 18.937768 -10.724001
v 186.279297 18.937768 -0.275999
v 186.324921 18.765556 -10.906436
v 186.324921 18.765556 -0.093564
v 186.374073 19.017010 -10.477439
v 186.374073 19.017010 -0.522561
v 186.378784 18.517286 -10.977298
v 186.378784 18.517286 -0.022702
v 186.452770 18.387423 -10.979056
v 186.452770 18.387423 -0.020943
v 186.489983 18.754137 -10.906436
v 186.489983 18.754137 -0.093564
v 186.558876 18.918428 -10.724001
v 186.558876 18.918428 -0.275999
v 186.600151 18.642529 -10.913823
v 186.600151 18.642529 -0.086177
v 186.634712 18.953682 -10.477439
v 186.634712 18.953682 -0.522561
v 186.674137 18.512667 -10.915581
v 186.674137 18.512667 -0.084419
v 186.716480 18.111949 -10.916506
v 186.716480 18.111955 -0.083492
v 186.763935 18.733348 -10.730397
v 186.763935 18.733348 -0.269603
v 186.825123 18.764776 -10.477439
v 186.825123 18.764776 -0.522561
v 186.837921 18.603485 -10.732155
v 186.837921 18.603485 -0.267845
v 186.851482 18.209808 -10.860233
v 186.851349 18.209699 -0.139674
v 186.888447 18.241905 -10.830561
v 186.888428 18.241911 -0.169442
v 186.899090 18.634913 -10.479198
v 186.899090 18.634913 -0.520802
v 186.952114 17.865531 -10.716754
v 186.952057 17.865580 -0.283131
v 186.974297 18.336011 -10.709151
v 186.974220 18.335916 -0.290692
v 187.010021 18.413473 -0.444277
v 187.010040 18.413621 -10.555347
v 187.048111 17.972481 -10.659456
v 187.047997 17.972399 -0.340377
v 187.071686 18.008978 -10.634147
v 187.071648 18.009024 -0.365778
v 187.097969 18.285810 -10.346838
v 187.097950 18.285841 -0.653104
v 187.117462 18.121858 -0.460955
v 187.117519 18.121942 -10.538862
v 187.119884 18.226881 -10.425196
v 187.119904 18.226694 -0.574473
v 187.123299 17.687154 -10.389566
v 187.123337 17.687120 -0.610312
v 187.165966 18.166430 -10.182827
v 187.165985 18.166407 -0.817112
v 187.187405 17.804168 -10.353001
v 187.187386 17.803999 -0.646852
v 187.188587 17.621320 -9.975752
v 187.188587 17.621320 -1.024247
v 187.191582 18.121480 -9.975752
v 187.191582 18.121480 -1.024247
v 187.198277 18.093296 -0.775524
v 187.198162 18.093588 -10.224265
v 187.200871 17.844397 -10.338205
v 187.200890 17.844371 -0.661704
v 187.218151 17.970990 -10.285152
v 187.218170 17.970822 -0.714706
v 187.248993 17.784190 -9.975752
v 187.248993 17.784190 -1.024247
v 187.250042 17.957900 -9.975752
v 187.250042 17.957900 -1.024247
vt 5.572444 -0.078540 0.000000
vt 5.570686 -0.026180 0.000000
vt 5.565883 0.026180 0.000000
vt 5.559322 0.078540 0.000000
vt 5.220415 0.078540 0.000000
vt 5.085147 0.019793 0.000000
vt 4.944735 -0.026180 0.000000
vt 4.868601 -0.052360 0.000000
vt 4.849153 -0.065450 0.000000
vt 4.844265 -0.071995 0.000000
vt 4.842633 -0.078540 0.000000
vt 0.729811 0.800000 0.000000
vt 0.000000 0.800000 0.000000
vt 0.000000 0.300000 0.000000
vt 0.729811 0.300000 0.000000
vt -0.442860 0.078540 0.000000
vt -0.449421 0.026180 0.000000
vt -0.454224 -0.026180 0.000000
vt -0.455982 -0.078540 0.000000
vt 0.273829 -0.078540 0.000000
vt 0.272197 -0.071995 0.000000
vt 0.267309 -0.065450 0.000000
vt 0.247861 -0.052360 0.000000
vt 0.171728 -0.026180 0.000000
vt 0.031315 0.019793 0.000000
vt -0.103952 0.078540 0.000000
vt -0.000000 1.299219 0.000000
vt -0.336028 1.255127 0.000000
vt -10.320643 1.255127 0.000000
vt -10.320643 1.105127 0.000000
vt -0.000000 1.105127 0.000000
vt 5.160322 -0.039270 0.000000
vt 5.160322 -0.013090 0.000000
vt 5.160322 0.013090 0.000000
vt 5.160322 0.039270 0.000000
vt -4.824295 0.039270 0.000000
vt -4.682966 -0.002915 0.000000
vt -4.539690 -0.039270 0.000000
vt 0.350000 0.200000 0.000000
vt 0.375000 0.206699 0.000000
vt 0.393301 0.225000 0.000000
vt 0.400000 0.250000 0.000000
vt 0.400000 0.850000 0.000000
vt 0.393301 0.875000 0.000000
vt 0.375000 0.893301 0.000000
vt 0.350000 0.900000 0.000000
vt 0.200000 0.900000 0.000000
vt 0.200000 0.200000 0.000000
vt -0.000000 0.039270 0.000000
vt -0.000000 0.013090 0.000000
vt -0.000000 -0.013090 0.000000
vt -0.000000 -0.039270 0.000000
vt 9.700012 -0.039270 0.000000
vt 9.843287 -0.002915 0.000000
vt 9.984616 0.039270 0.000000
vt -9.984616 1.255127 0.000000
vt -10.320643 1.299219 0.000000
vt -10.320643 1.105127 0.000000
vt -0.000000 1.105127 0.000000
vt -0.000000 1.255127 0.000000
vt -9.638817 -0.050495 0.000000
vt -9.405048 -0.077141 0.000000
vt -9.235047 -0.103787 0.000000
vt -9.131826 -0.130433 0.000000
vt -9.105877 -0.143757 0.000000
vt -9.099380 -0.150418 0.000000
vt -9.097214 -0.157080 0.000000
vt -7.989299 -0.157080 0.000000
vt -6.348057 -0.117810 0.000000
vt -5.547213 -0.098175 0.000000
vt -4.769887 -0.078540 0.000000
vt -4.023567 -0.058905 0.000000
vt -3.315438 -0.039270 0.000000
vt -2.652321 -0.019635 0.000000
vt -2.040602 0.000000 0.000000
vt -1.486172 0.019635 0.000000
vt -0.994371 0.039270 0.000000
vt -0.569935 0.058905 0.000000
vt -0.216951 0.078540 0.000000
vt -0.068345 0.088357 0.000000
vt 0.061180 0.098175 0.000000
vt 0.171310 0.107992 0.000000
vt 0.261781 0.117810 0.000000
vt 0.332374 0.127627 0.000000
vt 0.382920 0.137445 0.000000
vt 0.413296 0.147262 0.000000
vt 0.420896 0.152171 0.000000
vt 0.422796 0.154625 0.000000
vt 0.423429 0.157080 0.000000
vt -9.897214 0.157080 0.000000
vt -9.748427 0.053292 0.000000
vt -9.686571 0.001399 0.000000
vt 0.000000 0.220133 0.000000
vt 7.565870 0.400000 0.000000
vt 8.673785 0.400000 0.000000
vt 8.673785 0.700000 0.000000
vt 7.565870 0.700000 0.000000
vt 0.000000 0.879867 0.000000
vt 0.400000 0.271156 0.000000
vt 0.393340 0.268987 0.000000
vt 0.386687 0.262482 0.000000
vt 0.373433 0.236499 0.000000
vt 0.347336 0.133143 0.000000
vt 0.322173 -0.037081 0.000000
vt 0.298389 -0.271156 0.000000
vt 0.801611 -0.271156 0.000000
vt 0.777827 -0.037081 0.000000
vt 0.752664 0.133143 0.000000
vt 0.726567 0.236499 0.000000
vt 0.713313 0.262482 0.000000
vt 0.706660 0.268987 0.000000
vt 0.700000 0.271156 0.000000
vt -0.298389 -0.130278 0.000000
vt -0.257593 -0.072884 0.000000
vt -0.226331 0.001458 0.000000
vt -0.200000 0.180278 0.000000
vt -0.900000 0.180278 0.000000
vt -0.873670 0.001458 0.000000
vt -0.842407 -0.072884 0.000000
vt -0.801611 -0.130278 0.000000
vt -5.583751 0.157080 0.000000
vt -5.583118 0.154625 0.000000
vt -5.581217 0.152171 0.000000
vt -5.573617 0.147262 0.000000
vt -5.543242 0.137445 0.000000
vt -5.492696 0.127627 0.000000
vt -5.422103 0.117810 0.000000
vt -5.331632 0.107992 0.000000
vt -5.221502 0.098175 0.000000
vt -5.091978 0.088357 0.000000
vt -4.943370 0.078540 0.000000
vt -4.590387 0.058905 0.000000
vt -4.165951 0.039270 0.000000
vt -3.674150 0.019635 0.000000
vt -3.119720 0.000000 0.000000
vt -2.508001 -0.019635 0.000000
vt -1.844884 -0.039270 0.000000
vt -1.136755 -0.058905 0.000000
vt -0.390434 -0.078540 0.000000
vt 0.386891 -0.098175 0.000000
vt 1.187736 -0.117810 0.000000
vt 2.828978 -0.157080 0.000000
vt 3.936892 -0.157080 0.000000
vt 3.939059 -0.150418 0.000000
vt 3.945555 -0.143757 0.000000
vt 3.971504 -0.130433 0.000000
vt 4.074726 -0.103787 0.000000
vt 4.244727 -0.077141 0.000000
vt 4.478495 -0.050495 0.000000
vt 4.526249 0.001399 0.000000
vt 4.588106 0.053292 0.000000
vt 4.736892 0.157080 0.000000
vt -0.000000 0.131611 0.000000
vt -0.020567 0.131611 0.000000
vt -0.041135 0.131611 0.000000
vt -0.061702 0.131611 0.000000
vt -0.061702 0.098708 0.000000
vt -0.061702 0.065805 0.000000
vt -0.061702 0.032903 0.000000
vt -0.061702 0.000000 0.000000
vt -0.041135 0.000000 0.000000
vt -0.020567 0.000000 0.000000
vt -0.000000 0.000000 0.000000
vt -0.000000 0.065805 0.000000
vt -0.000000 0.098708 0.000000
vt -0.046166 0.098708 0.000000
vt -0.041135 0.098708 0.000000
vt -0.025599 0.098708 0.000000
vt -0.010063 0.098708 0.000000
vt -0.046166 0.065805 0.000000
vt -0.041135 0.065805 0.000000
vt -0.025599 0.065805 0.000000
vt -0.010063 0.065805 0.000000
vt -0.046166 0.032903 0.000000
vt -0.041135 0.032903 0.000000
vt -0.025599 0.032903 0.000000
vt -0.010063 0.032903 0.000000
vt -0.102425 -0.026190 0.000000
vt -0.102425 -0.008730 0.000000
vt -0.102425 0.008730 0.000000
vt -0.102425 0.026190 0.000000
vt -0.997575 0.026190 0.000000
vt -0.997575 0.008730 0.000000
vt -0.997575 -0.008730 0.000000
vt -0.997575 -0.026190 0.000000
vt -0.000000 0.131611 0.000000
vt -0.020567 0.131611 0.000000
vt -0.041135 0.131611 0.000000
vt -0.061702 0.131611 0.000000
vt -0.061702 0.098708 0.000000
vt -0.061702 0.065805 0.000000
vt -0.061702 0.032903 0.000000
vt -0.061702 0.000000 0.000000
vt -0.041135 0.000000 0.000000
vt -0.020567 0.000000 0.000000
vt -0.000000 0.000000 0.000000
vt -0.000000 0.032903 0.000000
vt -0.000000 0.065805 0.000000
vt -0.046184 0.098708 0.000000
vt -0.041135 0.098708 0.000000
vt -0.025616 0.098708 0.000000
vt -0.010098 0.098708 0.000000
vt -0.046184 0.065805 0.000000
vt -0.041135 0.065805 0.000000
vt -0.025616 0.065805 0.000000
vt -0.010098 0.065805 0.000000
vt -0.046184 0.032903 0.000000
vt -0.041135 0.032903 0.000000
vt -0.025616 0.032903 0.000000
vt -0.010098 0.032903 0.000000
vt 0.779764 -0.039786 0.000000
vt 0.779764 -0.013262 0.000000
vt 0.779764 0.013262 0.000000
vt 0.779764 0.039786 0.000000
vt 0.764817 0.039786 0.000000
vt 0.764817 0.013262 0.000000
vt 0.764817 -0.013262 0.000000
vt 0.764817 -0.039786 0.000000
vt 1.309808 0.039786 0.000000
vt 1.309808 0.013262 0.000000
vt 1.309808 -0.013262 0.000000
vt 1.309808 -0.039786 0.000000
vt 1.324754 -0.039786 0.000000
vt 1.324754 -0.013262 0.000000
vt 1.324754 0.013262 0.000000
vt 1.324754 0.039786 0.000000
vt -0.000000 0.018524 0.000000
vt -0.000000 0.037952 0.000000
vt -0.000000 0.057379 0.000000
vt -0.000000 0.076807 0.000000
vt -0.000000 0.096235 0.000000
vt -0.025822 0.096446 0.000000
vt -0.051642 0.096857 0.000000
vt -0.077351 0.112384 0.000000
vt -0.053042 0.019276 0.000000
vt -0.026522 0.018771 0.000000
vt -0.051568 0.041989 0.000000
vt -0.025784 0.041989 0.000000
vt -0.025784 0.065454 0.000000
vt -0.051568 0.088919 0.000000
vt -0.051568 0.065454 0.000000
vt -0.025784 0.088919 0.000000
vt -1.047744 0.054309 0.000000
vt -1.047744 0.027154 0.000000
vt -1.047744 0.000000 0.000000
vt -1.047744 -0.027154 0.000000
vt -1.047744 -0.054309 0.000000
vt -0.052256 -0.054309 0.000000
vt -0.052256 -0.027154 0.000000
vt -0.052256 0.000000 0.000000
vt -0.052256 0.027154 0.000000
vt -0.052256 0.054309 0.000000
vt -0.000000 0.018524 0.000000
vt 0.026522 0.018771 0.000000
vt 0.053042 0.019276 0.000000
vt 0.077351 0.112384 0.000000
vt 0.051642 0.096857 0.000000
vt 0.025822 0.096446 0.000000
vt -0.000000 0.096235 0.000000
vt -0.000000 0.076807 0.000000
vt -0.000000 0.057379 0.000000
vt -0.000000 0.037952 0.000000
vt 0.051568 0.065454 0.000000
vt 0.051568 0.041989 0.000000
vt 0.025784 0.041989 0.000000
vt 0.025784 0.088919 0.000000
vt 0.051568 0.088919 0.000000
vt 0.025784 0.065454 0.000000
vt 0.052256 -1.522279 0.000000
vt 1.047744 -1.522279 0.000000
vt 1.042941 -1.131078 0.000000
vt 1.036900 -0.739877 0.000000
vt 1.029774 -0.348676 0.000000
vt 1.021744 0.042525 0.000000
vt 1.013016 0.433726 0.000000
vt 1.003810 0.824927 0.000000
vt 0.994362 1.216128 0.000000
vt 0.984911 1.607329 0.000000
vt 0.115089 1.607329 0.000000
vt 0.105638 1.216128 0.000000
vt 0.096190 0.824927 0.000000
vt 0.086984 0.433726 0.000000
vt 0.078256 0.042525 0.000000
vt 0.070226 -0.348676 0.000000
vt 0.063100 -0.739877 0.000000
vt 0.057059 -1.131078 0.000000
vt -0.077989 1.112980 0.000000
vt -0.051969 1.112980 0.000000
vt -0.025955 1.112980 0.000000
vt -0.000000 1.112980 0.000000
vt -0.000000 1.183643 0.000000
vt -0.000000 1.254305 0.000000
vt -0.000000 1.324965 0.000000
vt -0.000100 1.335341 0.000000
vt -0.005290 1.592529 0.000000
vt -0.009135 1.850149 0.000000
vt -0.011375 2.108257 0.000000
vt -0.012113 2.366501 0.000000
vt -0.011375 2.624709 0.000000
vt -0.009051 2.882797 0.000000
vt -0.005318 3.140273 0.000000
vt -0.000234 3.397390 0.000000
vt -0.000000 3.407724 0.000000
vt -0.000000 3.692573 0.000000
vt -0.000000 3.977407 0.000000
vt -0.000000 4.262255 0.000000
vt -0.025993 4.262255 0.000000
vt -0.051991 4.262255 0.000000
vt -0.077990 4.262255 0.000000
vt -0.077990 3.868595 0.000000
vt -0.077990 3.474937 0.000000
vt -0.077990 3.081275 0.000000
vt -0.077990 2.687616 0.000000
vt -0.077990 2.293955 0.000000
vt -0.077990 1.900295 0.000000
vt -0.077988 1.506631 0.000000
vt -0.058258 2.397206 0.000000
vt -0.012530 1.434036 0.000000
vt -0.032262 1.434036 0.000000
vt -0.051994 1.434036 0.000000
vt -0.058258 1.434036 0.000000
vt -0.012530 1.755093 0.000000
vt -0.032262 1.755093 0.000000
vt -0.051994 1.755093 0.000000
vt -0.058258 1.755093 0.000000
vt -0.012530 2.076150 0.000000
vt -0.032262 2.076150 0.000000
vt -0.051994 2.076150 0.000000
vt -0.058258 2.076150 0.000000
vt -0.012530 2.397206 0.000000
vt -0.032262 2.397206 0.000000
vt -0.051994 2.397206 0.000000
vt -0.012530 2.643784 0.000000
vt -0.032262 2.643784 0.000000
vt -0.051994 2.643784 0.000000
vt -0.058258 2.643784 0.000000
vt -0.012530 2.890362 0.000000
vt -0.032262 2.890362 0.000000
vt -0.051994 2.890362 0.000000
vt -0.058258 2.890362 0.000000
vt -0.012530 3.233335 0.000000
vt -0.032262 3.233335 0.000000
vt -0.051994 3.233335 0.000000
vt -0.058258 3.233335 0.000000
vt -0.012530 3.576308 0.000000
vt -0.032262 3.576308 0.000000
vt -0.051994 3.576308 0.000000
vt -0.058258 3.576308 0.000000
vt -0.012530 3.919282 0.000000
vt -0.032262 3.919282 0.000000
vt -0.051994 3.919282 0.000000
vt -0.058258 3.919282 0.000000
vt -8.319585 1.851729 0.000000
vt -8.326985 1.838742 0.000000
vt -8.291946 1.779140 0.000000
vt -8.255471 1.720404 0.000000
vt -8.217583 1.662570 0.000000
vt -8.253386 1.724640 0.000000
vt -8.287396 1.787710 0.000000
vt -0.000003 -1.516961 0.000000
vt -0.037071 -1.527998 0.000000
vt -0.075363 -1.537823 0.000000
vt -0.115767 -1.544986 0.000000
vt -0.158127 -1.547845 0.000000
vt -0.158125 -1.978850 0.000000
vt -0.158124 -2.409829 0.000000
vt -0.158127 -2.840831 0.000000
vt -0.158125 -3.271838 0.000000
vt -0.158125 -3.702811 0.000000
vt -0.158127 -4.133818 0.000000
vt -0.158127 -4.564813 0.000000
vt -0.158127 -4.995809 0.000000
vt -0.105418 -4.995809 0.000000
vt -0.052709 -4.995809 0.000000
vt -0.000000 -4.995809 0.000000
vt -0.000058 -4.623558 0.000000
vt -0.000016 -4.251311 0.000000
vt -0.000094 -3.879050 0.000000
vt -0.000434 -3.868312 0.000000
vt -0.007836 -3.601779 0.000000
vt -0.013075 -3.335909 0.000000
vt -0.016118 -3.070087 0.000000
vt -0.017120 -2.804480 0.000000
vt -0.016154 -2.538833 0.000000
vt -0.013018 -2.273006 0.000000
vt -0.007688 -2.006996 0.000000
vt -0.000339 -1.740371 0.000000
vt -0.000004 -1.729587 0.000000
vt -0.000000 -1.658712 0.000000
vt -0.000002 -1.587836 0.000000
vt -0.118111 -1.951817 0.000000
vt -0.105418 -1.951817 0.000000
vt -0.065402 -1.951817 0.000000
vt -0.025386 -1.951817 0.000000
vt -0.118111 -2.386672 0.000000
vt -0.105418 -2.386672 0.000000
vt -0.065402 -2.386672 0.000000
vt -0.025386 -2.386672 0.000000
vt -0.118111 -2.821529 0.000000
vt -0.105418 -2.821529 0.000000
vt -0.065402 -2.821529 0.000000
vt -0.025386 -2.821529 0.000000
vt -0.118111 -3.256385 0.000000
vt -0.105418 -3.256385 0.000000
vt -0.065402 -3.256385 0.000000
vt -0.025386 -3.256385 0.000000
vt -0.118111 -3.691241 0.000000
vt -0.105418 -3.691241 0.000000
vt -0.065402 -3.691241 0.000000
vt -0.025386 -3.691241 0.000000
vt -0.118111 -4.126097 0.000000
vt -0.105418 -4.126097 0.000000
vt -0.065402 -4.126097 0.000000
vt -0.025386 -4.126097 0.000000
vt -0.118111 -4.563836 0.000000
vt -0.105418 -4.563526 0.000000
vt -0.065402 -4.562549 0.000000
vt -0.025386 -4.561571 0.000000
vt 0.171284 0.997575 0.000000
vt 0.166111 1.018283 0.000000
vt 0.152371 1.034684 0.000000
vt 0.112194 1.047920 0.000000
vt 0.097248 1.047744 0.000000
vt 0.097248 0.052256 0.000000
vt 0.112194 0.052080 0.000000
vt 0.152368 0.065310 0.000000
vt 0.166113 0.081711 0.000000
vt 0.171284 0.102425 0.000000
vt -8.081738 1.324675 0.000000
vt -8.415106 1.301070 0.000000
vt -8.415106 1.299219 0.000000
vt -8.415106 1.105127 0.000000
vt -8.415739 1.102672 0.000000
vt -8.417640 1.100218 0.000000
vt -8.425242 1.095313 0.000000
vt -8.455626 1.085523 0.000000
vt -8.506186 1.075781 0.000000
vt -8.576799 1.066109 0.000000
vt -8.667295 1.056531 0.000000
vt -8.777457 1.047070 0.000000
vt -8.907019 1.037749 0.000000
vt -9.055668 1.028590 0.000000
vt -9.408751 1.010847 0.000000
vt -9.833306 0.994013 0.000000
vt -10.325247 0.978248 0.000000
vt -10.879833 0.963705 0.000000
vt -11.491725 0.950525 0.000000
vt -12.155029 0.938833 0.000000
vt -12.863358 0.928742 0.000000
vt -13.609890 0.920351 0.000000
vt -14.387435 0.913739 0.000000
vt -15.188506 0.908970 0.000000
vt -16.830212 0.905127 0.000000
vt -9.262203 0.905127 0.000000
vt -8.520026 1.006624 0.000000
vt -7.075657 1.006624 0.000000
vt -2.958480 0.430400 0.000000
vt -2.596542 0.403071 0.000000
vt -2.234064 0.421938 0.000000
vt -1.876922 0.486698 0.000000
vt -2.163217 0.449043 0.000000
vt -2.451946 0.444635 0.000000
vt -2.739258 0.473531 0.000000
vt -0.000000 -1.112975 0.000000
vt -0.025991 -1.112975 0.000000
vt -0.051990 -1.112975 0.000000
vt -0.077990 -1.112975 0.000000
vt -0.077990 -1.506639 0.000000
vt -0.077987 -1.900296 0.000000
vt -0.077990 -2.293950 0.000000
vt -0.077989 -2.687628 0.000000
vt -0.077989 -3.081267 0.000000
vt -0.077990 -3.474934 0.000000
vt -0.077990 -3.868596 0.000000
vt -0.077990 -4.262256 0.000000
vt -0.051994 -4.262256 0.000000
vt -0.025997 -4.262256 0.000000
vt -0.000000 -4.262256 0.000000
vt -0.000000 -3.977410 0.000000
vt -0.000000 -3.692569 0.000000
vt -0.000000 -3.407719 0.000000
vt -0.000193 -3.397446 0.000000
vt -0.005151 -3.140313 0.000000
vt -0.008856 -2.882843 0.000000
vt -0.011291 -2.624748 0.000000
vt -0.012148 -2.366525 0.000000
vt -0.011266 -2.108255 0.000000
vt -0.008951 -1.850158 0.000000
vt -0.005327 -1.592506 0.000000
vt -0.000235 -1.335276 0.000000
vt -0.000000 -1.324960 0.000000
vt -0.000000 -1.254298 0.000000
vt -0.000000 -1.183637 0.000000
vt -0.012537 -3.474935 0.000000
vt -0.012537 -3.081275 0.000000
vt -0.058262 -1.506638 0.000000
vt -0.051994 -1.506638 0.000000
vt -0.032265 -1.506637 0.000000
vt -0.012537 -1.506636 0.000000
vt -0.058262 -1.900296 0.000000
vt -0.051994 -1.900296 0.000000
vt -0.032265 -1.900295 0.000000
vt -0.012537 -1.900295 0.000000
vt -0.058262 -2.293952 0.000000
vt -0.051994 -2.293952 0.000000
vt -0.032265 -2.293954 0.000000
vt -0.012537 -2.293955 0.000000
vt -0.058262 -2.687624 0.000000
vt -0.051994 -2.687623 0.000000
vt -0.032265 -2.687619 0.000000
vt -0.012537 -2.687616 0.000000
vt -0.058262 -3.081270 0.000000
vt -0.051994 -3.081270 0.000000
vt -0.032265 -3.081273 0.000000
vt -0.058262 -3.474935 0.000000
vt -0.051994 -3.474935 0.000000
vt -0.032265 -3.474935 0.000000
vt -0.058262 -3.868596 0.000000
vt -0.051994 -3.868596 0.000000
vt -0.032265 -3.868596 0.000000
vt -0.012537 -3.868596 0.000000
vt -0.088121 1.838742 0.000000
vt -0.095521 1.851729 0.000000
vt -0.127709 1.787710 0.000000
vt -0.161719 1.724640 0.000000
vt -0.197523 1.662570 0.000000
vt -0.159634 1.720404 0.000000
vt -0.123159 1.779140 0.000000
vt -0.158125 1.547858 0.000000
vt -0.115797 1.545001 0.000000
vt -0.075419 1.537834 0.000000
vt -0.037153 1.528010 0.000000
vt -0.000086 1.516973 0.000000
vt -0.000116 1.587849 0.000000
vt -0.000140 1.658723 0.000000
vt -0.000157 1.729596 0.000000
vt -0.000490 1.740316 0.000000
vt -0.007689 2.006948 0.000000
vt -0.012834 2.273015 0.000000
vt -0.016041 2.538862 0.000000
vt -0.017169 2.804515 0.000000
vt -0.016079 3.070117 0.000000
vt -0.012872 3.335954 0.000000
vt -0.007662 3.601850 0.000000
vt -0.000375 3.868397 0.000000
vt -0.000041 3.879071 0.000000
vt -0.000029 4.251328 0.000000
vt -0.000222 4.623583 0.000000
vt -0.000174 4.995814 0.000000
vt -0.052862 4.995814 0.000000
vt -0.105508 4.995814 0.000000
vt -0.158127 4.995814 0.000000
vt -0.158127 4.564839 0.000000
vt -0.158127 4.133832 0.000000
vt -0.158126 3.702835 0.000000
vt -0.158127 3.271838 0.000000
vt -0.158126 2.840841 0.000000
vt -0.158127 2.409844 0.000000
vt -0.158124 1.978841 0.000000
vt -0.118125 2.963140 0.000000
vt -0.025414 1.878515 0.000000
vt -0.065416 1.878515 0.000000
vt -0.105418 1.878515 0.000000
vt -0.118125 1.878515 0.000000
vt -0.025414 2.240057 0.000000
vt -0.065416 2.240057 0.000000
vt -0.105418 2.240057 0.000000
vt -0.118125 2.240057 0.000000
vt -0.025414 2.601599 0.000000
vt -0.065416 2.601599 0.000000
vt -0.105418 2.601599 0.000000
vt -0.118125 2.601599 0.000000
vt -0.025414 2.963140 0.000000
vt -0.065416 2.963140 0.000000
vt -0.105418 2.963140 0.000000
vt -0.025414 3.255360 0.000000
vt -0.065416 3.255360 0.000000
vt -0.105418 3.255360 0.000000
vt -0.118125 3.255360 0.000000
vt -0.025414 3.547580 0.000000
vt -0.065416 3.547580 0.000000
vt -0.105418 3.547580 0.000000
vt -0.118125 3.547580 0.000000
vt -0.025414 3.909639 0.000000
vt -0.065416 3.909639 0.000000
vt -0.105418 3.909639 0.000000
vt -0.118125 3.909639 0.000000
vt -0.025414 4.271697 0.000000
vt -0.065416 4.271697 0.000000
vt -0.105418 4.271697 0.000000
vt -0.118125 4.271697 0.000000
vt -0.025414 4.633756 0.000000
vt -0.065416 4.633756 0.000000
vt -0.105418 4.633756 0.000000
vt -0.118125 4.633756 0.000000
vt 0.000000 0.254482 0.000000
vt 0.052396 0.235724 0.000000
vt 0.052396 0.864276 0.000000
vt 0.000000 0.845518 0.000000
vt 0.000000 0.235724 0.000000
vt 0.007043 0.242136 0.000000
vt 0.013650 0.248954 0.000000
vt 0.019796 0.256151 0.000000
vt 0.019796 0.843849 0.000000
vt 0.013650 0.851046 0.000000
vt 0.007043 0.857864 0.000000
vt 0.000000 0.864276 0.000000
vt -1.907939 0.078375 0.000000
vt -1.907939 0.026125 0.000000
vt -1.907939 -0.026125 0.000000
vt -1.907939 -0.078375 0.000000
vt 2.963872 -0.078375 0.000000
vt 2.960216 -0.068578 0.000000
vt 2.949742 -0.058781 0.000000
vt 2.908809 -0.039188 0.000000
vt 2.842641 -0.019594 0.000000
vt 2.753768 0.000000 0.000000
vt 2.522253 0.039188 0.000000
vt 2.249366 0.078375 0.000000
vt -6.429252 0.078375 0.000000
vt -6.702139 0.039188 0.000000
vt -6.933653 0.000000 0.000000
vt -7.022527 -0.019594 0.000000
vt -7.088696 -0.039188 0.000000
vt -7.129628 -0.058781 0.000000
vt -7.140102 -0.068578 0.000000
vt -7.143758 -0.078375 0.000000
vt -2.271947 -0.078375 0.000000
vt -2.271947 -0.026125 0.000000
vt -2.271947 0.026125 0.000000
vt -2.271947 0.078375 0.000000
vt 0.000000 0.256151 0.000000
vt 0.045541 0.240246 0.000000
vt 0.045541 0.859754 0.000000
vt 0.000000 0.843849 0.000000
vt -0.997575 0.028963 0.000000
vt -0.102425 0.028963 0.000000
vt -0.108092 0.464131 0.000000
vt -0.114906 0.899298 0.000000
vt -0.122720 1.334466 0.000000
vt -0.131362 1.769633 0.000000
vt -0.140645 2.204801 0.000000
vt -0.150369 2.639969 0.000000
vt -0.160321 3.075136 0.000000
vt -0.170285 3.510304 0.000000
vt -0.929715 3.510304 0.000000
vt -0.939679 3.075136 0.000000
vt -0.949631 2.639969 0.000000
vt -0.959355 2.204801 0.000000
vt -0.968638 1.769633 0.000000
vt -0.977280 1.334466 0.000000
vt -0.985094 0.899298 0.000000
vt -0.991908 0.464131 0.000000
vt 0.000000 0.240246 0.000000
vt 0.009348 0.231574 0.000000
vt 0.019401 0.223726 0.000000
vt 0.030087 0.216759 0.000000
vt 0.024896 0.225769 0.000000
vt 0.021690 0.235635 0.000000
vt 0.020606 0.245934 0.000000
vt 0.020606 0.854066 0.000000
vt 0.021690 0.864365 0.000000
vt 0.024896 0.874231 0.000000
vt 0.030087 0.883241 0.000000
vt 0.019401 0.876274 0.000000
vt 0.009348 0.868426 0.000000
vt 0.000000 0.859754 0.000000
vt 0.000000 0.245934 0.000000
vt 5.573246 0.115089 0.000000
vt 5.573246 0.984911 0.000000
vt 0.000000 0.854066 0.000000
vt 0.000000 0.202494 0.000000
vt 0.748878 0.220133 0.000000
vt 0.748878 0.879867 0.000000
vt 0.000000 0.897506 0.000000
vt -0.718897 0.168166 0.000000
vt 0.725064 0.202494 0.000000
vt 0.725064 0.897506 0.000000
vt -0.718897 0.931834 0.000000
vt -0.443608 0.917707 0.000000
vt -0.210417 0.890565 0.000000
vt -0.121062 0.873337 0.000000
vt -0.054677 0.854523 0.000000
vt -0.013801 0.834841 0.000000
vt -0.003459 0.824910 0.000000
vt 0.000000 0.815045 0.000000
vt 0.000000 0.284955 0.000000
vt -0.003459 0.275090 0.000000
vt -0.013801 0.265159 0.000000
vt -0.054677 0.245477 0.000000
vt -0.121062 0.226663 0.000000
vt -0.210417 0.209435 0.000000
vt -0.443608 0.182293 0.000000
vt 6.421197 0.815045 0.000000
vt 1.550736 0.929715 0.000000
vt 1.550736 0.170285 0.000000
vt 6.421197 0.284955 0.000000
vt 4.177923 -0.008265 0.000000
vt 4.015173 0.039363 0.000000
vt -1.394683 0.039363 0.000000
vt -1.394683 0.013121 0.000000
vt -1.394683 -0.013121 0.000000
vt -1.394683 -0.039363 0.000000
vt 4.180099 -0.039363 0.000000
vt 4.179687 -0.028997 0.000000
vt 4.178951 -0.018631 0.000000
vt 4.072239 -0.016797 0.000000
vt 4.071649 -0.050426 0.000000
vt 4.071616 -0.084055 0.000000
vt 4.072141 -0.117684 0.000000
vt 4.151718 -0.117684 0.000000
vt 4.151362 -0.039228 0.000000
vt 4.153943 0.039228 0.000000
vt 4.158770 0.117684 0.000000
vt 3.824568 0.117684 0.000000
vt 3.973844 0.037315 0.000000
vt 3.973254 0.024568 0.000000
vt 3.972730 0.011822 0.000000
vt 3.972276 -0.000925 0.000000
vt 4.016331 -0.020589 0.000000
vt 4.018092 -0.011288 0.000000
vt 4.020007 -0.001987 0.000000
vt 4.022068 0.007313 0.000000
vt 0.000000 0.347904 0.000000
vt 0.003763 0.314553 0.000000
vt 0.014865 0.282884 0.000000
vt 0.032749 0.254482 0.000000
vt 0.032749 0.845518 0.000000
vt 0.014865 0.817116 0.000000
vt 0.003763 0.785447 0.000000
vt 0.000000 0.752096 0.000000
vt 0.000000 0.349790 0.000000
vt 0.079555 0.347904 0.000000
vt 0.079555 0.752096 0.000000
vt 0.000000 0.750210 0.000000
vt -0.099006 0.200000 0.000000
vt -0.023925 0.220060 0.000000
vt 0.031013 0.274876 0.000000
vt 0.051117 0.349790 0.000000
vt 0.051117 0.750210 0.000000
vt 0.031013 0.825124 0.000000
vt -0.023925 0.879940 0.000000
vt -0.099006 0.900000 0.000000
vt -0.100857 0.900000 0.000000
vt -0.050429 0.886603 0.000000
vt -0.013512 0.850000 0.000000
vt 0.000000 0.800000 0.000000
vt 0.000000 0.300000 0.000000
vt -0.013512 0.250000 0.000000
vt -0.050429 0.213397 0.000000
vt -0.100857 0.200000 0.000000
vt -0.000000 1.301070 0.000000
vt -0.333368 1.324675 0.000000
vt -5.675848 0.473531 0.000000
vt -5.963160 0.444635 0.000000
vt -6.251889 0.449043 0.000000
vt -6.538184 0.486698 0.000000
vt -6.181042 0.421938 0.000000
vt -5.818564 0.403071 0.000000
vt -5.456626 0.430400 0.000000
vt -1.339449 1.006624 0.000000
vt 0.104921 1.006624 0.000000
vt 0.847098 0.905127 0.000000
vt 8.415106 0.905127 0.000000
vt 6.773400 0.908970 0.000000
vt 5.972330 0.913739 0.000000
vt 5.194784 0.920351 0.000000
vt 4.448252 0.928742 0.000000
vt 3.739923 0.938833 0.000000
vt 3.076619 0.950525 0.000000
vt 2.464727 0.963705 0.000000
vt 1.910141 0.978248 0.000000
vt 1.418201 0.994013 0.000000
vt 0.993645 1.010847 0.000000
vt 0.640562 1.028590 0.000000
vt 0.491913 1.037749 0.000000
vt 0.362352 1.047070 0.000000
vt 0.252190 1.056531 0.000000
vt 0.161694 1.066109 0.000000
vt 0.091081 1.075781 0.000000
vt 0.040521 1.085523 0.000000
vt 0.010136 1.095313 0.000000
vt 0.002534 1.100218 0.000000
vt 0.000634 1.102672 0.000000
vt -0.000000 1.105127 0.000000
vt -0.000000 1.299219 0.000000
vt 0.000000 0.250000 0.000000
vt 9.700012 0.250000 0.000000
vt 9.623226 0.274118 0.000000
vt 9.603611 0.286947 0.000000
vt 9.598681 0.293460 0.000000
vt 9.597035 0.300000 0.000000
vt 9.597035 0.800000 0.000000
vt 9.598681 0.806540 0.000000
vt 9.603611 0.813053 0.000000
vt 9.623226 0.825882 0.000000
vt 9.700012 0.850000 0.000000
vt 0.000000 0.850000 0.000000
vt 0.236240 0.037315 0.000000
vt 0.385516 0.117684 0.000000
vt 0.051314 0.117684 0.000000
vt 0.056141 0.039228 0.000000
vt 0.058722 -0.039228 0.000000
vt 0.058366 -0.117684 0.000000
vt 0.137944 -0.117684 0.000000
vt 0.138468 -0.084055 0.000000
vt 0.138435 -0.050426 0.000000
vt 0.137845 -0.016797 0.000000
vt 0.188016 0.007313 0.000000
vt 0.190077 -0.001987 0.000000
vt 0.191992 -0.011288 0.000000
vt 0.193753 -0.020589 0.000000
vt 0.237808 -0.000925 0.000000
vt 0.237354 0.011822 0.000000
vt 0.236830 0.024568 0.000000
vt 0.152887 0.039363 0.000000
vt -0.009863 -0.008265 0.000000
vt -0.010891 -0.018631 0.000000
vt -0.011627 -0.028997 0.000000
vt -0.012039 -0.039363 0.000000
vt 5.562742 -0.039363 0.000000
vt 5.562742 -0.013121 0.000000
vt 5.562742 0.013121 0.000000
vt 5.562742 0.039363 0.000000
vn -0.013010 0.099150 0.000000
vn -0.011267 0.085866 -0.050000
vn -0.006505 0.049575 -0.086603
vn 0.000000 0.000000 -0.100000
vn 0.000000 0.000000 -0.100000
vn -0.007211 0.054954 -0.083235
vn -0.011267 0.085866 -0.050000
vn -0.012567 0.095772 -0.025882
vn -0.012899 0.098302 -0.013053
vn -0.012982 0.098938 -0.006540
vn -0.013010 0.099150 0.000000
vn -0.013010 0.099150 0.000000
vn -0.013010 0.099150 0.000000
vn -0.013010 0.099150 0.000000
vn -0.013010 0.099150 0.000000
vn 0.000000 0.000000 0.100000
vn -0.006505 0.049575 0.086603
vn -0.011267 0.085866 0.050000
vn -0.013010 0.099150 0.000000
vn -0.013010 0.099150 0.000000
vn -0.012982 0.098938 0.006540
vn -0.012899 0.098302 0.013053
vn -0.012567 0.095772 0.025882
vn -0.011267 0.085866 0.050000
vn -0.007211 0.054954 0.083235
vn 0.000000 0.000000 0.100000
vn 0.000000 0.000000 0.100000
vn 0.000000 0.000000 0.100000
vn 0.000000 0.000000 0.100000
vn 0.000000 0.000000 0.100000
vn 0.000000 0.000000 0.100000
vn 0.000000 0.100000 0.000000
vn 0.000000 0.086603 0.050000
vn 0.000000 0.050000 0.086603
vn 0.000000 0.000000 0.100000
vn 0.000000 0.000000 0.100000
vn 0.000000 0.074711 0.066470
vn 0.000000 0.100000 0.000000
vn -0.100000 0.000000 0.000000
vn -0.100000 0.000000 0.000000
vn -0.100000 0.000000 0.000000
vn -0.100000 0.000000 0.000000
vn -0.100000 0.000000 0.000000
vn -0.100000 0.000000 0.000000
vn -0.100000 0.000000 0.000000
vn -0.100000 0.000000 0.000000
vn -0.100000 0.000000 0.000000
vn -0.100000 0.000000 0.000000
vn 0.000000 0.000000 -0.100000
vn 0.000000 0.050000 -0.086603
vn 0.000000 0.086603 -0.050000
vn 0.000000 0.100000 0.000000
vn 0.000000 0.100000 0.000000
vn 0.000000 0.074711 -0.066470
vn 0.000000 0.000000 -0.100000
vn 0.000000 0.000000 -0.100000
vn 0.000000 0.000000 -0.100000
vn 0.000000 0.000000 -0.100000
vn 0.000000 0.000000 -0.100000
vn 0.000000 0.000000 -0.100000
vn 0.000000 -0.086132 0.050805
vn 0.000000 -0.092118 0.038914
vn 0.000000 -0.096471 0.026332
vn 0.000000 -0.099114 0.013284
vn 0.000000 -0.099778 0.006657
vn 0.000000 -0.099945 0.003330
vn 0.000000 -0.100000 0.000000
vn 0.000000 -0.100000 0.000000
vn 0.000000 -0.098079 0.019509
vn 0.000000 -0.095694 0.029028
vn 0.000000 -0.092388 0.038268
vn 0.000000 -0.088192 0.047140
vn 0.000000 -0.083147 0.055557
vn 0.000000 -0.077301 0.063439
vn 0.000000 -0.070711 0.070711
vn 0.000000 -0.063439 0.077301
vn 0.000000 -0.055557 0.083147
vn 0.000000 -0.047140 0.088192
vn 0.000000 -0.038268 0.092388
vn 0.000000 -0.033689 0.094154
vn 0.000000 -0.029028 0.095694
vn 0.000000 -0.024298 0.097003
vn 0.000000 -0.019509 0.098079
vn 0.000000 -0.014673 0.098918
vn 0.000000 -0.009802 0.099518
vn 0.000000 -0.004907 0.099880
vn 0.000000 -0.002454 0.099970
vn 0.000000 -0.001227 0.099992
vn 0.000000 0.000000 0.100000
vn 0.000000 0.000000 0.100000
vn 0.000000 -0.049596 0.086835
vn 0.000000 -0.070214 0.071204
vn 0.000000 -0.100000 0.000000
vn 0.000000 -0.100000 0.000000
vn 0.000000 -0.100000 0.000000
vn 0.000000 -0.100000 0.000000
vn 0.000000 -0.100000 0.000000
vn 0.000000 -0.100000 0.000000
vn -0.005114 -0.099869 0.000000
vn -0.005114 -0.099869 0.000000
vn -0.005114 -0.099869 0.000000
vn -0.005114 -0.099869 0.000000
vn -0.005114 -0.099869 0.000000
vn -0.005114 -0.099869 0.000000
vn -0.005114 -0.099869 0.000000
vn -0.005114 -0.099869 0.000000
vn -0.005114 -0.099869 0.000000
vn -0.005114 -0.099869 0.000000
vn -0.005114 -0.099869 0.000000
vn -0.005114 -0.099869 0.000000
vn -0.005114 -0.099869 0.000000
vn -0.005114 -0.099869 0.000000
vn -0.055470 -0.083205 0.000000
vn -0.055470 -0.083205 0.000000
vn -0.055470 -0.083205 0.000000
vn -0.055470 -0.083205 0.000000
vn -0.055470 -0.083205 0.000000
vn -0.055470 -0.083205 0.000000
vn -0.055470 -0.083205 0.000000
vn -0.055470 -0.083205 0.000000
vn 0.000000 0.000000 -0.100000
vn 0.000000 -0.001227 -0.099992
vn 0.000000 -0.002454 -0.099970
vn 0.000000 -0.004907 -0.099880
vn 0.000000 -0.009802 -0.099518
vn 0.000000 -0.014673 -0.098918
vn 0.000000 -0.019509 -0.098079
vn 0.000000 -0.024298 -0.097003
vn 0.000000 -0.029028 -0.095694
vn 0.000000 -0.033689 -0.094154
vn 0.000000 -0.038268 -0.092388
vn 0.000000 -0.047140 -0.088192
vn 0.000000 -0.055557 -0.083147
vn 0.000000 -0.063439 -0.077301
vn 0.000000 -0.070711 -0.070711
vn 0.000000 -0.077301 -0.063439
vn 0.000000 -0.083147 -0.055557
vn 0.000000 -0.088192 -0.047140
vn 0.000000 -0.092388 -0.038268
vn 0.000000 -0.095694 -0.029028
vn 0.000000 -0.098079 -0.019509
vn 0.000000 -0.100000 0.000000
vn 0.000000 -0.100000 0.000000
vn 0.000000 -0.099945 -0.003330
vn 0.000000 -0.099778 -0.006657
vn 0.000000 -0.099114 -0.013284
vn 0.000000 -0.096471 -0.026332
vn 0.000000 -0.092118 -0.038914
vn 0.000000 -0.086132 -0.050805
vn 0.000000 -0.070214 -0.071204
vn 0.000000 -0.049596 -0.086835
vn 0.000000 0.000000 -0.100000
vn 0.086890 0.049498 0.000000
vn 0.098582 0.016781 0.000000
vn 0.098374 -0.017959 0.000000
vn 0.086292 -0.050534 0.000000
vn 0.078343 -0.046364 -0.041385
vn 0.057694 -0.034553 -0.074010
vn 0.029351 -0.018214 -0.093844
vn -0.002377 0.000000 -0.099972
vn 0.041903 0.025054 -0.087272
vn 0.074650 0.043210 -0.050599
vn 0.086890 0.049498 0.000000
vn 0.086890 0.049498 0.000000
vn 0.086890 0.049498 0.000000
vn 0.091161 -0.022995 -0.034072
vn 0.093865 -0.014910 -0.031098
vn 0.097326 0.010373 -0.020495
vn 0.093332 0.034932 -0.008297
vn 0.076887 -0.013210 -0.062560
vn 0.081627 -0.005863 -0.057469
vn 0.090794 0.016686 -0.038446
vn 0.091275 0.037722 -0.015679
vn 0.056314 0.001293 -0.082626
vn 0.063756 0.007771 -0.076647
vn 0.080903 0.026547 -0.052441
vn 0.088074 0.042137 -0.021620
vn 0.086890 0.049498 0.000000
vn 0.098582 0.016782 0.000000
vn 0.098374 -0.017960 0.000000
vn 0.086292 -0.050534 0.000000
vn 0.086292 -0.050534 0.000000
vn 0.098374 -0.017960 0.000000
vn 0.098582 0.016782 0.000000
vn 0.086890 0.049498 0.000000
vn 0.086890 0.049498 0.000000
vn 0.074650 0.043210 0.050599
vn 0.041903 0.025054 0.087272
vn -0.002377 0.000000 0.099972
vn 0.029353 -0.018211 0.093844
vn 0.057706 -0.034548 0.074003
vn 0.078361 -0.046364 0.041351
vn 0.086292 -0.050534 0.000000
vn 0.098374 -0.017959 0.000000
vn 0.098582 0.016781 0.000000
vn 0.086890 0.049498 0.000000
vn 0.086890 0.049498 0.000000
vn 0.086890 0.049498 0.000000
vn 0.056284 0.001277 0.082647
vn 0.063753 0.007777 0.076649
vn 0.080886 0.026532 0.052475
vn 0.088070 0.042108 0.021696
vn 0.076874 -0.013234 0.062572
vn 0.081630 -0.005863 0.057465
vn 0.090789 0.016659 0.038470
vn 0.091285 0.037676 0.015734
vn 0.091160 -0.023024 0.034056
vn 0.093872 -0.014911 0.031075
vn 0.097330 0.010341 0.020494
vn 0.093351 0.034877 0.008320
vn 0.086890 0.049498 0.000000
vn 0.074654 0.043212 0.050591
vn 0.041897 0.025049 0.087277
vn -0.002377 0.000000 0.099972
vn -0.002377 0.000000 0.099972
vn 0.041897 0.025049 0.087277
vn 0.074654 0.043212 0.050591
vn 0.086890 0.049498 0.000000
vn -0.002377 0.000000 -0.099972
vn 0.041897 0.025049 -0.087277
vn 0.074654 0.043212 -0.050591
vn 0.086890 0.049498 0.000000
vn 0.086890 0.049498 0.000000
vn 0.074654 0.043212 -0.050591
vn 0.041897 0.025049 -0.087277
vn -0.002377 0.000000 -0.099972
vn 0.086890 0.049498 0.000000
vn 0.048809 0.087279 0.000000
vn -0.003318 0.099945 0.000000
vn -0.054490 0.083850 0.000000
vn -0.089982 0.043626 0.000000
vn -0.078469 0.037475 0.049379
vn -0.046486 0.021548 0.085876
vn -0.002377 0.000000 0.099972
vn 0.041897 0.025049 0.087277
vn 0.074654 0.043212 0.050591
vn 0.019863 0.047370 0.085799
vn 0.033640 0.080229 0.049312
vn -0.022273 0.084096 0.049312
vn -0.040706 0.031329 0.085799
vn -0.013151 0.049654 0.085799
vn -0.068942 0.053060 0.049312
vn 0.086890 0.049498 0.000000
vn 0.048809 0.087279 0.000000
vn -0.003318 0.099945 0.000000
vn -0.054490 0.083850 0.000000
vn -0.089982 0.043626 0.000000
vn -0.089982 0.043626 0.000000
vn -0.054490 0.083850 0.000000
vn -0.003318 0.099945 0.000000
vn 0.048809 0.087279 0.000000
vn 0.086890 0.049498 0.000000
vn 0.086890 0.049498 0.000000
vn 0.074654 0.043212 -0.050591
vn 0.041897 0.025049 -0.087277
vn -0.002377 0.000000 -0.099972
vn -0.046486 0.021548 -0.085876
vn -0.078469 0.037475 -0.049379
vn -0.089982 0.043626 0.000000
vn -0.054490 0.083850 0.000000
vn -0.003318 0.099945 0.000000
vn 0.048809 0.087279 0.000000
vn -0.013151 0.049654 -0.085799
vn 0.019863 0.047370 -0.085799
vn 0.033640 0.080229 -0.049312
vn -0.068942 0.053060 -0.049312
vn -0.040706 0.031329 -0.085799
vn -0.022273 0.084096 -0.049312
vn -0.089982 0.043626 0.000000
vn -0.089982 0.043626 0.000000
vn -0.081901 0.057378 0.000000
vn -0.071736 0.069670 0.000000
vn -0.059747 0.080189 0.000000
vn -0.046237 0.088669 0.000000
vn -0.031551 0.094892 0.000000
vn -0.016062 0.098702 0.000000
vn -0.000164 0.100000 0.000000
vn 0.015738 0.098754 0.000000
vn 0.015738 0.098754 0.000000
vn -0.000164 0.100000 0.000000
vn -0.016062 0.098702 0.000000
vn -0.031551 0.094892 0.000000
vn -0.046237 0.088669 0.000000
vn -0.059747 0.080189 0.000000
vn -0.071736 0.069670 0.000000
vn -0.081901 0.057378 0.000000
vn -0.089962 0.043667 -0.000002
vn -0.078427 0.037497 -0.049428
vn -0.046417 0.021539 -0.085916
vn -0.002377 0.000000 -0.099972
vn -0.002377 0.000000 -0.099972
vn -0.002377 0.000000 -0.099972
vn -0.002377 0.000000 -0.099972
vn -0.002551 0.000105 -0.099967
vn -0.010842 0.006390 -0.099205
vn -0.015627 0.012393 -0.097991
vn -0.017085 0.017004 -0.097051
vn -0.016053 0.019635 -0.096730
vn -0.013261 0.019753 -0.097129
vn -0.009406 0.016667 -0.098152
vn -0.005512 0.010287 -0.099317
vn -0.002469 0.000472 -0.099968
vn -0.002377 0.000000 -0.099972
vn -0.002377 0.000000 -0.099972
vn -0.002377 0.000000 -0.099972
vn -0.002377 0.000000 -0.099972
vn 0.005815 0.049485 -0.086703
vn 0.012440 0.085643 -0.050105
vn 0.015719 0.098757 0.000000
vn -0.000169 0.100000 0.000000
vn -0.016031 0.098707 -0.000001
vn -0.031560 0.094889 -0.000000
vn -0.046227 0.088674 -0.000000
vn -0.059749 0.080188 -0.000001
vn -0.071738 0.069669 0.000000
vn -0.081913 0.057361 -0.000004
vn -0.052677 0.075892 -0.038283
vn -0.022911 0.013558 -0.096391
vn -0.051969 0.032938 -0.078831
vn -0.072989 0.047219 -0.049426
vn -0.077514 0.050371 -0.038135
vn -0.021004 0.016130 -0.096429
vn -0.047330 0.039184 -0.078896
vn -0.066319 0.056157 -0.049479
vn -0.070390 0.059897 -0.038178
vn -0.018762 0.018459 -0.096474
vn -0.041876 0.044833 -0.078971
vn -0.058482 0.064230 -0.049541
vn -0.062021 0.068498 -0.038228
vn -0.016255 0.020466 -0.096524
vn -0.035781 0.049700 -0.079055
vn -0.049729 0.071175 -0.049609
vn -0.014154 0.021787 -0.096566
vn -0.030673 0.052899 -0.079126
vn -0.042400 0.075732 -0.049668
vn -0.044856 0.080739 -0.038330
vn -0.011929 0.022894 -0.096610
vn -0.025267 0.055578 -0.079200
vn -0.034648 0.079540 -0.049728
vn -0.036585 0.084786 -0.038378
vn -0.008685 0.024053 -0.096675
vn -0.017385 0.058376 -0.079309
vn -0.023356 0.083503 -0.049817
vn -0.024542 0.088991 -0.038449
vn -0.005280 0.024758 -0.096743
vn -0.009118 0.060072 -0.079424
vn -0.011523 0.085884 -0.049911
vn -0.011929 0.091507 -0.038525
vn -0.001833 0.024984 -0.096811
vn -0.000754 0.060605 -0.079539
vn 0.000435 0.086599 -0.050004
vn 0.000812 0.092247 -0.038599
vn -0.002377 0.000000 -0.099972
vn -0.002377 0.000000 -0.099972
vn -0.002377 0.000000 -0.099972
vn -0.002377 0.000000 -0.099972
vn -0.002377 0.000000 -0.099972
vn -0.002377 0.000000 -0.099972
vn -0.002377 0.000000 -0.099972
vn -0.002374 -0.000002 -0.099972
vn 0.029268 -0.018160 -0.093881
vn 0.057754 -0.034576 -0.073953
vn 0.078408 -0.046384 -0.041240
vn 0.086293 -0.050532 -0.000000
vn 0.077894 -0.062710 -0.000002
vn 0.067892 -0.073422 -0.000004
vn 0.056352 -0.082611 -0.000000
vn 0.043538 -0.090025 -0.000001
vn 0.029926 -0.095417 -0.000003
vn 0.015527 -0.098787 0.000000
vn 0.000843 -0.099996 0.000000
vn -0.013864 -0.099034 0.000000
vn -0.013177 -0.085654 -0.049898
vn -0.008976 -0.049430 -0.086464
vn -0.002377 0.000000 -0.099972
vn -0.002377 -0.000059 -0.099972
vn -0.002375 -0.000016 -0.099972
vn -0.002354 -0.000093 -0.099972
vn -0.002268 -0.000429 -0.099973
vn 0.000260 -0.007477 -0.099720
vn 0.003107 -0.011961 -0.099234
vn 0.005675 -0.014033 -0.098848
vn 0.007505 -0.014060 -0.098722
vn 0.008139 -0.012395 -0.098894
vn 0.007009 -0.009233 -0.099326
vn 0.003680 -0.004969 -0.099809
vn -0.002088 -0.000196 -0.099978
vn -0.002373 -0.000002 -0.099972
vn -0.002377 -0.000000 -0.099972
vn -0.002375 -0.000001 -0.099972
vn 0.071887 -0.057520 -0.039035
vn 0.067248 -0.054071 -0.050538
vn 0.046133 -0.037948 -0.080198
vn 0.017510 -0.015658 -0.097202
vn 0.062559 -0.067580 -0.038978
vn 0.058469 -0.063518 -0.050467
vn 0.039957 -0.044562 -0.080111
vn 0.014959 -0.018383 -0.097151
vn 0.051789 -0.076181 -0.038915
vn 0.048337 -0.071586 -0.050388
vn 0.032833 -0.050198 -0.080013
vn 0.012018 -0.020703 -0.097092
vn 0.039810 -0.083106 -0.038840
vn 0.037073 -0.078077 -0.050295
vn 0.024923 -0.054724 -0.079901
vn 0.008753 -0.022565 -0.097027
vn 0.027095 -0.088109 -0.038765
vn 0.025121 -0.082758 -0.050200
vn 0.016537 -0.057974 -0.079784
vn 0.005294 -0.023899 -0.096958
vn 0.013663 -0.091196 -0.038685
vn 0.012503 -0.085636 -0.050102
vn 0.007693 -0.059955 -0.079663
vn 0.001648 -0.024709 -0.096885
vn -0.000109 -0.092249 -0.038602
vn -0.000420 -0.086602 -0.049998
vn -0.001333 -0.060598 -0.079537
vn -0.002063 -0.024967 -0.096811
vn 0.086890 0.049498 0.000000
vn 0.086890 0.049498 0.000000
vn 0.086890 0.049498 0.000000
vn 0.086890 0.049498 0.000000
vn 0.086890 0.049498 0.000000
vn 0.086890 0.049498 0.000000
vn 0.086890 0.049498 0.000000
vn 0.086890 0.049498 0.000000
vn 0.086890 0.049498 0.000000
vn 0.086890 0.049498 0.000000
vn -0.002377 0.000000 0.099972
vn -0.002377 0.000000 0.099972
vn -0.002377 0.000000 0.099972
vn -0.002377 0.000000 0.099972
vn -0.002377 0.000000 0.099972
vn -0.002377 0.000000 0.099972
vn -0.002377 0.000000 0.099972
vn -0.002377 0.000000 0.099972
vn -0.002377 0.000000 0.099972
vn -0.002377 0.000000 0.099972
vn -0.002377 0.000000 0.099972
vn -0.002377 0.000000 0.099972
vn -0.002377 0.000000 0.099972
vn -0.002377 0.000000 0.099972
vn -0.002377 0.000000 0.099972
vn -0.002377 0.000000 0.099972
vn -0.002377 0.000000 0.099972
vn -0.002377 0.000000 0.099972
vn -0.002377 0.000000 0.099972
vn -0.002377 0.000000 0.099972
vn -0.002377 0.000000 0.099972
vn -0.002377 0.000000 0.099972
vn -0.002377 0.000000 0.099972
vn -0.002377 0.000000 0.099972
vn -0.002377 0.000000 0.099972
vn -0.002377 0.000000 0.099972
vn -0.002377 0.000000 0.099972
vn -0.002377 0.000000 0.099972
vn -0.002377 0.000000 0.099972
vn -0.002377 0.000000 0.099972
vn -0.002377 0.000000 0.099972
vn -0.002377 0.000000 0.099972
vn -0.002377 0.000000 0.099972
vn -0.002377 0.000000 0.099972
vn -0.002377 0.000000 0.099972
vn -0.002377 0.000000 0.099972
vn -0.046483 0.021548 0.085878
vn -0.078462 0.037474 0.049391
vn -0.089981 0.043629 0.000000
vn -0.081875 0.057415 0.000002
vn -0.071734 0.069672 0.000006
vn -0.059787 0.080159 0.000000
vn -0.046175 0.088701 0.000004
vn -0.031583 0.094882 0.000002
vn -0.016089 0.098697 -0.000001
vn -0.000161 0.100000 0.000000
vn 0.015738 0.098754 0.000000
vn 0.012457 0.085643 0.050101
vn 0.005826 0.049491 0.086699
vn -0.002377 0.000000 0.099972
vn -0.002377 0.000000 0.099972
vn -0.002377 0.000000 0.099972
vn -0.002377 0.000000 0.099972
vn -0.002453 0.000388 0.099969
vn -0.005419 0.009969 0.099354
vn -0.009257 0.016319 0.098224
vn -0.013168 0.019619 0.097168
vn -0.016095 0.019688 0.096713
vn -0.016962 0.016837 0.097102
vn -0.015363 0.012155 0.098062
vn -0.010893 0.006442 0.099196
vn -0.002786 0.000246 0.099961
vn -0.002377 0.000000 0.099972
vn -0.002377 0.000000 0.099972
vn -0.002377 0.000000 0.099972
vn -0.006311 0.024611 0.096719
vn -0.010156 0.023607 0.096641
vn -0.075984 0.052648 0.038140
vn -0.071554 0.049354 0.049439
vn -0.050975 0.034432 0.078841
vn -0.022512 0.014179 0.096396
vn -0.066736 0.063936 0.038191
vn -0.062896 0.059945 0.049504
vn -0.044953 0.041839 0.078922
vn -0.020036 0.017233 0.096445
vn -0.055822 0.073623 0.038257
vn -0.052674 0.069041 0.049586
vn -0.037835 0.048208 0.079022
vn -0.017107 0.019861 0.096503
vn -0.043364 0.081550 0.038331
vn -0.041001 0.076492 0.049677
vn -0.029700 0.053439 0.079134
vn -0.013760 0.022021 0.096570
vn -0.029981 0.087327 0.038407
vn -0.028456 0.081932 0.049773
vn -0.020948 0.057272 0.079253
vn -0.015739 0.090942 0.038495
vn -0.015098 0.085345 0.049882
vn -0.011617 0.059691 0.079385
vn -0.001065 0.092251 0.038582
vn -0.001327 0.086597 0.049991
vn -0.001988 0.060605 0.079518
vn -0.002341 0.024995 0.096798
vn -0.002377 0.000000 0.099972
vn -0.002377 0.000000 0.099972
vn -0.002377 0.000000 0.099972
vn -0.002377 0.000000 0.099972
vn -0.002377 0.000000 0.099972
vn -0.002377 0.000000 0.099972
vn -0.002377 0.000000 0.099972
vn 0.086270 -0.050572 0.000002
vn 0.078397 -0.046427 0.041212
vn 0.057775 -0.034624 0.073914
vn 0.029327 -0.018213 0.093852
vn -0.002300 -0.000044 0.099974
vn -0.002275 -0.000062 0.099974
vn -0.002255 -0.000078 0.099975
vn -0.002243 -0.000090 0.099975
vn -0.001960 -0.000283 0.099980
vn 0.003685 -0.004965 0.099809
vn 0.006881 -0.009100 0.099347
vn 0.008058 -0.012318 0.098911
vn 0.007528 -0.014102 0.098714
vn 0.005666 -0.013994 0.098854
vn 0.003025 -0.011776 0.099258
vn 0.000198 -0.007312 0.099732
vn -0.002283 -0.000371 0.099973
vn -0.002367 -0.000040 0.099972
vn -0.002373 -0.000029 0.099972
vn -0.002379 -0.000226 0.099971
vn -0.002401 -0.000175 0.099971
vn -0.008966 -0.049570 0.086385
vn -0.013137 -0.085707 0.049818
vn -0.013812 -0.099042 0.000001
vn 0.000798 -0.099997 -0.000001
vn 0.015530 -0.098787 0.000000
vn 0.029883 -0.095431 0.000001
vn 0.043580 -0.090004 0.000000
vn 0.056341 -0.082618 0.000001
vn 0.067865 -0.073446 -0.000000
vn 0.077948 -0.062643 0.000004
vn 0.048021 -0.078629 0.038879
vn 0.017934 -0.015162 0.097203
vn 0.047114 -0.036713 0.080202
vn 0.068628 -0.052297 0.050549
vn 0.073358 -0.055634 0.039031
vn 0.015890 -0.017518 0.097163
vn 0.042172 -0.042425 0.080135
vn 0.061608 -0.060455 0.050494
vn 0.065899 -0.064322 0.038987
vn 0.013557 -0.019613 0.097116
vn 0.036526 -0.047507 0.080056
vn 0.053581 -0.067720 0.050429
vn 0.057367 -0.072063 0.038935
vn 0.011004 -0.021384 0.097065
vn 0.030348 -0.051806 0.079969
vn 0.044790 -0.073877 0.050359
vn 0.008785 -0.022578 0.097021
vn 0.024975 -0.054709 0.079895
vn 0.037141 -0.078043 0.050298
vn 0.039885 -0.083075 0.038830
vn 0.006460 -0.023542 0.096974
vn 0.019345 -0.057054 0.079816
vn 0.029119 -0.081417 0.050233
vn 0.031351 -0.086680 0.038778
vn 0.003483 -0.024400 0.096915
vn 0.012133 -0.059145 0.079716
vn 0.018835 -0.084439 0.050152
vn 0.020406 -0.089916 0.038713
vn 0.000402 -0.024885 0.096853
vn 0.004665 -0.060334 0.079612
vn 0.008176 -0.086177 0.050066
vn 0.009057 -0.091786 0.038644
vn -0.002687 -0.024984 0.096791
vn -0.002827 -0.060587 0.079506
vn -0.002527 -0.086578 0.049979
vn -0.002343 -0.092231 0.038574
vn 0.024646 0.096915 0.000000
vn 0.024646 0.096915 0.000000
vn 0.024646 0.096915 0.000000
vn 0.024646 0.096915 0.000000
vn -0.096915 0.024646 0.000000
vn -0.096915 0.024646 0.000000
vn -0.096915 0.024646 0.000000
vn -0.096915 0.024646 0.000000
vn -0.096915 0.024646 0.000000
vn -0.096915 0.024646 0.000000
vn -0.096915 0.024646 0.000000
vn -0.096915 0.024646 0.000000
vn -0.002377 0.000000 -0.099972
vn -0.008975 -0.049423 -0.086469
vn -0.013178 -0.085658 -0.049891
vn -0.013864 -0.099034 0.000000
vn -0.013864 -0.099034 0.000000
vn -0.014026 -0.098527 -0.009779
vn -0.014053 -0.097076 -0.019463
vn -0.013704 -0.091402 -0.038182
vn -0.012830 -0.082231 -0.055439
vn -0.011465 -0.069913 -0.070575
vn -0.007489 -0.037824 -0.092268
vn -0.002377 0.000000 -0.099972
vn -0.002377 0.000000 0.099972
vn -0.007489 -0.037824 0.092268
vn -0.011465 -0.069913 0.070575
vn -0.012830 -0.082231 0.055439
vn -0.013704 -0.091402 0.038182
vn -0.014053 -0.097076 0.019463
vn -0.014026 -0.098527 0.009779
vn -0.013864 -0.099034 0.000000
vn -0.013864 -0.099034 0.000000
vn -0.013178 -0.085658 0.049891
vn -0.008975 -0.049423 0.086469
vn -0.002377 0.000000 0.099972
vn 0.021369 0.097690 0.000000
vn 0.021369 0.097690 0.000000
vn 0.021369 0.097690 0.000000
vn 0.021369 0.097690 0.000000
vn 0.086292 -0.050534 0.000000
vn 0.086292 -0.050534 0.000000
vn 0.077928 -0.062668 0.000000
vn 0.067870 -0.073441 0.000000
vn 0.056339 -0.082619 0.000000
vn 0.043584 -0.090003 0.000000
vn 0.029882 -0.095431 0.000000
vn 0.015531 -0.098787 0.000000
vn 0.000842 -0.099996 0.000000
vn -0.013864 -0.099034 0.000000
vn -0.013864 -0.099034 0.000000
vn 0.000842 -0.099996 0.000000
vn 0.015531 -0.098787 0.000000
vn 0.029882 -0.095431 0.000000
vn 0.043584 -0.090003 0.000000
vn 0.056339 -0.082619 0.000000
vn 0.067870 -0.073441 0.000000
vn 0.077928 -0.062668 0.000000
vn 0.100000 0.000000 0.000000
vn 0.100000 0.000000 0.000000
vn 0.100000 0.000000 0.000000
vn 0.100000 0.000000 0.000000
vn 0.100000 0.000000 0.000000
vn 0.100000 0.000000 0.000000
vn 0.100000 0.000000 0.000000
vn 0.100000 0.000000 0.000000
vn 0.100000 0.000000 0.000000
vn 0.100000 0.000000 0.000000
vn 0.100000 0.000000 0.000000
vn 0.100000 0.000000 0.000000
vn 0.100000 0.000000 0.000000
vn 0.100000 0.000000 0.000000
vn 0.015738 0.098754 0.000000
vn 0.015738 0.098754 0.000000
vn 0.015738 0.098754 0.000000
vn 0.015738 0.098754 0.000000
vn 0.013553 -0.099077 0.000000
vn 0.013553 -0.099077 0.000000
vn 0.013553 -0.099077 0.000000
vn 0.013553 -0.099077 0.000000
vn 0.000000 -0.100000 0.000000
vn 0.000000 -0.100000 0.000000
vn 0.000000 -0.100000 0.000000
vn 0.000000 -0.100000 0.000000
vn 0.000000 -0.100000 0.000000
vn 0.000000 -0.100000 0.000000
vn 0.000000 -0.100000 0.000000
vn 0.000000 -0.100000 0.000000
vn 0.000000 -0.100000 0.000000
vn 0.000000 -0.100000 0.000000
vn 0.000000 -0.100000 0.000000
vn 0.000000 -0.100000 0.000000
vn 0.000000 -0.100000 0.000000
vn 0.000000 -0.100000 0.000000
vn 0.000000 -0.100000 0.000000
vn 0.000000 -0.100000 0.000000
vn 0.000000 -0.100000 0.000000
vn 0.000000 -0.100000 0.000000
vn -0.013864 -0.099034 0.000000
vn -0.013864 -0.099034 0.000000
vn -0.013864 -0.099034 0.000000
vn -0.013864 -0.099034 0.000000
vn 0.011440 0.080475 0.058248
vn -0.002377 0.000000 0.099972
vn -0.002377 0.000000 0.099972
vn 0.005825 0.049484 0.086703
vn 0.012458 0.085647 0.050094
vn 0.015738 0.098754 0.000000
vn 0.015738 0.098754 0.000000
vn 0.014923 0.096715 0.020579
vn 0.013470 0.090534 0.040276
vn -0.007000 0.077922 0.062283
vn -0.007392 0.089817 0.043339
vn -0.007414 0.097217 0.022226
vn -0.007065 0.099750 0.000000
vn -0.007065 0.099750 0.000000
vn -0.007302 0.086330 0.049937
vn -0.005586 0.049827 0.086522
vn -0.002377 0.000000 0.099972
vn -0.002377 0.000000 0.099972
vn -0.005648 0.050925 0.085877
vn -0.006040 0.058021 0.081223
vn -0.006389 0.064698 0.075982
vn -0.006691 0.070909 0.070194
vn -0.007062 0.079471 0.060287
vn -0.006901 0.075583 0.065112
vn -0.006714 0.071404 0.069688
vn -0.006501 0.066951 0.073996
vn 0.100000 0.000000 0.000000
vn 0.100000 0.000000 0.000000
vn 0.100000 0.000000 0.000000
vn 0.100000 0.000000 0.000000
vn 0.100000 0.000000 0.000000
vn 0.100000 0.000000 0.000000
vn 0.100000 0.000000 0.000000
vn 0.100000 0.000000 0.000000
vn -0.007065 0.099750 0.000000
vn -0.007065 0.099750 0.000000
vn -0.007065 0.099750 0.000000
vn -0.007065 0.099750 0.000000
vn -0.100000 0.000000 0.000000
vn -0.100000 0.000000 0.000000
vn -0.100000 0.000000 0.000000
vn -0.100000 0.000000 0.000000
vn -0.100000 0.000000 0.000000
vn -0.100000 0.000000 0.000000
vn -0.100000 0.000000 0.000000
vn -0.100000 0.000000 0.000000
vn -0.100000 0.000000 0.000000
vn -0.100000 0.000000 0.000000
vn -0.100000 0.000000 0.000000
vn -0.100000 0.000000 0.000000
vn -0.100000 0.000000 0.000000
vn -0.100000 0.000000 0.000000
vn -0.100000 0.000000 0.000000
vn -0.100000 0.000000 0.000000
vn -0.002377 0.000000 -0.099972
vn -0.002377 0.000000 -0.099972
vn -0.002377 0.000000 -0.099972
vn -0.002377 0.000000 -0.099972
vn -0.002377 0.000000 -0.099972
vn -0.002377 0.000000 -0.099972
vn -0.002377 0.000000 -0.099972
vn -0.002377 0.000000 -0.099972
vn -0.002377 0.000000 -0.099972
vn -0.002377 0.000000 -0.099972
vn -0.002377 0.000000 -0.099972
vn -0.002377 0.000000 -0.099972
vn -0.002377 0.000000 -0.099972
vn -0.002377 0.000000 -0.099972
vn -0.002377 0.000000 -0.099972
vn -0.002377 0.000000 -0.099972
vn -0.002377 0.000000 -0.099972
vn -0.002377 0.000000 -0.099972
vn -0.002377 0.000000 -0.099972
vn -0.002377 0.000000 -0.099972
vn -0.002377 0.000000 -0.099972
vn -0.002377 0.000000 -0.099972
vn -0.002377 0.000000 -0.099972
vn -0.002377 0.000000 -0.099972
vn -0.002377 0.000000 -0.099972
vn -0.002377 0.000000 -0.099972
vn -0.002377 0.000000 -0.099972
vn -0.002377 0.000000 -0.099972
vn -0.002377 0.000000 -0.099972
vn -0.002377 0.000000 -0.099972
vn -0.002377 0.000000 -0.099972
vn -0.002377 0.000000 -0.099972
vn -0.002377 0.000000 -0.099972
vn -0.002377 0.000000 -0.099972
vn -0.002377 0.000000 -0.099972
vn 0.000000 0.100000 0.000000
vn 0.000000 0.100000 0.000000
vn 0.000000 0.100000 0.000000
vn 0.000000 0.100000 0.000000
vn 0.000000 0.100000 0.000000
vn 0.000000 0.100000 0.000000
vn 0.000000 0.100000 0.000000
vn 0.000000 0.100000 0.000000
vn 0.000000 0.100000 0.000000
vn 0.000000 0.100000 0.000000
vn 0.000000 0.100000 0.000000
vn 0.000000 0.100000 0.000000
vn -0.005648 0.050925 -0.085877
vn -0.002377 0.000000 -0.099972
vn -0.002377 0.000000 -0.099972
vn -0.005586 0.049827 -0.086522
vn -0.007302 0.086330 -0.049937
vn -0.007065 0.099750 0.000000
vn -0.007065 0.099750 0.000000
vn -0.007414 0.097217 -0.022226
vn -0.007392 0.089817 -0.043339
vn -0.007000 0.077922 -0.062283
vn -0.006501 0.066951 -0.073996
vn -0.006714 0.071404 -0.069688
vn -0.006901 0.075583 -0.065112
vn -0.007062 0.079471 -0.060287
vn -0.006691 0.070909 -0.070194
vn -0.006389 0.064698 -0.075982
vn -0.006040 0.058021 -0.081223
vn -0.002377 0.000000 -0.099972
vn 0.011440 0.080475 -0.058248
vn 0.013470 0.090534 -0.040276
vn 0.014923 0.096715 -0.020579
vn 0.015738 0.098754 0.000000
vn 0.015738 0.098754 0.000000
vn 0.012458 0.085647 -0.050094
vn 0.005825 0.049484 -0.086703
vn -0.002377 0.000000 -0.099972
usemtl 191,191,191
f 99/2/2 59/8/8 101/1/1
f 101/1/1 59/8/8 57/9/9
f 101/1/1 57/9/9 55/10/10
f 95/3/3 67/6/6 99/2/2
f 99/2/2 67/6/6 63/7/7
f 99/2/2 63/7/7 59/8/8
f 91/4/4 71/5/5 95/3/3
f 95/3/3 71/5/5 67/6/6
f 55/10/10 53/11/11 101/1/1
f 101/12/12 53/13/13 102/15/15
f 102/15/15 53/13/13 54/14/14
f 92/16/16 96/17/17 72/26/26
f 72/26/26 96/17/17 68/25/25
f 68/25/25 96/17/17 100/18/18
f 68/25/25 100/18/18 64/24/24
f 64/24/24 100/18/18 60/23/23
f 60/23/23 100/18/18 102/19/19
f 60/23/23 102/19/19 58/22/22
f 58/22/22 102/19/19 56/21/21
f 56/21/21 102/19/19 54/20/20
f 92/27/27 72/28/28 90/31/31
f 90/31/31 72/28/28 2/30/30
f 2/30/30 72/28/28 4/29/29
f 10/32/32 8/33/33 64/38/38
f 64/38/38 8/33/33 68/37/37
f 68/37/37 8/33/33 6/34/34
f 68/37/37 6/34/34 72/36/36
f 72/36/36 6/34/34 4/35/35
f 6/40/40 10/42/42 4/39/39
f 4/39/39 10/42/42 3/46/46
f 4/39/39 3/46/46 2/48/48
f 2/48/48 3/46/46 1/47/47
f 6/40/40 8/41/41 10/42/42
f 10/42/42 9/43/43 3/46/46
f 3/46/46 9/43/43 5/45/45
f 5/45/45 9/43/43 7/44/44
f 3/49/49 5/50/50 71/55/55
f 71/55/55 5/50/50 67/54/54
f 67/54/54 5/50/50 7/51/51
f 67/54/54 7/51/51 63/53/53
f 63/53/53 7/51/51 9/52/52
f 91/57/57 89/58/58 71/56/56
f 71/56/56 89/58/58 1/59/59
f 71/56/56 1/59/59 3/60/60
f 18/62/62 38/72/72 16/61/61
f 16/61/61 38/72/72 40/73/73
f 16/61/61 40/73/73 42/74/74
f 20/63/63 34/70/70 18/62/62
f 18/62/62 34/70/70 36/71/71
f 18/62/62 36/71/71 38/72/72
f 34/70/70 20/63/63 32/69/69
f 32/69/69 20/63/63 22/64/64
f 32/69/69 22/64/64 24/65/65
f 32/69/69 24/65/65 30/68/68
f 30/68/68 24/65/65 26/66/66
f 30/68/68 26/66/66 28/67/67
f 16/61/61 42/74/74 14/92/92
f 14/92/92 42/74/74 44/75/75
f 14/92/92 44/75/75 46/76/76
f 14/92/92 46/76/76 12/91/91
f 12/91/91 46/76/76 48/77/77
f 12/91/91 48/77/77 50/78/78
f 50/78/78 62/79/79 12/91/91
f 12/91/91 62/79/79 66/80/80
f 12/91/91 66/80/80 70/81/81
f 70/81/81 74/82/82 12/91/91
f 12/91/91 74/82/82 2/90/90
f 2/90/90 74/82/82 76/83/83
f 2/90/90 76/83/83 80/84/84
f 80/84/84 82/85/85 2/90/90
f 2/90/90 82/85/85 84/86/86
f 2/90/90 84/86/86 86/87/87
f 86/87/87 88/88/88 2/90/90
f 2/90/90 88/88/88 90/89/89
f 51/98/98 52/93/93 29/97/97
f 29/97/97 52/93/93 30/94/94
f 29/97/97 30/94/94 28/95/95
f 28/95/95 27/96/96 29/97/97
f 26/100/100 24/101/101 28/99/99
f 28/99/99 24/101/101 22/102/102
f 28/99/99 22/102/102 20/103/103
f 18/104/104 17/107/107 20/103/103
f 20/103/103 17/107/107 19/108/108
f 20/103/103 19/108/108 28/99/99
f 28/99/99 19/108/108 27/112/112
f 27/112/112 19/108/108 21/109/109
f 27/112/112 21/109/109 23/110/110
f 16/105/105 15/106/106 18/104/104
f 18/104/104 15/106/106 17/107/107
f 23/110/110 25/111/111 27/112/112
f 15/120/120 16/113/113 13/119/119
f 13/119/119 16/113/113 14/114/114
f 13/119/119 14/114/114 11/118/118
f 11/118/118 14/114/114 12/115/115
f 11/118/118 12/115/115 1/117/117
f 1/117/117 12/115/115 2/116/116
f 89/121/121 87/122/122 1/152/152
f 1/152/152 87/122/122 85/123/123
f 1/152/152 85/123/123 83/124/124
f 83/124/124 81/125/125 1/152/152
f 1/152/152 81/125/125 79/126/126
f 1/152/152 79/126/126 75/127/127
f 75/127/127 73/128/128 1/152/152
f 1/152/152 73/128/128 11/151/151
f 11/151/151 73/128/128 69/129/129
f 11/151/151 69/129/129 65/130/130
f 65/130/130 61/131/131 11/151/151
f 11/151/151 61/131/131 49/132/132
f 11/151/151 49/132/132 47/133/133
f 47/133/133 45/134/134 11/151/151
f 11/151/151 45/134/134 13/150/150
f 13/150/150 45/134/134 43/135/135
f 13/150/150 43/135/135 41/136/136
f 13/150/150 41/136/136 15/149/149
f 15/149/149 41/136/136 39/137/137
f 15/149/149 39/137/137 37/138/138
f 15/149/149 37/138/138 17/148/148
f 17/148/148 37/138/138 35/139/139
f 17/148/148 35/139/139 33/140/140
f 17/148/148 33/140/140 19/147/147
f 19/147/147 33/140/140 31/141/141
f 19/147/147 31/141/141 21/146/146
f 21/146/146 31/141/141 23/145/145
f 23/145/145 31/141/141 29/142/142
f 23/145/145 29/142/142 25/144/144
f 25/144/144 29/142/142 27/143/143
f 429/165/165 435/153/153 438/169/169
f 438/169/169 435/153/153 445/154/154
f 438/169/169 445/154/154 441/168/168
f 441/168/168 445/154/154 443/155/155
f 441/168/168 443/155/155 439/167/167
f 439/167/167 443/155/155 431/166/166
f 439/167/167 431/166/166 419/171/171
f 419/171/171 431/166/166 417/170/170
f 419/171/171 417/170/170 407/175/175
f 407/175/175 417/170/170 405/174/174
f 407/175/175 405/174/174 395/161/161
f 395/161/161 405/174/174 397/159/159
f 395/161/161 397/159/159 385/160/160
f 443/155/155 433/156/156 431/166/166
f 431/166/166 433/156/156 427/157/157
f 431/166/166 427/157/157 417/170/170
f 417/170/170 427/157/157 411/158/158
f 417/170/170 411/158/158 405/174/174
f 405/174/174 411/158/158 397/159/159
f 395/161/161 403/162/162 407/175/175
f 407/175/175 403/162/162 413/176/176
f 407/175/175 413/176/176 419/171/171
f 419/171/171 413/176/176 424/172/172
f 419/171/171 424/172/172 439/167/167
f 439/167/167 424/172/172 441/168/168
f 413/176/176 403/162/162 416/177/177
f 416/177/177 403/162/162 409/163/163
f 416/177/177 409/163/163 421/164/164
f 429/165/165 438/169/169 421/164/164
f 421/164/164 438/169/169 425/173/173
f 421/164/164 425/173/173 416/177/177
f 416/177/177 425/173/173 424/172/172
f 416/177/177 424/172/172 413/176/176
f 425/173/173 438/169/169 441/168/168
f 425/173/173 441/168/168 424/172/172
f 435/185/185 436/178/178 445/184/184
f 445/184/184 436/178/178 446/179/179
f 445/184/184 446/179/179 444/180/180
f 434/181/181 433/182/182 444/180/180
f 444/180/180 433/182/182 443/183/183
f 444/180/180 443/183/183 445/184/184
f 422/198/198 410/186/186 415/202/202
f 415/202/202 410/186/186 404/187/187
f 415/202/202 404/187/187 414/201/201
f 414/201/201 404/187/187 396/188/188
f 414/201/201 396/188/188 408/200/200
f 408/200/200 396/188/188 406/199/199
f 408/200/200 406/199/199 420/204/204
f 420/204/204 406/199/199 418/203/203
f 420/204/204 418/203/203 440/208/208
f 440/208/208 418/203/203 432/207/207
f 440/208/208 432/207/207 444/194/194
f 444/194/194 432/207/207 434/193/193
f 434/193/193 432/207/207 428/192/192
f 428/192/192 432/207/207 412/191/191
f 412/191/191 432/207/207 418/203/203
f 412/191/191 418/203/203 398/190/190
f 398/190/190 418/203/203 406/199/199
f 398/190/190 406/199/199 386/189/189
f 386/189/189 406/199/199 396/188/188
f 440/208/208 444/194/194 442/209/209
f 442/209/209 444/194/194 446/195/195
f 442/209/209 446/195/195 437/210/210
f 437/210/210 446/195/195 436/196/196
f 437/210/210 436/196/196 430/197/197
f 437/210/210 430/197/197 426/206/206
f 426/206/206 430/197/197 422/198/198
f 426/206/206 422/198/198 415/202/202
f 426/206/206 415/202/202 414/201/201
f 414/201/201 408/200/200 423/205/205
f 423/205/205 408/200/200 420/204/204
f 423/205/205 420/204/204 442/209/209
f 442/209/209 420/204/204 440/208/208
f 437/210/210 426/206/206 423/205/205
f 423/205/205 426/206/206 414/201/201
f 437/210/210 423/205/205 442/209/209
f 410/218/218 402/211/211 404/217/217
f 404/217/217 402/211/211 400/212/212
f 404/217/217 400/212/212 396/216/216
f 396/216/216 400/212/212 392/213/213
f 396/216/216 392/213/213 386/215/215
f 386/215/215 392/213/213 384/214/214
f 385/226/226 383/219/219 395/225/225
f 395/225/225 383/219/219 391/220/220
f 395/225/225 391/220/220 403/224/224
f 403/224/224 391/220/220 399/221/221
f 403/224/224 399/221/221 409/223/223
f 409/223/223 399/221/221 401/222/222
f 402/227/227 394/228/228 400/236/236
f 400/236/236 394/228/228 390/238/238
f 400/236/236 390/238/238 388/237/237
f 388/237/237 390/238/238 380/241/241
f 388/237/237 380/241/241 384/234/234
f 384/234/234 380/241/241 376/240/240
f 384/234/234 376/240/240 374/233/233
f 374/233/233 376/240/240 364/232/232
f 364/232/232 376/240/240 366/242/242
f 364/232/232 366/242/242 362/231/231
f 362/231/231 366/242/242 372/230/230
f 372/230/230 366/242/242 378/239/239
f 372/230/230 378/239/239 382/229/229
f 382/229/229 378/239/239 390/238/238
f 382/229/229 390/238/238 394/228/228
f 384/234/234 392/235/235 388/237/237
f 388/237/237 392/235/235 400/236/236
f 376/240/240 380/241/241 378/239/239
f 378/239/239 380/241/241 390/238/238
f 366/242/242 376/240/240 378/239/239
f 402/252/252 401/243/243 394/251/251
f 394/251/251 401/243/243 393/244/244
f 394/251/251 393/244/244 382/250/250
f 382/250/250 393/244/244 381/245/245
f 382/250/250 381/245/245 372/249/249
f 372/249/249 381/245/245 371/246/246
f 372/249/249 371/246/246 362/248/248
f 362/248/248 371/246/246 361/247/247
f 401/253/253 399/254/254 393/262/262
f 393/262/262 399/254/254 389/265/265
f 393/262/262 389/265/265 381/261/261
f 381/261/261 389/265/265 377/268/268
f 381/261/261 377/268/268 371/260/260
f 371/260/260 377/268/268 365/266/266
f 371/260/260 365/266/266 361/259/259
f 361/259/259 365/266/266 363/258/258
f 363/258/258 365/266/266 375/267/267
f 363/258/258 375/267/267 373/257/257
f 373/257/257 375/267/267 383/256/256
f 383/256/256 375/267/267 379/263/263
f 383/256/256 379/263/263 387/264/264
f 387/264/264 379/263/263 377/268/268
f 387/264/264 377/268/268 389/265/265
f 389/265/265 399/254/254 387/264/264
f 387/264/264 399/254/254 391/255/255
f 387/264/264 391/255/255 383/256/256
f 379/263/263 375/267/267 365/266/266
f 377/268/268 379/263/263 365/266/266
f 362/269/269 361/270/270 334/286/286
f 334/286/286 361/270/270 333/271/271
f 334/286/286 333/271/271 311/285/285
f 311/285/285 333/271/271 310/272/272
f 311/285/285 310/272/272 294/284/284
f 294/284/284 310/272/272 293/273/273
f 294/284/284 293/273/273 266/283/283
f 266/283/283 293/273/273 265/274/274
f 266/283/283 265/274/274 240/282/282
f 240/282/282 265/274/274 239/275/275
f 240/282/282 239/275/275 214/281/281
f 214/281/281 239/275/275 213/276/276
f 214/281/281 213/276/276 194/280/280
f 194/280/280 213/276/276 193/277/277
f 194/280/280 193/277/277 170/279/279
f 170/279/279 193/277/277 169/278/278
f 333/316/316 361/287/287 340/321/321
f 340/321/321 361/287/287 363/288/288
f 340/321/321 363/288/288 341/320/320
f 341/320/320 363/288/288 373/289/289
f 341/320/320 373/289/289 342/319/319
f 342/319/319 373/289/289 344/318/318
f 342/319/319 344/318/318 326/323/323
f 326/323/323 344/318/318 328/322/322
f 326/323/323 328/322/322 307/327/327
f 307/327/327 328/322/322 308/326/326
f 307/327/327 308/326/326 286/298/298
f 286/298/298 308/326/326 302/297/297
f 302/297/297 308/326/326 321/296/296
f 321/296/296 308/326/326 328/322/322
f 321/296/296 328/322/322 331/295/295
f 331/295/295 328/322/322 344/318/318
f 331/295/295 344/318/318 353/294/294
f 353/294/294 344/318/318 357/292/292
f 353/294/294 357/292/292 355/293/293
f 383/290/290 367/291/291 373/289/289
f 373/289/289 367/291/291 344/318/318
f 367/291/291 357/292/292 344/318/318
f 275/299/299 284/330/330 286/298/298
f 286/298/298 284/330/330 283/331/331
f 286/298/298 283/331/331 307/327/327
f 307/327/327 283/331/331 282/332/332
f 307/327/327 282/332/332 306/328/328
f 306/328/328 282/332/332 281/317/317
f 306/328/328 281/317/317 304/329/329
f 304/329/329 281/317/317 293/314/314
f 304/329/329 293/314/314 310/315/315
f 284/330/330 275/299/299 274/333/333
f 274/333/333 275/299/299 253/300/300
f 274/333/333 253/300/300 252/337/337
f 252/337/337 253/300/300 237/301/301
f 252/337/337 237/301/301 230/341/341
f 230/341/341 237/301/301 225/302/302
f 230/341/341 225/302/302 212/345/345
f 212/345/345 225/302/302 223/303/303
f 212/345/345 223/303/303 201/304/304
f 212/345/345 201/304/304 185/349/349
f 185/349/349 201/304/304 183/305/305
f 185/349/349 183/305/305 163/306/306
f 163/306/306 165/307/307 185/349/349
f 185/349/349 165/307/307 186/350/350
f 185/349/349 186/350/350 212/345/345
f 212/345/345 186/350/350 211/346/346
f 212/345/345 211/346/346 230/341/341
f 230/341/341 211/346/346 229/342/342
f 230/341/341 229/342/342 252/337/337
f 252/337/337 229/342/342 251/338/338
f 252/337/337 251/338/338 274/333/333
f 274/333/333 251/338/338 273/334/334
f 274/333/333 273/334/334 284/330/330
f 284/330/330 273/334/334 283/331/331
f 165/307/307 167/308/308 186/350/350
f 186/350/350 167/308/308 187/351/351
f 186/350/350 187/351/351 211/346/346
f 211/346/346 187/351/351 210/347/347
f 211/346/346 210/347/347 229/342/342
f 229/342/342 210/347/347 228/343/343
f 229/342/342 228/343/343 251/338/338
f 251/338/338 228/343/343 250/339/339
f 251/338/338 250/339/339 273/334/334
f 273/334/334 250/339/339 272/335/335
f 273/334/334 272/335/335 283/331/331
f 283/331/331 272/335/335 282/332/332
f 167/308/308 169/309/309 187/351/351
f 187/351/351 169/309/309 188/352/352
f 187/351/351 188/352/352 210/347/347
f 210/347/347 188/352/352 209/348/348
f 210/347/347 209/348/348 228/343/343
f 228/343/343 209/348/348 227/344/344
f 228/343/343 227/344/344 250/339/339
f 250/339/339 227/344/344 249/340/340
f 250/339/339 249/340/340 272/335/335
f 272/335/335 249/340/340 271/336/336
f 272/335/335 271/336/336 282/332/332
f 282/332/332 271/336/336 281/317/317
f 169/309/309 193/310/310 188/352/352
f 188/352/352 193/310/310 209/348/348
f 193/310/310 213/311/311 209/348/348
f 209/348/348 213/311/311 227/344/344
f 213/311/311 239/312/312 227/344/344
f 227/344/344 239/312/312 249/340/340
f 239/312/312 265/313/313 249/340/340
f 249/340/340 265/313/313 271/336/336
f 271/336/336 265/313/313 281/317/317
f 281/317/317 265/313/313 293/314/314
f 304/329/329 310/315/315 324/325/325
f 324/325/325 310/315/315 333/316/316
f 324/325/325 333/316/316 340/321/321
f 324/325/325 340/321/321 341/320/320
f 341/320/320 342/319/319 325/324/324
f 325/324/324 342/319/319 326/323/323
f 325/324/324 326/323/323 306/328/328
f 306/328/328 326/323/323 307/327/327
f 304/329/329 324/325/325 325/324/324
f 325/324/324 324/325/325 341/320/320
f 304/329/329 325/324/324 306/328/328
f 383/353/353 385/354/354 367/359/359
f 367/359/359 385/354/354 369/355/355
f 367/359/359 369/355/355 357/358/358
f 357/358/358 369/355/355 359/356/356
f 357/358/358 359/356/356 355/357/357
f 385/360/360 397/361/361 369/390/390
f 369/390/390 397/361/361 359/389/389
f 359/389/389 397/361/361 339/394/394
f 359/389/389 339/394/394 353/387/387
f 353/387/387 339/394/394 331/386/386
f 331/386/386 339/394/394 321/385/385
f 321/385/385 339/394/394 309/398/398
f 321/385/385 309/398/398 302/384/384
f 302/384/384 309/398/398 285/402/402
f 302/384/384 285/402/402 286/383/383
f 286/383/383 285/402/402 275/382/382
f 275/382/382 285/402/402 255/406/406
f 275/382/382 255/406/406 253/381/381
f 253/381/381 255/406/406 231/410/410
f 253/381/381 231/410/410 237/380/380
f 237/380/380 231/410/410 225/379/379
f 225/379/379 231/410/410 203/414/414
f 225/379/379 203/414/414 223/378/378
f 223/378/378 203/414/414 199/377/377
f 199/377/377 203/414/414 182/418/418
f 199/377/377 182/418/418 175/376/376
f 175/376/376 182/418/418 161/375/375
f 161/375/375 182/418/418 159/374/374
f 159/374/374 182/418/418 181/417/417
f 159/374/374 181/417/417 157/373/373
f 157/373/373 181/417/417 180/416/416
f 157/373/373 180/416/416 179/415/415
f 179/415/415 180/416/416 208/411/411
f 179/415/415 208/411/411 205/370/370
f 205/370/370 208/411/411 233/369/369
f 233/369/369 208/411/411 236/407/407
f 233/369/369 236/407/407 259/368/368
f 259/368/368 236/407/407 263/403/403
f 259/368/368 263/403/403 289/367/367
f 289/367/367 263/403/403 292/399/399
f 289/367/367 292/399/399 317/366/366
f 317/366/366 292/399/399 320/395/395
f 317/366/366 320/395/395 346/365/365
f 346/365/365 320/395/395 349/391/391
f 346/365/365 349/391/391 433/364/364
f 433/364/364 349/391/391 427/363/363
f 427/363/363 349/391/391 348/392/392
f 427/363/363 348/392/392 411/362/362
f 411/362/362 348/392/392 343/393/393
f 411/362/362 343/393/393 397/361/361
f 397/361/361 343/393/393 339/394/394
f 205/370/370 177/371/371 179/415/415
f 179/415/415 177/371/371 155/372/372
f 179/415/415 155/372/372 157/373/373
f 353/387/387 355/388/388 359/389/389
f 348/392/392 349/391/391 319/396/396
f 319/396/396 349/391/391 320/395/395
f 319/396/396 320/395/395 291/400/400
f 291/400/400 320/395/395 292/399/399
f 291/400/400 292/399/399 261/404/404
f 261/404/404 292/399/399 263/403/403
f 261/404/404 263/403/403 235/408/408
f 235/408/408 263/403/403 236/407/407
f 235/408/408 236/407/407 207/412/412
f 207/412/412 236/407/407 208/411/411
f 207/412/412 208/411/411 180/416/416
f 309/398/398 339/394/394 343/393/393
f 343/393/393 348/392/392 315/397/397
f 315/397/397 348/392/392 319/396/396
f 315/397/397 319/396/396 288/401/401
f 288/401/401 319/396/396 291/400/400
f 288/401/401 291/400/400 257/405/405
f 257/405/405 291/400/400 261/404/404
f 257/405/405 261/404/404 232/409/409
f 232/409/409 261/404/404 235/408/408
f 232/409/409 235/408/408 204/413/413
f 204/413/413 235/408/408 207/412/412
f 204/413/413 207/412/412 181/417/417
f 181/417/417 207/412/412 180/416/416
f 285/402/402 309/398/398 315/397/397
f 315/397/397 309/398/398 343/393/393
f 285/402/402 315/397/397 288/401/401
f 255/406/406 285/402/402 288/401/401
f 255/406/406 288/401/401 257/405/405
f 231/410/410 255/406/406 257/405/405
f 231/410/410 257/405/405 232/409/409
f 203/414/414 231/410/410 232/409/409
f 203/414/414 232/409/409 204/413/413
f 182/418/418 203/414/414 204/413/413
f 182/418/418 204/413/413 181/417/417
f 435/419/419 429/420/420 436/428/428
f 436/428/428 429/420/420 430/427/427
f 430/427/427 429/420/420 422/426/426
f 422/426/426 429/420/420 421/421/421
f 422/426/426 421/421/421 409/422/422
f 401/423/423 402/424/424 409/422/422
f 409/422/422 402/424/424 410/425/425
f 409/422/422 410/425/425 422/426/426
f 94/430/430 92/431/431 138/429/429
f 138/429/429 92/431/431 90/432/432
f 138/429/429 90/432/432 154/456/456
f 154/456/456 90/432/432 88/433/433
f 154/456/456 88/433/433 86/434/434
f 86/434/434 84/435/435 154/456/456
f 154/456/456 84/435/435 82/436/436
f 154/456/456 82/436/436 80/437/437
f 80/437/437 76/438/438 154/456/456
f 154/456/456 76/438/438 78/455/455
f 78/455/455 76/438/438 74/439/439
f 78/455/455 74/439/439 70/440/440
f 70/440/440 66/441/441 78/455/455
f 78/455/455 66/441/441 62/442/442
f 78/455/455 62/442/442 50/443/443
f 78/455/455 50/443/443 52/454/454
f 52/454/454 50/443/443 48/444/444
f 52/454/454 48/444/444 46/445/445
f 46/445/445 44/446/446 52/454/454
f 52/454/454 44/446/446 42/447/447
f 52/454/454 42/447/447 40/448/448
f 40/448/448 38/449/449 52/454/454
f 52/454/454 38/449/449 36/450/450
f 52/454/454 36/450/450 34/451/451
f 34/451/451 32/452/452 52/454/454
f 52/454/454 32/452/452 30/453/453
f 138/429/429 154/456/456 164/463/463
f 164/463/463 154/456/456 162/457/457
f 164/463/463 162/457/457 184/462/462
f 184/462/462 162/457/457 200/459/459
f 184/462/462 200/459/459 202/461/461
f 202/461/461 200/459/459 224/460/460
f 162/457/457 176/458/458 200/459/459
f 384/464/464 374/465/465 368/493/493
f 368/493/493 374/465/465 338/499/499
f 368/493/493 338/499/499 358/492/492
f 358/492/492 338/499/499 354/490/490
f 358/492/492 354/490/490 356/491/491
f 374/465/465 364/466/466 338/499/499
f 338/499/499 364/466/466 337/498/498
f 338/499/499 337/498/498 316/503/503
f 316/503/503 337/498/498 314/502/502
f 316/503/503 314/502/502 303/487/487
f 303/487/487 314/502/502 297/506/506
f 303/487/487 297/506/506 298/507/507
f 298/507/507 297/506/506 269/510/510
f 298/507/507 269/510/510 270/511/511
f 270/511/511 269/510/510 244/495/495
f 270/511/511 244/495/495 254/484/484
f 254/484/484 244/495/495 238/483/483
f 238/483/483 244/495/495 218/494/494
f 238/483/483 218/494/494 226/482/482
f 226/482/482 218/494/494 224/481/481
f 224/481/481 218/494/494 202/480/480
f 202/480/480 218/494/494 189/521/521
f 202/480/480 189/521/521 184/479/479
f 184/479/479 189/521/521 164/478/478
f 164/478/478 189/521/521 190/520/520
f 164/478/478 190/520/520 166/477/477
f 166/477/477 190/520/520 191/519/519
f 166/477/477 191/519/519 168/476/476
f 168/476/476 191/519/519 192/518/518
f 168/476/476 192/518/518 194/474/474
f 194/474/474 192/518/518 215/515/515
f 194/474/474 215/515/515 214/473/473
f 214/473/473 215/515/515 241/512/512
f 214/473/473 241/512/512 240/472/472
f 240/472/472 241/512/512 267/508/508
f 240/472/472 267/508/508 266/471/471
f 266/471/471 267/508/508 295/504/504
f 266/471/471 295/504/504 294/470/470
f 294/470/470 295/504/504 311/469/469
f 311/469/469 295/504/504 312/500/500
f 311/469/469 312/500/500 335/496/496
f 335/496/496 312/500/500 313/501/501
f 335/496/496 313/501/501 336/497/497
f 336/497/497 313/501/501 314/502/502
f 336/497/497 314/502/502 337/498/498
f 337/498/498 364/466/466 336/497/497
f 336/497/497 364/466/466 362/467/467
f 336/497/497 362/467/467 335/496/496
f 335/496/496 362/467/467 334/468/468
f 335/496/496 334/468/468 311/469/469
f 194/474/474 170/475/475 168/476/476
f 254/484/484 276/485/485 270/511/511
f 270/511/511 276/485/485 287/486/486
f 270/511/511 287/486/486 298/507/507
f 298/507/507 287/486/486 303/487/487
f 303/487/487 322/488/488 316/503/503
f 316/503/503 322/488/488 332/489/489
f 316/503/503 332/489/489 338/499/499
f 338/499/499 332/489/489 354/490/490
f 297/506/506 314/502/502 313/501/501
f 313/501/501 312/500/500 296/505/505
f 296/505/505 312/500/500 295/504/504
f 296/505/505 295/504/504 267/508/508
f 313/501/501 296/505/505 297/506/506
f 297/506/506 296/505/505 268/509/509
f 297/506/506 268/509/509 269/510/510
f 269/510/510 268/509/509 243/514/514
f 269/510/510 243/514/514 244/495/495
f 244/495/495 243/514/514 217/517/517
f 244/495/495 217/517/517 218/494/494
f 218/494/494 217/517/517 190/520/520
f 218/494/494 190/520/520 189/521/521
f 268/509/509 296/505/505 267/508/508
f 268/509/509 267/508/508 242/513/513
f 242/513/513 267/508/508 241/512/512
f 242/513/513 241/512/512 215/515/515
f 268/509/509 242/513/513 243/514/514
f 243/514/514 242/513/513 216/516/516
f 243/514/514 216/516/516 217/517/517
f 217/517/517 216/516/516 191/519/519
f 217/517/517 191/519/519 190/520/520
f 216/516/516 242/513/513 215/515/515
f 191/519/519 216/516/516 192/518/518
f 192/518/518 216/516/516 215/515/515
f 384/523/523 368/524/524 386/522/522
f 386/522/522 368/524/524 370/528/528
f 370/528/528 368/524/524 358/525/525
f 370/528/528 358/525/525 360/527/527
f 360/527/527 358/525/525 356/526/526
f 347/559/559 434/529/529 352/564/564
f 352/564/564 434/529/529 428/530/530
f 352/564/564 428/530/530 351/563/563
f 351/563/563 428/530/530 412/531/531
f 351/563/563 412/531/531 350/562/562
f 350/562/562 412/531/531 398/532/532
f 350/562/562 398/532/532 345/561/561
f 345/561/561 398/532/532 360/535/535
f 345/561/561 360/535/535 354/537/537
f 354/537/537 360/535/535 356/536/536
f 386/533/533 370/534/534 398/532/532
f 398/532/532 370/534/534 360/535/535
f 354/537/537 332/538/538 345/561/561
f 345/561/561 332/538/538 323/565/565
f 345/561/561 323/565/565 327/566/566
f 327/566/566 323/565/565 300/570/570
f 327/566/566 300/570/570 301/571/571
f 301/571/571 300/570/570 279/575/575
f 301/571/571 279/575/575 280/560/560
f 280/560/560 279/575/575 264/579/579
f 280/560/560 264/579/579 260/556/556
f 260/556/556 264/579/579 248/583/583
f 260/556/556 248/583/583 234/555/555
f 234/555/555 248/583/583 222/587/587
f 234/555/555 222/587/587 206/554/554
f 206/554/554 222/587/587 198/591/591
f 206/554/554 198/591/591 178/553/553
f 178/553/553 198/591/591 174/595/595
f 178/553/553 174/595/595 156/552/552
f 156/552/552 174/595/595 158/551/551
f 158/551/551 174/595/595 173/594/594
f 158/551/551 173/594/594 171/593/593
f 171/593/593 173/594/594 196/589/589
f 171/593/593 196/589/589 195/588/588
f 195/588/588 196/589/589 219/584/584
f 195/588/588 219/584/584 200/547/547
f 200/547/547 219/584/584 224/546/546
f 224/546/546 219/584/584 226/545/545
f 226/545/545 219/584/584 238/544/544
f 238/544/544 219/584/584 245/580/580
f 238/544/544 245/580/580 254/543/543
f 254/543/543 245/580/580 256/576/576
f 254/543/543 256/576/576 276/542/542
f 276/542/542 256/576/576 277/573/573
f 276/542/542 277/573/573 287/541/541
f 287/541/541 277/573/573 299/569/569
f 287/541/541 299/569/569 303/540/540
f 303/540/540 299/569/569 323/565/565
f 303/540/540 323/565/565 322/539/539
f 322/539/539 323/565/565 332/538/538
f 200/547/547 176/548/548 195/588/588
f 195/588/588 176/548/548 172/592/592
f 195/588/588 172/592/592 171/593/593
f 171/593/593 172/592/592 160/550/550
f 171/593/593 160/550/550 158/551/551
f 176/548/548 162/549/549 172/592/592
f 172/592/592 162/549/549 160/550/550
f 260/556/556 290/557/557 280/560/560
f 280/560/560 290/557/557 305/572/572
f 280/560/560 305/572/572 301/571/571
f 301/571/571 305/572/572 329/567/567
f 301/571/571 329/567/567 327/566/566
f 327/566/566 329/567/567 350/562/562
f 327/566/566 350/562/562 345/561/561
f 290/557/557 318/558/558 305/572/572
f 305/572/572 318/558/558 330/568/568
f 305/572/572 330/568/568 329/567/567
f 329/567/567 330/568/568 351/563/563
f 329/567/567 351/563/563 350/562/562
f 318/558/558 347/559/559 330/568/568
f 330/568/568 347/559/559 352/564/564
f 330/568/568 352/564/564 351/563/563
f 323/565/565 299/569/569 300/570/570
f 300/570/570 299/569/569 278/574/574
f 300/570/570 278/574/574 279/575/575
f 279/575/575 278/574/574 262/578/578
f 279/575/575 262/578/578 264/579/579
f 264/579/579 262/578/578 248/583/583
f 299/569/569 277/573/573 278/574/574
f 278/574/574 277/573/573 258/577/577
f 278/574/574 258/577/577 262/578/578
f 262/578/578 258/577/577 247/582/582
f 262/578/578 247/582/582 248/583/583
f 248/583/583 247/582/582 222/587/587
f 277/573/573 256/576/576 258/577/577
f 258/577/577 256/576/576 246/581/581
f 258/577/577 246/581/581 247/582/582
f 247/582/582 246/581/581 221/586/586
f 247/582/582 221/586/586 222/587/587
f 222/587/587 221/586/586 198/591/591
f 256/576/576 245/580/580 246/581/581
f 246/581/581 245/580/580 220/585/585
f 246/581/581 220/585/585 221/586/586
f 221/586/586 220/585/585 197/590/590
f 221/586/586 197/590/590 198/591/591
f 198/591/591 197/590/590 174/595/595
f 245/580/580 219/584/584 220/585/585
f 220/585/585 219/584/584 196/589/589
f 220/585/585 196/589/589 197/590/590
f 197/590/590 196/589/589 173/594/594
f 197/590/590 173/594/594 174/595/595
f 108/596/596 116/597/597 107/599/599
f 107/599/599 116/597/597 115/598/598
f 115/607/607 116/600/600 117/606/606
f 117/606/606 116/600/600 118/601/601
f 117/606/606 118/601/601 120/602/602
f 117/606/606 120/602/602 119/605/605
f 119/605/605 120/602/602 122/603/603
f 119/605/605 122/603/603 121/604/604
f 153/619/619 161/608/608 151/618/618
f 151/618/618 161/608/608 159/609/609
f 151/618/618 159/609/609 149/617/617
f 149/617/617 159/609/609 157/610/610
f 149/617/617 157/610/610 147/616/616
f 147/616/616 157/610/610 145/615/615
f 145/615/615 157/610/610 143/614/614
f 143/614/614 157/610/610 155/611/611
f 143/614/614 155/611/611 141/613/613
f 141/613/613 155/611/611 139/612/612
f 154/620/620 152/621/621 162/631/631
f 162/631/631 152/621/621 160/630/630
f 160/630/630 152/621/621 150/622/622
f 160/630/630 150/622/622 158/629/629
f 158/629/629 150/622/622 148/623/623
f 158/629/629 148/623/623 146/624/624
f 146/624/624 144/625/625 158/629/629
f 158/629/629 144/625/625 156/628/628
f 156/628/628 144/625/625 142/626/626
f 156/628/628 142/626/626 140/627/627
f 122/632/632 136/633/633 121/635/635
f 121/635/635 136/633/633 135/634/634
f 433/636/636 434/637/637 346/653/653
f 346/653/653 434/637/637 347/638/638
f 346/653/653 347/638/638 317/652/652
f 317/652/652 347/638/638 318/639/639
f 317/652/652 318/639/639 289/651/651
f 289/651/651 318/639/639 290/640/640
f 289/651/651 290/640/640 259/650/650
f 259/650/650 290/640/640 260/641/641
f 259/650/650 260/641/641 233/649/649
f 233/649/649 260/641/641 234/642/642
f 233/649/649 234/642/642 205/648/648
f 205/648/648 234/642/642 206/643/643
f 205/648/648 206/643/643 177/647/647
f 177/647/647 206/643/643 178/644/644
f 177/647/647 178/644/644 155/646/646
f 155/646/646 178/644/644 156/645/645
f 135/667/667 136/654/654 133/666/666
f 133/666/666 136/654/654 134/655/655
f 133/666/666 134/655/655 130/660/660
f 130/660/660 134/655/655 132/656/656
f 130/660/660 132/656/656 128/659/659
f 128/659/659 132/656/656 126/658/658
f 126/658/658 132/656/656 124/657/657
f 130/660/660 129/661/661 133/666/666
f 133/666/666 129/661/661 131/665/665
f 131/665/665 129/661/661 127/662/662
f 131/665/665 127/662/662 125/663/663
f 125/663/663 123/664/664 131/665/665
f 130/668/668 170/669/669 129/671/671
f 129/671/671 170/669/669 169/670/670
f 52/673/673 51/674/674 78/672/672
f 78/672/672 51/674/674 77/675/675
f 154/676/676 78/677/677 152/693/693
f 152/693/693 78/677/677 150/692/692
f 150/692/692 78/677/677 148/691/691
f 148/691/691 78/677/677 146/690/690
f 146/690/690 78/677/677 144/689/689
f 144/689/689 78/677/677 142/688/688
f 142/688/688 78/677/677 140/687/687
f 140/687/687 78/677/677 139/686/686
f 139/686/686 78/677/677 77/678/678
f 139/686/686 77/678/678 141/685/685
f 141/685/685 77/678/678 143/684/684
f 143/684/684 77/678/678 145/683/683
f 145/683/683 77/678/678 147/682/682
f 147/682/682 77/678/678 149/681/681
f 149/681/681 77/678/678 151/680/680
f 151/680/680 77/678/678 153/679/679
f 155/695/695 156/696/696 139/694/694
f 139/694/694 156/696/696 140/697/697
f 138/699/699 166/701/701 124/698/698
f 124/698/698 166/701/701 168/702/702
f 124/698/698 168/702/702 126/706/706
f 126/706/706 168/702/702 128/705/705
f 128/705/705 168/702/702 170/703/703
f 128/705/705 170/703/703 130/704/704
f 138/699/699 164/700/700 166/701/701
f 116/723/723 108/707/707 104/712/712
f 104/712/712 108/707/707 110/708/708
f 104/712/712 110/708/708 112/709/709
f 114/710/710 106/711/711 112/709/709
f 112/709/709 106/711/711 104/712/712
f 104/712/712 98/713/713 116/723/723
f 116/723/723 98/713/713 132/717/717
f 116/723/723 132/717/717 134/718/718
f 94/714/714 138/715/715 98/713/713
f 98/713/713 138/715/715 124/716/716
f 98/713/713 124/716/716 132/717/717
f 134/718/718 136/719/719 116/723/723
f 116/723/723 136/719/719 118/722/722
f 118/722/722 136/719/719 120/721/721
f 120/721/721 136/719/719 122/720/720
f 113/731/731 114/724/724 111/730/730
f 111/730/730 114/724/724 112/725/725
f 111/730/730 112/725/725 109/729/729
f 109/729/729 112/725/725 110/726/726
f 109/729/729 110/726/726 108/727/727
f 108/727/727 107/728/728 109/729/729
f 106/732/732 114/733/733 105/735/735
f 105/735/735 114/733/733 113/734/734
f 92/751/751 94/736/736 96/750/750
f 96/750/750 94/736/736 98/737/737
f 96/750/750 98/737/737 100/749/749
f 100/749/749 98/737/737 104/738/738
f 100/749/749 104/738/738 102/748/748
f 102/748/748 104/738/738 106/739/739
f 102/748/748 106/739/739 105/740/740
f 102/748/748 105/740/740 101/747/747
f 101/747/747 105/740/740 103/741/741
f 101/747/747 103/741/741 99/746/746
f 99/746/746 103/741/741 97/742/742
f 99/746/746 97/742/742 95/745/745
f 95/745/745 97/742/742 93/743/743
f 95/745/745 93/743/743 91/744/744
f 93/752/752 137/753/753 91/786/786
f 91/786/786 137/753/753 89/785/785
f 89/785/785 137/753/753 153/761/761
f 89/785/785 153/761/761 87/784/784
f 87/784/784 153/761/761 85/783/783
f 85/783/783 153/761/761 83/782/782
f 83/782/782 153/761/761 81/781/781
f 81/781/781 153/761/761 79/780/780
f 79/780/780 153/761/761 75/779/779
f 75/779/779 153/761/761 77/762/762
f 75/779/779 77/762/762 73/778/778
f 73/778/778 77/762/762 69/777/777
f 69/777/777 77/762/762 65/776/776
f 65/776/776 77/762/762 61/775/775
f 61/775/775 77/762/762 49/774/774
f 49/774/774 77/762/762 51/763/763
f 49/774/774 51/763/763 47/773/773
f 47/773/773 51/763/763 45/772/772
f 45/772/772 51/763/763 43/771/771
f 43/771/771 51/763/763 41/770/770
f 41/770/770 51/763/763 39/769/769
f 39/769/769 51/763/763 37/768/768
f 37/768/768 51/763/763 35/767/767
f 35/767/767 51/763/763 33/766/766
f 33/766/766 51/763/763 31/765/765
f 31/765/765 51/763/763 29/764/764
f 137/753/753 163/754/754 153/761/761
f 153/761/761 163/754/754 161/760/760
f 161/760/760 163/754/754 183/755/755
f 161/760/760 183/755/755 199/758/758
f 199/758/758 183/755/755 201/756/756
f 199/758/758 201/756/756 223/757/757
f 199/758/758 175/759/759 161/760/760
f 64/788/788 60/789/789 10/787/787
f 10/787/787 60/789/789 58/790/790
f 10/787/787 58/790/790 56/791/791
f 56/791/791 54/792/792 10/787/787
f 10/787/787 54/792/792 53/793/793
f 10/787/787 53/793/793 9/798/798
f 9/798/798 53/793/793 55/794/794
f 9/798/798 55/794/794 57/795/795
f 57/795/795 59/796/796 9/798/798
f 9/798/798 59/796/796 63/797/797
f 131/815/815 123/799/799 97/802/802
f 97/802/802 123/799/799 137/800/800
f 97/802/802 137/800/800 93/801/801
f 131/815/815 97/802/802 115/809/809
f 115/809/809 97/802/802 103/803/803
f 115/809/809 103/803/803 107/808/808
f 107/808/808 103/803/803 109/807/807
f 109/807/807 103/803/803 111/806/806
f 111/806/806 103/803/803 105/804/804
f 111/806/806 105/804/804 113/805/805
f 117/810/810 135/813/813 115/809/809
f 115/809/809 135/813/813 133/814/814
f 115/809/809 133/814/814 131/815/815
f 117/810/810 119/811/811 135/813/813
f 135/813/813 119/811/811 121/812/812
f 163/824/824 137/816/816 165/823/823
f 165/823/823 137/816/816 123/817/817
f 165/823/823 123/817/817 167/822/822
f 167/822/822 123/817/817 125/818/818
f 167/822/822 125/818/818 127/819/819
f 129/820/820 169/821/821 127/819/819
f 127/819/819 169/821/821 167/822/822
# 446 vertices
# 824 texture params
# 824 normals
# 888 facets

# 1 groups
