# WaveFront *.obj file (generated by Autodesk ATF)

mtllib 障子、紙無し.mtl

g ソリッド1

v 0.000000 0.000000 0.000000
v 0.000000 0.000000 4.500000
v 0.000000 200.000000 0.000000
v 0.000000 200.000000 4.500000
v 2.500000 0.000000 4.000000
v 2.500000 0.000000 4.500000
v 2.500000 2.500000 3.000000
v 2.500000 2.500000 4.000000
v 2.500000 60.999999 3.000000
v 2.500000 60.999999 4.000000
v 2.500000 63.499999 0.000000
v 2.500000 63.499999 4.000000
v 2.500000 77.500000 0.000000
v 2.500000 77.500000 1.000000
v 2.500000 78.499999 0.000000
v 2.500000 78.499999 1.000000
v 2.500000 92.500000 0.000000
v 2.500000 92.500000 1.000000
v 2.500000 93.500004 0.000000
v 2.500000 93.500004 1.000000
v 2.500000 107.500000 0.000000
v 2.500000 107.500000 1.000000
v 2.500000 108.500004 0.000000
v 2.500000 108.500004 1.000000
v 2.500000 122.500000 0.000000
v 2.500000 122.500000 1.000000
v 2.500000 123.500004 0.000000
v 2.500000 123.500004 1.000000
v 2.500000 137.500000 0.000000
v 2.500000 137.500000 1.000000
v 2.500000 138.500004 0.000000
v 2.500000 138.500004 1.000000
v 2.500000 152.500000 0.000000
v 2.500000 152.500000 1.000000
v 2.500000 153.500004 0.000000
v 2.500000 153.500004 1.000000
v 2.500000 167.500000 0.000000
v 2.500000 167.500000 1.000000
v 2.500000 168.500004 0.000000
v 2.500000 168.500004 1.000000
v 2.500000 182.500000 0.000000
v 2.500000 182.500000 1.000000
v 2.500000 183.500004 0.000000
v 2.500000 183.500004 1.000000
v 2.500000 197.500000 0.000000
v 2.500000 197.500000 4.000000
v 2.500000 200.000000 4.000000
v 2.500000 200.000000 4.500000
v 25.500000 63.499999 0.000000
v 25.500000 63.499999 1.500000
v 25.500000 77.500000 0.000000
v 25.500000 77.500000 1.000000
v 25.500000 78.499999 0.000000
v 25.500000 78.499999 1.000000
v 25.500000 92.500000 0.000000
v 25.500000 92.500000 1.000000
v 25.500000 93.500004 0.000000
v 25.500000 93.500004 1.000000
v 25.500000 107.500000 0.000000
v 25.500000 107.500000 1.000000
v 25.500000 108.500004 0.000000
v 25.500000 108.500004 1.000000
v 25.500000 122.500000 0.000000
v 25.500000 122.500000 1.000000
v 25.500000 123.500004 0.000000
v 25.500000 123.500004 1.000000
v 25.500000 137.500000 0.000000
v 25.500000 137.500000 1.000000
v 25.500000 138.500004 0.000000
v 25.500000 138.500004 1.000000
v 25.500000 152.500000 0.000000
v 25.500000 152.500000 1.000000
v 25.500000 153.500004 0.000000
v 25.500000 153.500004 1.000000
v 25.500000 167.500000 0.000000
v 25.500000 167.500000 1.000000
v 25.500000 168.500004 0.000000
v 25.500000 168.500004 1.000000
v 25.500000 182.500000 0.000000
v 25.500000 182.500000 1.000000
v 25.500000 183.500004 0.000000
v 25.500000 183.500004 1.000000
v 25.500000 197.500000 0.000000
v 25.500000 197.500000 1.500000
v 26.500001 63.499999 0.000000
v 26.500001 63.499999 1.500000
v 26.500001 77.500000 0.000000
v 26.500001 77.500000 1.000000
v 26.500001 78.499999 0.000000
v 26.500001 78.499999 1.000000
v 26.500001 92.500000 0.000000
v 26.500001 92.500000 1.000000
v 26.500001 93.500004 0.000000
v 26.500001 93.500004 1.000000
v 26.500001 107.500000 0.000000
v 26.500001 107.500000 1.000000
v 26.500001 108.500004 0.000000
v 26.500001 108.500004 1.000000
v 26.500001 122.500000 0.000000
v 26.500001 122.500000 1.000000
v 26.500001 123.500004 0.000000
v 26.500001 123.500004 1.000000
v 26.500001 137.500000 0.000000
v 26.500001 137.500000 1.000000
v 26.500001 138.500004 0.000000
v 26.500001 138.500004 1.000000
v 26.500001 152.500000 0.000000
v 26.500001 152.500000 1.000000
v 26.500001 153.500004 0.000000
v 26.500001 153.500004 1.000000
v 26.500001 167.500000 0.000000
v 26.500001 167.500000 1.000000
v 26.500001 168.500004 0.000000
v 26.500001 168.500004 1.000000
v 26.500001 182.500000 0.000000
v 26.500001 182.500000 1.000000
v 26.500001 183.500004 0.000000
v 26.500001 183.500004 1.000000
v 26.500001 197.500000 0.000000
v 26.500001 197.500000 1.500000
v 49.499998 63.499999 0.000000
v 49.499998 63.499999 1.500000
v 49.499998 77.500000 0.000000
v 49.499998 77.500000 1.000000
v 49.499998 78.499999 0.000000
v 49.499998 78.499999 1.000000
v 49.499998 92.500000 0.000000
v 49.499998 92.500000 1.000000
v 49.499998 93.500004 0.000000
v 49.499998 93.500004 1.000000
v 49.499998 107.500000 0.000000
v 49.499998 107.500000 1.000000
v 49.499998 108.500004 0.000000
v 49.499998 108.500004 1.000000
v 49.499998 122.500000 0.000000
v 49.499998 122.500000 1.000000
v 49.499998 123.500004 0.000000
v 49.499998 123.500004 1.000000
v 49.499998 137.500000 0.000000
v 49.499998 137.500000 1.000000
v 49.499998 138.500004 0.000000
v 49.499998 138.500004 1.000000
v 49.499998 152.500000 0.000000
v 49.499998 152.500000 1.000000
v 49.499998 153.500004 0.000000
v 49.499998 153.500004 1.000000
v 49.499998 167.500000 0.000000
v 49.499998 167.500000 1.000000
v 49.499998 168.500004 0.000000
v 49.499998 168.500004 1.000000
v 49.499998 182.500000 0.000000
v 49.499998 182.500000 1.000000
v 49.499998 183.500004 0.000000
v 49.499998 183.500004 1.000000
v 49.499998 197.500000 0.000000
v 49.499998 197.500000 1.500000
v 50.500002 63.499999 0.000000
v 50.500002 63.499999 1.500000
v 50.500002 77.500000 0.000000
v 50.500002 77.500000 1.000000
v 50.500002 78.499999 0.000000
v 50.500002 78.499999 1.000000
v 50.500002 92.500000 0.000000
v 50.500002 92.500000 1.000000
v 50.500002 93.500004 0.000000
v 50.500002 93.500004 1.000000
v 50.500002 107.500000 0.000000
v 50.500002 107.500000 1.000000
v 50.500002 108.500004 0.000000
v 50.500002 108.500004 1.000000
v 50.500002 122.500000 0.000000
v 50.500002 122.500000 1.000000
v 50.500002 123.500004 0.000000
v 50.500002 123.500004 1.000000
v 50.500002 137.500000 0.000000
v 50.500002 137.500000 1.000000
v 50.500002 138.500004 0.000000
v 50.500002 138.500004 1.000000
v 50.500002 152.500000 0.000000
v 50.500002 152.500000 1.000000
v 50.500002 153.500004 0.000000
v 50.500002 153.500004 1.000000
v 50.500002 167.500000 0.000000
v 50.500002 167.500000 1.000000
v 50.500002 168.500004 0.000000
v 50.500002 168.500004 1.000000
v 50.500002 182.500000 0.000000
v 50.500002 182.500000 1.000000
v 50.500002 183.500004 0.000000
v 50.500002 183.500004 1.000000
v 50.500002 197.500000 0.000000
v 50.500002 197.500000 1.500000
v 73.499999 63.499999 0.000000
v 73.499999 63.499999 1.500000
v 73.499999 77.500000 0.000000
v 73.499999 77.500000 1.000000
v 73.499999 78.499999 0.000000
v 73.499999 78.499999 1.000000
v 73.499999 92.500000 0.000000
v 73.499999 92.500000 1.000000
v 73.499999 93.500004 0.000000
v 73.499999 93.500004 1.000000
v 73.499999 107.500000 0.000000
v 73.499999 107.500000 1.000000
v 73.499999 108.500004 0.000000
v 73.499999 108.500004 1.000000
v 73.499999 122.500000 0.000000
v 73.499999 122.500000 1.000000
v 73.499999 123.500004 0.000000
v 73.499999 123.500004 1.000000
v 73.499999 137.500000 0.000000
v 73.499999 137.500000 1.000000
v 73.499999 138.500004 0.000000
v 73.499999 138.500004 1.000000
v 73.499999 152.500000 0.000000
v 73.499999 152.500000 1.000000
v 73.499999 153.500004 0.000000
v 73.499999 153.500004 1.000000
v 73.499999 167.500000 0.000000
v 73.499999 167.500000 1.000000
v 73.499999 168.500004 0.000000
v 73.499999 168.500004 1.000000
v 73.499999 182.500000 0.000000
v 73.499999 182.500000 1.000000
v 73.499999 183.500004 0.000000
v 73.499999 183.500004 1.000000
v 73.499999 197.500000 0.000000
v 73.499999 197.500000 1.500000
v 74.499998 63.499999 0.000000
v 74.499998 63.499999 1.500000
v 74.499998 77.500000 0.000000
v 74.499998 77.500000 1.000000
v 74.499998 78.499999 0.000000
v 74.499998 78.499999 1.000000
v 74.499998 92.500000 0.000000
v 74.499998 92.500000 1.000000
v 74.499998 93.500004 0.000000
v 74.499998 93.500004 1.000000
v 74.499998 107.500000 0.000000
v 74.499998 107.500000 1.000000
v 74.499998 108.500004 0.000000
v 74.499998 108.500004 1.000000
v 74.499998 122.500000 0.000000
v 74.499998 122.500000 1.000000
v 74.499998 123.500004 0.000000
v 74.499998 123.500004 1.000000
v 74.499998 137.500000 0.000000
v 74.499998 137.500000 1.000000
v 74.499998 138.500004 0.000000
v 74.499998 138.500004 1.000000
v 74.499998 152.500000 0.000000
v 74.499998 152.500000 1.000000
v 74.499998 153.500004 0.000000
v 74.499998 153.500004 1.000000
v 74.499998 167.500000 0.000000
v 74.499998 167.500000 1.000000
v 74.499998 168.500004 0.000000
v 74.499998 168.500004 1.000000
v 74.499998 182.500000 0.000000
v 74.499998 182.500000 1.000000
v 74.499998 183.500004 0.000000
v 74.499998 183.500004 1.000000
v 74.499998 197.500000 0.000000
v 74.499998 197.500000 1.500000
v 97.500000 0.000000 4.000000
v 97.500000 0.000000 4.500000
v 97.500000 2.500000 3.000000
v 97.500000 2.500000 4.000000
v 97.500000 60.999999 3.000000
v 97.500000 60.999999 4.000000
v 97.500000 63.499999 0.000000
v 97.500000 63.499999 4.000000
v 97.500000 77.500000 0.000000
v 97.500000 77.500000 1.000000
v 97.500000 78.499999 0.000000
v 97.500000 78.499999 1.000000
v 97.500000 92.500000 0.000000
v 97.500000 92.500000 1.000000
v 97.500000 93.500004 0.000000
v 97.500000 93.500004 1.000000
v 97.500000 107.500000 0.000000
v 97.500000 107.500000 1.000000
v 97.500000 108.500004 0.000000
v 97.500000 108.500004 1.000000
v 97.500000 122.500000 0.000000
v 97.500000 122.500000 1.000000
v 97.500000 123.500004 0.000000
v 97.500000 123.500004 1.000000
v 97.500000 137.500000 0.000000
v 97.500000 137.500000 1.000000
v 97.500000 138.500004 0.000000
v 97.500000 138.500004 1.000000
v 97.500000 152.500000 0.000000
v 97.500000 152.500000 1.000000
v 97.500000 153.500004 0.000000
v 97.500000 153.500004 1.000000
v 97.500000 167.500000 0.000000
v 97.500000 167.500000 1.000000
v 97.500000 168.500004 0.000000
v 97.500000 168.500004 1.000000
v 97.500000 182.500000 0.000000
v 97.500000 182.500000 1.000000
v 97.500000 183.500004 0.000000
v 97.500000 183.500004 1.000000
v 97.500000 197.500000 0.000000
v 97.500000 197.500000 4.000000
v 97.500000 200.000000 4.000000
v 97.500000 200.000000 4.500000
v 100.000000 0.000000 0.000000
v 100.000000 0.000000 4.500000
v 100.000000 200.000000 0.000000
v 100.000000 200.000000 4.500000
vt 0.000000 0.000000 0.000000
vt 2.300000 0.000000 0.000000
vt 2.300000 0.100000 0.000000
vt 0.000000 0.100000 0.000000
vt 1.150000 -0.050000 0.000000
vt 1.150000 0.050000 0.000000
vt -1.150000 0.050000 0.000000
vt -1.150000 -0.050000 0.000000
vt 0.000000 0.000000 0.000000
vt 2.300000 0.000000 0.000000
vt 2.300000 0.100000 0.000000
vt 0.000000 0.100000 0.000000
vt 0.000000 0.000000 0.000000
vt 2.300000 0.000000 0.000000
vt 2.300000 0.100000 0.000000
vt 0.000000 0.100000 0.000000
vt 1.150000 -0.050000 0.000000
vt 1.150000 0.050000 0.000000
vt -1.150000 0.050000 0.000000
vt -1.150000 -0.050000 0.000000
vt 0.000000 0.000000 0.000000
vt 2.300000 0.000000 0.000000
vt 2.300000 0.100000 0.000000
vt 0.000000 0.100000 0.000000
vt 0.000000 0.000000 0.000000
vt 2.300000 0.000000 0.000000
vt 2.300000 0.100000 0.000000
vt 0.000000 0.100000 0.000000
vt 1.150000 -0.050000 0.000000
vt 1.150000 0.050000 0.000000
vt -1.150000 0.050000 0.000000
vt -1.150000 -0.050000 0.000000
vt 0.000000 0.000000 0.000000
vt 2.300000 0.000000 0.000000
vt 2.300000 0.100000 0.000000
vt 0.000000 0.100000 0.000000
vt 0.000000 0.000000 0.000000
vt 2.300000 0.000000 0.000000
vt 2.300000 0.100000 0.000000
vt 0.000000 0.100000 0.000000
vt 1.150000 -0.050000 0.000000
vt 1.150000 0.050000 0.000000
vt -1.150000 0.050000 0.000000
vt -1.150000 -0.050000 0.000000
vt 0.000000 0.000000 0.000000
vt 2.300000 0.000000 0.000000
vt 2.300000 0.100000 0.000000
vt 0.000000 0.100000 0.000000
vt 0.000000 0.000000 0.000000
vt 2.300000 0.000000 0.000000
vt 2.300000 0.100000 0.000000
vt 0.000000 0.100000 0.000000
vt 1.150000 -0.050000 0.000000
vt 1.150000 0.050000 0.000000
vt -1.150000 0.050000 0.000000
vt -1.150000 -0.050000 0.000000
vt 0.000000 0.000000 0.000000
vt 2.300000 0.000000 0.000000
vt 2.300000 0.100000 0.000000
vt 0.000000 0.100000 0.000000
vt 0.000000 0.000000 0.000000
vt 2.300000 0.000000 0.000000
vt 2.300000 0.100000 0.000000
vt 0.000000 0.100000 0.000000
vt 1.150000 -0.050000 0.000000
vt 1.150000 0.050000 0.000000
vt -1.150000 0.050000 0.000000
vt -1.150000 -0.050000 0.000000
vt 0.000000 0.000000 0.000000
vt 2.300000 0.000000 0.000000
vt 2.300000 0.100000 0.000000
vt 0.000000 0.100000 0.000000
vt 0.000000 0.000000 0.000000
vt 2.300000 0.000000 0.000000
vt 2.300000 0.100000 0.000000
vt 0.000000 0.100000 0.000000
vt 1.150000 -0.050000 0.000000
vt 1.150000 0.050000 0.000000
vt -1.150000 0.050000 0.000000
vt -1.150000 -0.050000 0.000000
vt 0.000000 0.000000 0.000000
vt 2.300000 0.000000 0.000000
vt 2.300000 0.100000 0.000000
vt 0.000000 0.100000 0.000000
vt 0.000000 0.000000 0.000000
vt 2.300000 0.000000 0.000000
vt 2.300000 0.100000 0.000000
vt 0.000000 0.100000 0.000000
vt 1.150000 -0.050000 0.000000
vt 1.150000 0.050000 0.000000
vt -1.150000 0.050000 0.000000
vt -1.150000 -0.050000 0.000000
vt 0.000000 0.000000 0.000000
vt 2.300000 0.000000 0.000000
vt 2.300000 0.100000 0.000000
vt 0.000000 0.100000 0.000000
vt 0.000000 0.000000 0.000000
vt 2.300000 0.000000 0.000000
vt 2.300000 0.100000 0.000000
vt 0.000000 0.100000 0.000000
vt 1.150000 -0.050000 0.000000
vt 1.150000 0.050000 0.000000
vt -1.150000 0.050000 0.000000
vt -1.150000 -0.050000 0.000000
vt 0.000000 0.000000 0.000000
vt 2.300000 0.000000 0.000000
vt 2.300000 0.100000 0.000000
vt 0.000000 0.100000 0.000000
vt 0.000000 0.000000 0.000000
vt 2.300000 0.000000 0.000000
vt 2.300000 0.100000 0.000000
vt 0.000000 0.100000 0.000000
vt 1.150000 -0.050000 0.000000
vt 1.150000 0.050000 0.000000
vt -1.150000 0.050000 0.000000
vt -1.150000 -0.050000 0.000000
vt 0.000000 0.000000 0.000000
vt 2.300000 0.000000 0.000000
vt 2.300000 0.100000 0.000000
vt 0.000000 0.100000 0.000000
vt 0.000000 0.000000 0.000000
vt 2.300000 0.000000 0.000000
vt 2.300000 0.100000 0.000000
vt 0.000000 0.100000 0.000000
vt 1.150000 -0.050000 0.000000
vt 1.150000 0.050000 0.000000
vt -1.150000 0.050000 0.000000
vt -1.150000 -0.050000 0.000000
vt 0.000000 0.000000 0.000000
vt 2.300000 0.000000 0.000000
vt 2.300000 0.100000 0.000000
vt 0.000000 0.100000 0.000000
vt 0.000000 0.000000 0.000000
vt 2.300000 0.000000 0.000000
vt 2.300000 0.100000 0.000000
vt 0.000000 0.100000 0.000000
vt 1.150000 -0.050000 0.000000
vt 1.150000 0.050000 0.000000
vt -1.150000 0.050000 0.000000
vt -1.150000 -0.050000 0.000000
vt 0.000000 0.000000 0.000000
vt 2.300000 0.000000 0.000000
vt 2.300000 0.100000 0.000000
vt 0.000000 0.100000 0.000000
vt 0.000000 0.000000 0.000000
vt 2.300000 0.000000 0.000000
vt 2.300000 0.100000 0.000000
vt 0.000000 0.100000 0.000000
vt 1.150000 -0.050000 0.000000
vt 1.150000 0.050000 0.000000
vt -1.150000 0.050000 0.000000
vt -1.150000 -0.050000 0.000000
vt 0.000000 0.000000 0.000000
vt 2.300000 0.000000 0.000000
vt 2.300000 0.100000 0.000000
vt 0.000000 0.100000 0.000000
vt 0.000000 0.000000 0.000000
vt 2.300000 0.000000 0.000000
vt 2.300000 0.100000 0.000000
vt 0.000000 0.100000 0.000000
vt 1.150000 -0.050000 0.000000
vt 1.150000 0.050000 0.000000
vt -1.150000 0.050000 0.000000
vt -1.150000 -0.050000 0.000000
vt 0.000000 0.000000 0.000000
vt 2.300000 0.000000 0.000000
vt 2.300000 0.100000 0.000000
vt 0.000000 0.100000 0.000000
vt 0.000000 0.000000 0.000000
vt 2.300000 0.000000 0.000000
vt 2.300000 0.100000 0.000000
vt 0.000000 0.100000 0.000000
vt 1.150000 -0.050000 0.000000
vt 1.150000 0.050000 0.000000
vt -1.150000 0.050000 0.000000
vt -1.150000 -0.050000 0.000000
vt 0.000000 0.000000 0.000000
vt 2.300000 0.000000 0.000000
vt 2.300000 0.100000 0.000000
vt 0.000000 0.100000 0.000000
vt 0.000000 0.000000 0.000000
vt 2.300000 0.000000 0.000000
vt 2.300000 0.100000 0.000000
vt 0.000000 0.100000 0.000000
vt 1.150000 -0.050000 0.000000
vt 1.150000 0.050000 0.000000
vt -1.150000 0.050000 0.000000
vt -1.150000 -0.050000 0.000000
vt 0.000000 0.000000 0.000000
vt 2.300000 0.000000 0.000000
vt 2.300000 0.100000 0.000000
vt 0.000000 0.100000 0.000000
vt 0.000000 0.000000 0.000000
vt 2.300000 0.000000 0.000000
vt 2.300000 0.100000 0.000000
vt 0.000000 0.100000 0.000000
vt 1.150000 -0.050000 0.000000
vt 1.150000 0.050000 0.000000
vt -1.150000 0.050000 0.000000
vt -1.150000 -0.050000 0.000000
vt 0.000000 0.000000 0.000000
vt 2.300000 0.000000 0.000000
vt 2.300000 0.100000 0.000000
vt 0.000000 0.100000 0.000000
vt 0.000000 0.000000 0.000000
vt 2.300000 0.000000 0.000000
vt 2.300000 0.100000 0.000000
vt 0.000000 0.100000 0.000000
vt 1.150000 -0.050000 0.000000
vt 1.150000 0.050000 0.000000
vt -1.150000 0.050000 0.000000
vt -1.150000 -0.050000 0.000000
vt 0.000000 0.000000 0.000000
vt 2.300000 0.000000 0.000000
vt 2.300000 0.100000 0.000000
vt 0.000000 0.100000 0.000000
vt 0.000000 0.000000 0.000000
vt 2.300000 0.000000 0.000000
vt 2.300000 0.100000 0.000000
vt 0.000000 0.100000 0.000000
vt 1.150000 -0.050000 0.000000
vt 1.150000 0.050000 0.000000
vt -1.150000 0.050000 0.000000
vt -1.150000 -0.050000 0.000000
vt 0.000000 0.000000 0.000000
vt 2.300000 0.000000 0.000000
vt 2.300000 0.100000 0.000000
vt 0.000000 0.100000 0.000000
vt 0.000000 0.000000 0.000000
vt 2.300000 0.000000 0.000000
vt 2.300000 0.100000 0.000000
vt 0.000000 0.100000 0.000000
vt -1.150000 0.050000 0.000000
vt -1.150000 -0.050000 0.000000
vt 1.150000 -0.050000 0.000000
vt 1.150000 0.050000 0.000000
vt 0.000000 0.000000 0.000000
vt 2.300000 0.000000 0.000000
vt 2.300000 0.100000 0.000000
vt 0.000000 0.100000 0.000000
vt 0.000000 0.000000 0.000000
vt 2.300000 0.000000 0.000000
vt 2.300000 0.100000 0.000000
vt 0.000000 0.100000 0.000000
vt 1.150000 -0.050000 0.000000
vt 1.150000 0.050000 0.000000
vt -1.150000 0.050000 0.000000
vt -1.150000 -0.050000 0.000000
vt 0.000000 0.000000 0.000000
vt 2.300000 0.000000 0.000000
vt 2.300000 0.100000 0.000000
vt 0.000000 0.100000 0.000000
vt 0.000000 0.000000 0.000000
vt 2.300000 0.000000 0.000000
vt 2.300000 0.100000 0.000000
vt 0.000000 0.100000 0.000000
vt -4.750000 2.925000 0.000000
vt -4.750000 -2.925000 0.000000
vt 4.750000 -2.925000 0.000000
vt 4.750000 2.925000 0.000000
vt 12.250000 0.100000 0.000000
vt 12.250000 0.000000 0.000000
vt 13.650000 0.000000 0.000000
vt 13.650000 0.400000 0.000000
vt 13.900000 0.400000 0.000000
vt 13.900000 0.300000 0.000000
vt 19.750000 0.300000 0.000000
vt 19.750000 0.400000 0.000000
vt 20.000000 0.400000 0.000000
vt 20.000000 0.450000 0.000000
vt 0.000000 0.450000 0.000000
vt 0.000000 0.400000 0.000000
vt 0.250000 0.400000 0.000000
vt 0.250000 0.000000 0.000000
vt 1.650000 0.000000 0.000000
vt 1.650000 0.100000 0.000000
vt 1.750000 0.100000 0.000000
vt 1.750000 0.000000 0.000000
vt 3.150000 0.000000 0.000000
vt 3.150000 0.100000 0.000000
vt 3.250000 0.100000 0.000000
vt 3.250000 0.000000 0.000000
vt 4.650000 0.000000 0.000000
vt 4.650000 0.100000 0.000000
vt 4.750000 0.100000 0.000000
vt 4.750000 0.000000 0.000000
vt 6.150000 0.000000 0.000000
vt 6.150000 0.100000 0.000000
vt 6.250000 0.100000 0.000000
vt 6.250000 0.000000 0.000000
vt 7.650000 0.000000 0.000000
vt 7.650000 0.100000 0.000000
vt 7.750000 0.100000 0.000000
vt 7.750000 0.000000 0.000000
vt 9.150000 0.000000 0.000000
vt 9.150000 0.100000 0.000000
vt 9.250000 0.100000 0.000000
vt 9.250000 0.000000 0.000000
vt 10.650000 0.000000 0.000000
vt 10.650000 0.100000 0.000000
vt 10.750000 0.100000 0.000000
vt 10.750000 0.000000 0.000000
vt 12.150000 0.000000 0.000000
vt 12.150000 0.100000 0.000000
vt 0.000000 0.300000 0.000000
vt 9.500000 0.300000 0.000000
vt 9.500000 0.400000 0.000000
vt 0.000000 0.400000 0.000000
vt 4.750000 -0.125000 0.000000
vt 4.750000 0.125000 0.000000
vt -4.750000 0.125000 0.000000
vt -4.750000 -0.125000 0.000000
vt 0.000000 0.300000 0.000000
vt 9.500000 0.300000 0.000000
vt 9.500000 0.400000 0.000000
vt 0.000000 0.400000 0.000000
vt 1.150000 -0.050000 0.000000
vt 1.150000 0.050000 0.000000
vt -1.150000 0.050000 0.000000
vt -1.150000 -0.050000 0.000000
vt 4.750000 -0.125000 0.000000
vt 4.750000 0.125000 0.000000
vt -4.750000 0.125000 0.000000
vt -4.750000 -0.125000 0.000000
vt 0.000000 0.000000 0.000000
vt 2.300000 0.000000 0.000000
vt 2.300000 0.100000 0.000000
vt 0.000000 0.100000 0.000000
vt -4.750000 0.125000 0.000000
vt -4.750000 -0.125000 0.000000
vt 4.750000 -0.125000 0.000000
vt 4.750000 0.125000 0.000000
vt 7.850000 0.100000 0.000000
vt 7.850000 0.000000 0.000000
vt 9.250000 0.000000 0.000000
vt 9.250000 0.100000 0.000000
vt 9.350000 0.100000 0.000000
vt 9.350000 0.000000 0.000000
vt 10.750000 0.000000 0.000000
vt 10.750000 0.100000 0.000000
vt 10.850000 0.100000 0.000000
vt 10.850000 0.000000 0.000000
vt 12.250000 0.000000 0.000000
vt 12.250000 0.100000 0.000000
vt 12.350000 0.100000 0.000000
vt 12.350000 0.000000 0.000000
vt 13.750000 0.000000 0.000000
vt 13.750000 0.100000 0.000000
vt 13.850000 0.100000 0.000000
vt 13.850000 0.000000 0.000000
vt 15.250000 0.000000 0.000000
vt 15.250000 0.100000 0.000000
vt 15.350000 0.100000 0.000000
vt 15.350000 0.000000 0.000000
vt 16.750000 0.000000 0.000000
vt 16.750000 0.100000 0.000000
vt 16.850000 0.100000 0.000000
vt 16.850000 0.000000 0.000000
vt 18.250000 0.000000 0.000000
vt 18.250000 0.100000 0.000000
vt 18.350000 0.100000 0.000000
vt 18.350000 0.000000 0.000000
vt 19.750000 0.000000 0.000000
vt 19.750000 0.400000 0.000000
vt 20.000000 0.400000 0.000000
vt 20.000000 0.450000 0.000000
vt 0.000000 0.450000 0.000000
vt 0.000000 0.400000 0.000000
vt 0.250000 0.400000 0.000000
vt 0.250000 0.300000 0.000000
vt 6.100000 0.300000 0.000000
vt 6.100000 0.400000 0.000000
vt 6.350000 0.400000 0.000000
vt 6.350000 0.000000 0.000000
vt 7.750000 0.000000 0.000000
vt 7.750000 0.100000 0.000000
vt 0.000000 0.000000 0.000000
vt 20.000000 0.000000 0.000000
vt 20.000000 0.450000 0.000000
vt 0.000000 0.450000 0.000000
vt -0.125000 10.000000 0.000000
vt -0.125000 -10.000000 0.000000
vt 0.125000 -10.000000 0.000000
vt 0.125000 10.000000 0.000000
vt 0.000000 0.000000 0.000000
vt 10.000000 0.000000 0.000000
vt 10.000000 0.450000 0.000000
vt 9.750000 0.450000 0.000000
vt 9.750000 0.400000 0.000000
vt 0.250000 0.400000 0.000000
vt 0.250000 0.450000 0.000000
vt 0.000000 0.450000 0.000000
vt 0.000000 0.000000 0.000000
vt 20.000000 0.000000 0.000000
vt 20.000000 0.450000 0.000000
vt 0.000000 0.450000 0.000000
vt -9.750000 0.000000 0.000000
vt 0.250000 0.000000 0.000000
vt 0.250000 0.450000 0.000000
vt 0.000000 0.450000 0.000000
vt 0.000000 0.400000 0.000000
vt -9.500000 0.400000 0.000000
vt -9.500000 0.450000 0.000000
vt -9.750000 0.450000 0.000000
vt -0.125000 10.000000 0.000000
vt -0.125000 -10.000000 0.000000
vt 0.125000 -10.000000 0.000000
vt 0.125000 10.000000 0.000000
vt 0.000000 0.000000 0.000000
vt 2.300000 0.000000 0.000000
vt 2.300000 0.100000 0.000000
vt 0.000000 0.100000 0.000000
vt -1.150000 0.050000 0.000000
vt -1.150000 -0.050000 0.000000
vt 1.150000 -0.050000 0.000000
vt 1.150000 0.050000 0.000000
vt 0.000000 0.000000 0.000000
vt 2.300000 0.000000 0.000000
vt 2.300000 0.100000 0.000000
vt 0.000000 0.100000 0.000000
vt 0.000000 0.000000 0.000000
vt 2.300000 0.000000 0.000000
vt 2.300000 0.100000 0.000000
vt 0.000000 0.100000 0.000000
vt 1.150000 -0.050000 0.000000
vt 1.150000 0.050000 0.000000
vt -1.150000 0.050000 0.000000
vt -1.150000 -0.050000 0.000000
vt 0.000000 0.000000 0.000000
vt 2.300000 0.000000 0.000000
vt 2.300000 0.100000 0.000000
vt 0.000000 0.100000 0.000000
vt 0.000000 0.000000 0.000000
vt 2.300000 0.000000 0.000000
vt 2.300000 0.100000 0.000000
vt 0.000000 0.100000 0.000000
vt 1.150000 -0.050000 0.000000
vt 1.150000 0.050000 0.000000
vt -1.150000 0.050000 0.000000
vt -1.150000 -0.050000 0.000000
vt 0.000000 0.000000 0.000000
vt 2.300000 0.000000 0.000000
vt 2.300000 0.100000 0.000000
vt 0.000000 0.100000 0.000000
vt 0.000000 0.000000 0.000000
vt 2.300000 0.000000 0.000000
vt 2.300000 0.100000 0.000000
vt 0.000000 0.100000 0.000000
vt 1.150000 -0.050000 0.000000
vt 1.150000 0.050000 0.000000
vt -1.150000 0.050000 0.000000
vt -1.150000 -0.050000 0.000000
vt 0.000000 0.000000 0.000000
vt 2.300000 0.000000 0.000000
vt 2.300000 0.100000 0.000000
vt 0.000000 0.100000 0.000000
vt 0.000000 0.000000 0.000000
vt 2.300000 0.000000 0.000000
vt 2.300000 0.100000 0.000000
vt 0.000000 0.100000 0.000000
vt 1.150000 -0.050000 0.000000
vt 1.150000 0.050000 0.000000
vt -1.150000 0.050000 0.000000
vt -1.150000 -0.050000 0.000000
vt 0.000000 0.000000 0.000000
vt 2.300000 0.000000 0.000000
vt 2.300000 0.100000 0.000000
vt 0.000000 0.100000 0.000000
vt 0.000000 0.000000 0.000000
vt 2.300000 0.000000 0.000000
vt 2.300000 0.100000 0.000000
vt 0.000000 0.100000 0.000000
vt 1.150000 -0.050000 0.000000
vt 1.150000 0.050000 0.000000
vt -1.150000 0.050000 0.000000
vt -1.150000 -0.050000 0.000000
vt 0.000000 0.000000 0.000000
vt 2.300000 0.000000 0.000000
vt 2.300000 0.100000 0.000000
vt 0.000000 0.100000 0.000000
vt 0.000000 0.000000 0.000000
vt 2.300000 0.000000 0.000000
vt 2.300000 0.100000 0.000000
vt 0.000000 0.100000 0.000000
vt 1.150000 -0.050000 0.000000
vt 1.150000 0.050000 0.000000
vt -1.150000 0.050000 0.000000
vt -1.150000 -0.050000 0.000000
vt 0.000000 0.000000 0.000000
vt 2.300000 0.000000 0.000000
vt 2.300000 0.100000 0.000000
vt 0.000000 0.100000 0.000000
vt 0.000000 0.000000 0.000000
vt 2.300000 0.000000 0.000000
vt 2.300000 0.100000 0.000000
vt 0.000000 0.100000 0.000000
vt 1.150000 -0.050000 0.000000
vt 1.150000 0.050000 0.000000
vt -1.150000 0.050000 0.000000
vt -1.150000 -0.050000 0.000000
vt 0.000000 0.000000 0.000000
vt 2.300000 0.000000 0.000000
vt 2.300000 0.100000 0.000000
vt 0.000000 0.100000 0.000000
vt 0.000000 0.000000 0.000000
vt 2.300000 0.000000 0.000000
vt 2.300000 0.100000 0.000000
vt 0.000000 0.100000 0.000000
vt 1.150000 -0.050000 0.000000
vt 1.150000 0.050000 0.000000
vt -1.150000 0.050000 0.000000
vt -1.150000 -0.050000 0.000000
vt 0.000000 0.000000 0.000000
vt 2.300000 0.000000 0.000000
vt 2.300000 0.100000 0.000000
vt 0.000000 0.100000 0.000000
vt 0.000000 0.000000 0.000000
vt 2.300000 0.000000 0.000000
vt 2.300000 0.100000 0.000000
vt 0.000000 0.100000 0.000000
vt 1.150000 -0.050000 0.000000
vt 1.150000 0.050000 0.000000
vt -1.150000 0.050000 0.000000
vt -1.150000 -0.050000 0.000000
vt 0.000000 0.000000 0.000000
vt 2.300000 0.000000 0.000000
vt 2.300000 0.100000 0.000000
vt 0.000000 0.100000 0.000000
vt 2.425000 -2.150000 0.000000
vt 0.125000 -2.150000 0.000000
vt 0.125000 -0.750000 0.000000
vt 2.425000 -0.750000 0.000000
vt 2.425000 3.850000 0.000000
vt 0.125000 3.850000 0.000000
vt 0.125000 5.250000 0.000000
vt 2.425000 5.250000 0.000000
vt 2.425000 0.850000 0.000000
vt 0.125000 0.850000 0.000000
vt 0.125000 2.250000 0.000000
vt 2.425000 2.250000 0.000000
vt 2.425000 0.750000 0.000000
vt 2.425000 -0.650000 0.000000
vt 0.125000 -0.650000 0.000000
vt 0.125000 0.750000 0.000000
vt 2.425000 3.750000 0.000000
vt 2.425000 2.350000 0.000000
vt 0.125000 2.350000 0.000000
vt 0.125000 3.750000 0.000000
vt 2.425000 6.850000 0.000000
vt 0.125000 6.850000 0.000000
vt 0.125000 8.250000 0.000000
vt 2.425000 8.250000 0.000000
vt 2.425000 8.350000 0.000000
vt 0.125000 8.350000 0.000000
vt 0.125000 9.750000 0.000000
vt 2.425000 9.750000 0.000000
vt 2.425000 6.750000 0.000000
vt 2.425000 5.350000 0.000000
vt 0.125000 5.350000 0.000000
vt 0.125000 6.750000 0.000000
vt 2.425000 -2.250000 0.000000
vt 2.425000 -3.650000 0.000000
vt 0.125000 -3.650000 0.000000
vt 0.125000 -2.250000 0.000000
vt 2.525000 9.750000 0.000000
vt 4.825000 9.750000 0.000000
vt 4.825000 8.350000 0.000000
vt 2.525000 8.350000 0.000000
vt 2.525000 -3.650000 0.000000
vt 2.525000 -2.250000 0.000000
vt 4.825000 -2.250000 0.000000
vt 4.825000 -3.650000 0.000000
vt 4.925000 9.750000 0.000000
vt 7.225000 9.750000 0.000000
vt 7.225000 8.350000 0.000000
vt 4.925000 8.350000 0.000000
vt 4.925000 -3.650000 0.000000
vt 4.925000 -2.250000 0.000000
vt 7.225000 -2.250000 0.000000
vt 7.225000 -3.650000 0.000000
vt 7.325000 -3.650000 0.000000
vt 7.325000 -2.250000 0.000000
vt 9.625000 -2.250000 0.000000
vt 9.625000 -3.650000 0.000000
vt 7.325000 6.750000 0.000000
vt 9.625000 6.750000 0.000000
vt 9.625000 5.350000 0.000000
vt 7.325000 5.350000 0.000000
vt 7.325000 6.850000 0.000000
vt 7.325000 8.250000 0.000000
vt 9.625000 8.250000 0.000000
vt 9.625000 6.850000 0.000000
vt 7.325000 5.250000 0.000000
vt 9.625000 5.250000 0.000000
vt 9.625000 3.850000 0.000000
vt 7.325000 3.850000 0.000000
vt 7.325000 2.250000 0.000000
vt 9.625000 2.250000 0.000000
vt 9.625000 0.850000 0.000000
vt 7.325000 0.850000 0.000000
vt 7.325000 -2.150000 0.000000
vt 7.325000 -0.750000 0.000000
vt 9.625000 -0.750000 0.000000
vt 9.625000 -2.150000 0.000000
vt 7.325000 -0.650000 0.000000
vt 7.325000 0.750000 0.000000
vt 9.625000 0.750000 0.000000
vt 9.625000 -0.650000 0.000000
vt 7.325000 2.350000 0.000000
vt 7.325000 3.750000 0.000000
vt 9.625000 3.750000 0.000000
vt 9.625000 2.350000 0.000000
vt 2.525000 -0.650000 0.000000
vt 2.525000 0.750000 0.000000
vt 4.825000 0.750000 0.000000
vt 4.825000 -0.650000 0.000000
vt 4.925000 -0.750000 0.000000
vt 7.225000 -0.750000 0.000000
vt 7.225000 -2.150000 0.000000
vt 4.925000 -2.150000 0.000000
vt 2.525000 6.850000 0.000000
vt 2.525000 8.250000 0.000000
vt 4.825000 8.250000 0.000000
vt 4.825000 6.850000 0.000000
vt 4.925000 3.750000 0.000000
vt 7.225000 3.750000 0.000000
vt 7.225000 2.350000 0.000000
vt 4.925000 2.350000 0.000000
vt 2.525000 2.350000 0.000000
vt 2.525000 3.750000 0.000000
vt 4.825000 3.750000 0.000000
vt 4.825000 2.350000 0.000000
vt 4.925000 6.850000 0.000000
vt 4.925000 8.250000 0.000000
vt 7.225000 8.250000 0.000000
vt 7.225000 6.850000 0.000000
vt 4.925000 5.350000 0.000000
vt 4.925000 6.750000 0.000000
vt 7.225000 6.750000 0.000000
vt 7.225000 5.350000 0.000000
vt 4.925000 0.850000 0.000000
vt 4.925000 2.250000 0.000000
vt 7.225000 2.250000 0.000000
vt 7.225000 0.850000 0.000000
vt 2.525000 2.250000 0.000000
vt 4.825000 2.250000 0.000000
vt 4.825000 0.850000 0.000000
vt 2.525000 0.850000 0.000000
vt 4.925000 3.850000 0.000000
vt 4.925000 5.250000 0.000000
vt 7.225000 5.250000 0.000000
vt 7.225000 3.850000 0.000000
vt 2.525000 5.250000 0.000000
vt 4.825000 5.250000 0.000000
vt 4.825000 3.850000 0.000000
vt 2.525000 3.850000 0.000000
vt 2.525000 6.750000 0.000000
vt 4.825000 6.750000 0.000000
vt 4.825000 5.350000 0.000000
vt 2.525000 5.350000 0.000000
vt 4.925000 -0.650000 0.000000
vt 4.925000 0.750000 0.000000
vt 7.225000 0.750000 0.000000
vt 7.225000 -0.650000 0.000000
vt 2.525000 -0.750000 0.000000
vt 4.825000 -0.750000 0.000000
vt 4.825000 -2.150000 0.000000
vt 2.525000 -2.150000 0.000000
vt 7.325000 8.350000 0.000000
vt 7.325000 9.750000 0.000000
vt 9.625000 9.750000 0.000000
vt 9.625000 8.350000 0.000000
vt -0.125000 -10.000000 0.000000
vt 9.875000 -10.000000 0.000000
vt 9.875000 10.000000 0.000000
vt -0.125000 10.000000 0.000000
vt 2.400000 0.150000 0.000000
vt 2.400000 0.000000 0.000000
vt 4.700000 0.000000 0.000000
vt 4.700000 0.150000 0.000000
vt 4.800000 0.150000 0.000000
vt 4.800000 0.000000 0.000000
vt 7.100000 0.000000 0.000000
vt 7.100000 0.150000 0.000000
vt 7.200000 0.150000 0.000000
vt 7.200000 0.000000 0.000000
vt 9.500000 0.000000 0.000000
vt 9.500000 0.400000 0.000000
vt 0.000000 0.400000 0.000000
vt 0.000000 0.000000 0.000000
vt 2.300000 0.000000 0.000000
vt 2.300000 0.150000 0.000000
vt 7.200000 0.150000 0.000000
vt 7.200000 0.000000 0.000000
vt 9.500000 0.000000 0.000000
vt 9.500000 0.400000 0.000000
vt 0.000000 0.400000 0.000000
vt 0.000000 0.000000 0.000000
vt 2.300000 0.000000 0.000000
vt 2.300000 0.150000 0.000000
vt 2.400000 0.150000 0.000000
vt 2.400000 0.000000 0.000000
vt 4.700000 0.000000 0.000000
vt 4.700000 0.150000 0.000000
vt 4.800000 0.150000 0.000000
vt 4.800000 0.000000 0.000000
vt 7.100000 0.000000 0.000000
vt 7.100000 0.150000 0.000000
vt 1.400000 0.000000 0.000000
vt 1.400000 0.100000 0.000000
vt 1.500000 0.100000 0.000000
vt 1.500000 0.000000 0.000000
vt 2.900000 0.000000 0.000000
vt 2.900000 0.100000 0.000000
vt 3.000000 0.100000 0.000000
vt 3.000000 0.000000 0.000000
vt 4.400000 0.000000 0.000000
vt 4.400000 0.100000 0.000000
vt 4.500000 0.100000 0.000000
vt 4.500000 0.000000 0.000000
vt 5.900000 0.000000 0.000000
vt 5.900000 0.100000 0.000000
vt 6.000000 0.100000 0.000000
vt 6.000000 0.000000 0.000000
vt 7.400000 0.000000 0.000000
vt 7.400000 0.100000 0.000000
vt 7.500000 0.100000 0.000000
vt 7.500000 0.000000 0.000000
vt 8.900000 0.000000 0.000000
vt 8.900000 0.100000 0.000000
vt 9.000000 0.100000 0.000000
vt 9.000000 0.000000 0.000000
vt 10.400000 0.000000 0.000000
vt 10.400000 0.100000 0.000000
vt 10.500000 0.100000 0.000000
vt 10.500000 0.000000 0.000000
vt 11.900000 0.000000 0.000000
vt 11.900000 0.100000 0.000000
vt 12.000000 0.100000 0.000000
vt 12.000000 0.000000 0.000000
vt 13.400000 0.000000 0.000000
vt 13.400000 0.150000 0.000000
vt 0.000000 0.150000 0.000000
vt 0.000000 0.000000 0.000000
vt 2.900000 0.000000 0.000000
vt 2.900000 0.100000 0.000000
vt 3.000000 0.100000 0.000000
vt 3.000000 0.000000 0.000000
vt 4.400000 0.000000 0.000000
vt 4.400000 0.100000 0.000000
vt 4.500000 0.100000 0.000000
vt 4.500000 0.000000 0.000000
vt 5.900000 0.000000 0.000000
vt 5.900000 0.100000 0.000000
vt 6.000000 0.100000 0.000000
vt 6.000000 0.000000 0.000000
vt 7.400000 0.000000 0.000000
vt 7.400000 0.100000 0.000000
vt 7.500000 0.100000 0.000000
vt 7.500000 0.000000 0.000000
vt 8.900000 0.000000 0.000000
vt 8.900000 0.100000 0.000000
vt 9.000000 0.100000 0.000000
vt 9.000000 0.000000 0.000000
vt 10.400000 0.000000 0.000000
vt 10.400000 0.100000 0.000000
vt 10.500000 0.100000 0.000000
vt 10.500000 0.000000 0.000000
vt 11.900000 0.000000 0.000000
vt 11.900000 0.100000 0.000000
vt 12.000000 0.100000 0.000000
vt 12.000000 0.000000 0.000000
vt 13.400000 0.000000 0.000000
vt 13.400000 0.150000 0.000000
vt 0.000000 0.150000 0.000000
vt 0.000000 0.000000 0.000000
vt 1.400000 0.000000 0.000000
vt 1.400000 0.100000 0.000000
vt 1.500000 0.100000 0.000000
vt 1.500000 0.000000 0.000000
vt 2.900000 0.000000 0.000000
vt 2.900000 0.100000 0.000000
vt 3.000000 0.100000 0.000000
vt 3.000000 0.000000 0.000000
vt 4.400000 0.000000 0.000000
vt 4.400000 0.100000 0.000000
vt 4.500000 0.100000 0.000000
vt 4.500000 0.000000 0.000000
vt 5.900000 0.000000 0.000000
vt 5.900000 0.100000 0.000000
vt 6.000000 0.100000 0.000000
vt 6.000000 0.000000 0.000000
vt 7.400000 0.000000 0.000000
vt 7.400000 0.100000 0.000000
vt 7.500000 0.100000 0.000000
vt 7.500000 0.000000 0.000000
vt 8.900000 0.000000 0.000000
vt 8.900000 0.100000 0.000000
vt 9.000000 0.100000 0.000000
vt 9.000000 0.000000 0.000000
vt 10.400000 0.000000 0.000000
vt 10.400000 0.100000 0.000000
vt 10.500000 0.100000 0.000000
vt 10.500000 0.000000 0.000000
vt 11.900000 0.000000 0.000000
vt 11.900000 0.100000 0.000000
vt 12.000000 0.100000 0.000000
vt 12.000000 0.000000 0.000000
vt 13.400000 0.000000 0.000000
vt 13.400000 0.150000 0.000000
vt 0.000000 0.150000 0.000000
vt 0.000000 0.000000 0.000000
vt 1.400000 0.000000 0.000000
vt 1.400000 0.100000 0.000000
vt 1.500000 0.100000 0.000000
vt 1.500000 0.000000 0.000000
vt 0.050000 6.700000 0.000000
vt -0.050000 6.700000 0.000000
vt -0.050000 -6.700000 0.000000
vt 0.050000 -6.700000 0.000000
vt 0.050000 6.700000 0.000000
vt -0.050000 6.700000 0.000000
vt -0.050000 -6.700000 0.000000
vt 0.050000 -6.700000 0.000000
vt 0.050000 6.700000 0.000000
vt -0.050000 6.700000 0.000000
vt -0.050000 -6.700000 0.000000
vt 0.050000 -6.700000 0.000000
vt 12.000000 0.100000 0.000000
vt 12.000000 0.000000 0.000000
vt 13.400000 0.000000 0.000000
vt 13.400000 0.150000 0.000000
vt 0.000000 0.150000 0.000000
vt 0.000000 0.000000 0.000000
vt 1.400000 0.000000 0.000000
vt 1.400000 0.100000 0.000000
vt 1.500000 0.100000 0.000000
vt 1.500000 0.000000 0.000000
vt 2.900000 0.000000 0.000000
vt 2.900000 0.100000 0.000000
vt 3.000000 0.100000 0.000000
vt 3.000000 0.000000 0.000000
vt 4.400000 0.000000 0.000000
vt 4.400000 0.100000 0.000000
vt 4.500000 0.100000 0.000000
vt 4.500000 0.000000 0.000000
vt 5.900000 0.000000 0.000000
vt 5.900000 0.100000 0.000000
vt 6.000000 0.100000 0.000000
vt 6.000000 0.000000 0.000000
vt 7.400000 0.000000 0.000000
vt 7.400000 0.100000 0.000000
vt 7.500000 0.100000 0.000000
vt 7.500000 0.000000 0.000000
vt 8.900000 0.000000 0.000000
vt 8.900000 0.100000 0.000000
vt 9.000000 0.100000 0.000000
vt 9.000000 0.000000 0.000000
vt 10.400000 0.000000 0.000000
vt 10.400000 0.100000 0.000000
vt 10.500000 0.100000 0.000000
vt 10.500000 0.000000 0.000000
vt 11.900000 0.000000 0.000000
vt 11.900000 0.100000 0.000000
vt 10.500000 0.100000 0.000000
vt 10.500000 0.000000 0.000000
vt 11.900000 0.000000 0.000000
vt 11.900000 0.100000 0.000000
vt 12.000000 0.100000 0.000000
vt 12.000000 0.000000 0.000000
vt 13.400000 0.000000 0.000000
vt 13.400000 0.150000 0.000000
vt 0.000000 0.150000 0.000000
vt 0.000000 0.000000 0.000000
vt 1.400000 0.000000 0.000000
vt 1.400000 0.100000 0.000000
vt 1.500000 0.100000 0.000000
vt 1.500000 0.000000 0.000000
vt 2.900000 0.000000 0.000000
vt 2.900000 0.100000 0.000000
vt 3.000000 0.100000 0.000000
vt 3.000000 0.000000 0.000000
vt 4.400000 0.000000 0.000000
vt 4.400000 0.100000 0.000000
vt 4.500000 0.100000 0.000000
vt 4.500000 0.000000 0.000000
vt 5.900000 0.000000 0.000000
vt 5.900000 0.100000 0.000000
vt 6.000000 0.100000 0.000000
vt 6.000000 0.000000 0.000000
vt 7.400000 0.000000 0.000000
vt 7.400000 0.100000 0.000000
vt 7.500000 0.100000 0.000000
vt 7.500000 0.000000 0.000000
vt 8.900000 0.000000 0.000000
vt 8.900000 0.100000 0.000000
vt 9.000000 0.100000 0.000000
vt 9.000000 0.000000 0.000000
vt 10.400000 0.000000 0.000000
vt 10.400000 0.100000 0.000000
vt 10.500000 0.100000 0.000000
vt 10.500000 0.000000 0.000000
vt 11.900000 0.000000 0.000000
vt 11.900000 0.100000 0.000000
vt 12.000000 0.100000 0.000000
vt 12.000000 0.000000 0.000000
vt 13.400000 0.000000 0.000000
vt 13.400000 0.150000 0.000000
vt 0.000000 0.150000 0.000000
vt 0.000000 0.000000 0.000000
vt 1.400000 0.000000 0.000000
vt 1.400000 0.100000 0.000000
vt 1.500000 0.100000 0.000000
vt 1.500000 0.000000 0.000000
vt 2.900000 0.000000 0.000000
vt 2.900000 0.100000 0.000000
vt 3.000000 0.100000 0.000000
vt 3.000000 0.000000 0.000000
vt 4.400000 0.000000 0.000000
vt 4.400000 0.100000 0.000000
vt 4.500000 0.100000 0.000000
vt 4.500000 0.000000 0.000000
vt 5.900000 0.000000 0.000000
vt 5.900000 0.100000 0.000000
vt 6.000000 0.100000 0.000000
vt 6.000000 0.000000 0.000000
vt 7.400000 0.000000 0.000000
vt 7.400000 0.100000 0.000000
vt 7.500000 0.100000 0.000000
vt 7.500000 0.000000 0.000000
vt 8.900000 0.000000 0.000000
vt 8.900000 0.100000 0.000000
vt 9.000000 0.100000 0.000000
vt 9.000000 0.000000 0.000000
vt 10.400000 0.000000 0.000000
vt 10.400000 0.100000 0.000000
vn 0.000000 -0.100000 0.000000
vn 0.000000 -0.100000 0.000000
vn 0.000000 -0.100000 0.000000
vn 0.000000 -0.100000 0.000000
vn 0.000000 0.000000 0.100000
vn 0.000000 0.000000 0.100000
vn 0.000000 0.000000 0.100000
vn 0.000000 0.000000 0.100000
vn 0.000000 0.100000 0.000000
vn 0.000000 0.100000 0.000000
vn 0.000000 0.100000 0.000000
vn 0.000000 0.100000 0.000000
vn 0.000000 -0.100000 0.000000
vn 0.000000 -0.100000 0.000000
vn 0.000000 -0.100000 0.000000
vn 0.000000 -0.100000 0.000000
vn 0.000000 0.000000 0.100000
vn 0.000000 0.000000 0.100000
vn 0.000000 0.000000 0.100000
vn 0.000000 0.000000 0.100000
vn 0.000000 0.100000 0.000000
vn 0.000000 0.100000 0.000000
vn 0.000000 0.100000 0.000000
vn 0.000000 0.100000 0.000000
vn 0.000000 -0.100000 0.000000
vn 0.000000 -0.100000 0.000000
vn 0.000000 -0.100000 0.000000
vn 0.000000 -0.100000 0.000000
vn 0.000000 0.000000 0.100000
vn 0.000000 0.000000 0.100000
vn 0.000000 0.000000 0.100000
vn 0.000000 0.000000 0.100000
vn 0.000000 0.100000 0.000000
vn 0.000000 0.100000 0.000000
vn 0.000000 0.100000 0.000000
vn 0.000000 0.100000 0.000000
vn 0.000000 -0.100000 0.000000
vn 0.000000 -0.100000 0.000000
vn 0.000000 -0.100000 0.000000
vn 0.000000 -0.100000 0.000000
vn 0.000000 0.000000 0.100000
vn 0.000000 0.000000 0.100000
vn 0.000000 0.000000 0.100000
vn 0.000000 0.000000 0.100000
vn 0.000000 0.100000 0.000000
vn 0.000000 0.100000 0.000000
vn 0.000000 0.100000 0.000000
vn 0.000000 0.100000 0.000000
vn 0.000000 -0.100000 0.000000
vn 0.000000 -0.100000 0.000000
vn 0.000000 -0.100000 0.000000
vn 0.000000 -0.100000 0.000000
vn 0.000000 0.000000 0.100000
vn 0.000000 0.000000 0.100000
vn 0.000000 0.000000 0.100000
vn 0.000000 0.000000 0.100000
vn 0.000000 0.100000 0.000000
vn 0.000000 0.100000 0.000000
vn 0.000000 0.100000 0.000000
vn 0.000000 0.100000 0.000000
vn 0.000000 -0.100000 0.000000
vn 0.000000 -0.100000 0.000000
vn 0.000000 -0.100000 0.000000
vn 0.000000 -0.100000 0.000000
vn 0.000000 0.000000 0.100000
vn 0.000000 0.000000 0.100000
vn 0.000000 0.000000 0.100000
vn 0.000000 0.000000 0.100000
vn 0.000000 0.100000 0.000000
vn 0.000000 0.100000 0.000000
vn 0.000000 0.100000 0.000000
vn 0.000000 0.100000 0.000000
vn 0.000000 -0.100000 0.000000
vn 0.000000 -0.100000 0.000000
vn 0.000000 -0.100000 0.000000
vn 0.000000 -0.100000 0.000000
vn 0.000000 0.000000 0.100000
vn 0.000000 0.000000 0.100000
vn 0.000000 0.000000 0.100000
vn 0.000000 0.000000 0.100000
vn 0.000000 0.100000 0.000000
vn 0.000000 0.100000 0.000000
vn 0.000000 0.100000 0.000000
vn 0.000000 0.100000 0.000000
vn 0.000000 -0.100000 0.000000
vn 0.000000 -0.100000 0.000000
vn 0.000000 -0.100000 0.000000
vn 0.000000 -0.100000 0.000000
vn 0.000000 0.000000 0.100000
vn 0.000000 0.000000 0.100000
vn 0.000000 0.000000 0.100000
vn 0.000000 0.000000 0.100000
vn 0.000000 0.100000 0.000000
vn 0.000000 0.100000 0.000000
vn 0.000000 0.100000 0.000000
vn 0.000000 0.100000 0.000000
vn 0.000000 -0.100000 0.000000
vn 0.000000 -0.100000 0.000000
vn 0.000000 -0.100000 0.000000
vn 0.000000 -0.100000 0.000000
vn 0.000000 0.000000 0.100000
vn 0.000000 0.000000 0.100000
vn 0.000000 0.000000 0.100000
vn 0.000000 0.000000 0.100000
vn 0.000000 0.100000 0.000000
vn 0.000000 0.100000 0.000000
vn 0.000000 0.100000 0.000000
vn 0.000000 0.100000 0.000000
vn 0.000000 -0.100000 0.000000
vn 0.000000 -0.100000 0.000000
vn 0.000000 -0.100000 0.000000
vn 0.000000 -0.100000 0.000000
vn 0.000000 0.000000 0.100000
vn 0.000000 0.000000 0.100000
vn 0.000000 0.000000 0.100000
vn 0.000000 0.000000 0.100000
vn 0.000000 0.100000 0.000000
vn 0.000000 0.100000 0.000000
vn 0.000000 0.100000 0.000000
vn 0.000000 0.100000 0.000000
vn 0.000000 -0.100000 0.000000
vn 0.000000 -0.100000 0.000000
vn 0.000000 -0.100000 0.000000
vn 0.000000 -0.100000 0.000000
vn 0.000000 0.000000 0.100000
vn 0.000000 0.000000 0.100000
vn 0.000000 0.000000 0.100000
vn 0.000000 0.000000 0.100000
vn 0.000000 0.100000 0.000000
vn 0.000000 0.100000 0.000000
vn 0.000000 0.100000 0.000000
vn 0.000000 0.100000 0.000000
vn 0.000000 -0.100000 0.000000
vn 0.000000 -0.100000 0.000000
vn 0.000000 -0.100000 0.000000
vn 0.000000 -0.100000 0.000000
vn 0.000000 0.000000 0.100000
vn 0.000000 0.000000 0.100000
vn 0.000000 0.000000 0.100000
vn 0.000000 0.000000 0.100000
vn 0.000000 0.100000 0.000000
vn 0.000000 0.100000 0.000000
vn 0.000000 0.100000 0.000000
vn 0.000000 0.100000 0.000000
vn 0.000000 -0.100000 0.000000
vn 0.000000 -0.100000 0.000000
vn 0.000000 -0.100000 0.000000
vn 0.000000 -0.100000 0.000000
vn 0.000000 0.000000 0.100000
vn 0.000000 0.000000 0.100000
vn 0.000000 0.000000 0.100000
vn 0.000000 0.000000 0.100000
vn 0.000000 0.100000 0.000000
vn 0.000000 0.100000 0.000000
vn 0.000000 0.100000 0.000000
vn 0.000000 0.100000 0.000000
vn 0.000000 -0.100000 0.000000
vn 0.000000 -0.100000 0.000000
vn 0.000000 -0.100000 0.000000
vn 0.000000 -0.100000 0.000000
vn 0.000000 0.000000 0.100000
vn 0.000000 0.000000 0.100000
vn 0.000000 0.000000 0.100000
vn 0.000000 0.000000 0.100000
vn 0.000000 0.100000 0.000000
vn 0.000000 0.100000 0.000000
vn 0.000000 0.100000 0.000000
vn 0.000000 0.100000 0.000000
vn 0.000000 -0.100000 0.000000
vn 0.000000 -0.100000 0.000000
vn 0.000000 -0.100000 0.000000
vn 0.000000 -0.100000 0.000000
vn 0.000000 0.000000 0.100000
vn 0.000000 0.000000 0.100000
vn 0.000000 0.000000 0.100000
vn 0.000000 0.000000 0.100000
vn 0.000000 0.100000 0.000000
vn 0.000000 0.100000 0.000000
vn 0.000000 0.100000 0.000000
vn 0.000000 0.100000 0.000000
vn 0.000000 -0.100000 0.000000
vn 0.000000 -0.100000 0.000000
vn 0.000000 -0.100000 0.000000
vn 0.000000 -0.100000 0.000000
vn 0.000000 0.000000 0.100000
vn 0.000000 0.000000 0.100000
vn 0.000000 0.000000 0.100000
vn 0.000000 0.000000 0.100000
vn 0.000000 0.100000 0.000000
vn 0.000000 0.100000 0.000000
vn 0.000000 0.100000 0.000000
vn 0.000000 0.100000 0.000000
vn 0.000000 -0.100000 0.000000
vn 0.000000 -0.100000 0.000000
vn 0.000000 -0.100000 0.000000
vn 0.000000 -0.100000 0.000000
vn 0.000000 0.000000 0.100000
vn 0.000000 0.000000 0.100000
vn 0.000000 0.000000 0.100000
vn 0.000000 0.000000 0.100000
vn 0.000000 0.100000 0.000000
vn 0.000000 0.100000 0.000000
vn 0.000000 0.100000 0.000000
vn 0.000000 0.100000 0.000000
vn 0.000000 -0.100000 0.000000
vn 0.000000 -0.100000 0.000000
vn 0.000000 -0.100000 0.000000
vn 0.000000 -0.100000 0.000000
vn 0.000000 0.000000 0.100000
vn 0.000000 0.000000 0.100000
vn 0.000000 0.000000 0.100000
vn 0.000000 0.000000 0.100000
vn 0.000000 0.100000 0.000000
vn 0.000000 0.100000 0.000000
vn 0.000000 0.100000 0.000000
vn 0.000000 0.100000 0.000000
vn 0.000000 -0.100000 0.000000
vn 0.000000 -0.100000 0.000000
vn 0.000000 -0.100000 0.000000
vn 0.000000 -0.100000 0.000000
vn 0.000000 0.000000 0.100000
vn 0.000000 0.000000 0.100000
vn 0.000000 0.000000 0.100000
vn 0.000000 0.000000 0.100000
vn 0.000000 0.100000 0.000000
vn 0.000000 0.100000 0.000000
vn 0.000000 0.100000 0.000000
vn 0.000000 0.100000 0.000000
vn 0.000000 0.100000 0.000000
vn 0.000000 0.100000 0.000000
vn 0.000000 0.100000 0.000000
vn 0.000000 0.100000 0.000000
vn 0.000000 0.000000 0.100000
vn 0.000000 0.000000 0.100000
vn 0.000000 0.000000 0.100000
vn 0.000000 0.000000 0.100000
vn 0.000000 -0.100000 0.000000
vn 0.000000 -0.100000 0.000000
vn 0.000000 -0.100000 0.000000
vn 0.000000 -0.100000 0.000000
vn 0.000000 -0.100000 0.000000
vn 0.000000 -0.100000 0.000000
vn 0.000000 -0.100000 0.000000
vn 0.000000 -0.100000 0.000000
vn 0.000000 0.000000 0.100000
vn 0.000000 0.000000 0.100000
vn 0.000000 0.000000 0.100000
vn 0.000000 0.000000 0.100000
vn 0.000000 0.100000 0.000000
vn 0.000000 0.100000 0.000000
vn 0.000000 0.100000 0.000000
vn 0.000000 0.100000 0.000000
vn 0.000000 -0.100000 0.000000
vn 0.000000 -0.100000 0.000000
vn 0.000000 -0.100000 0.000000
vn 0.000000 -0.100000 0.000000
vn 0.000000 0.000000 0.100000
vn 0.000000 0.000000 0.100000
vn 0.000000 0.000000 0.100000
vn 0.000000 0.000000 0.100000
vn -0.100000 0.000000 0.000000
vn -0.100000 0.000000 0.000000
vn -0.100000 0.000000 0.000000
vn -0.100000 0.000000 0.000000
vn -0.100000 0.000000 0.000000
vn -0.100000 0.000000 0.000000
vn -0.100000 0.000000 0.000000
vn -0.100000 0.000000 0.000000
vn -0.100000 0.000000 0.000000
vn -0.100000 0.000000 0.000000
vn -0.100000 0.000000 0.000000
vn -0.100000 0.000000 0.000000
vn -0.100000 0.000000 0.000000
vn -0.100000 0.000000 0.000000
vn -0.100000 0.000000 0.000000
vn -0.100000 0.000000 0.000000
vn -0.100000 0.000000 0.000000
vn -0.100000 0.000000 0.000000
vn -0.100000 0.000000 0.000000
vn -0.100000 0.000000 0.000000
vn -0.100000 0.000000 0.000000
vn -0.100000 0.000000 0.000000
vn -0.100000 0.000000 0.000000
vn -0.100000 0.000000 0.000000
vn -0.100000 0.000000 0.000000
vn -0.100000 0.000000 0.000000
vn -0.100000 0.000000 0.000000
vn -0.100000 0.000000 0.000000
vn -0.100000 0.000000 0.000000
vn -0.100000 0.000000 0.000000
vn -0.100000 0.000000 0.000000
vn -0.100000 0.000000 0.000000
vn -0.100000 0.000000 0.000000
vn -0.100000 0.000000 0.000000
vn -0.100000 0.000000 0.000000
vn -0.100000 0.000000 0.000000
vn -0.100000 0.000000 0.000000
vn -0.100000 0.000000 0.000000
vn -0.100000 0.000000 0.000000
vn -0.100000 0.000000 0.000000
vn -0.100000 0.000000 0.000000
vn -0.100000 0.000000 0.000000
vn -0.100000 0.000000 0.000000
vn -0.100000 0.000000 0.000000
vn 0.000000 0.100000 0.000000
vn 0.000000 0.100000 0.000000
vn 0.000000 0.100000 0.000000
vn 0.000000 0.100000 0.000000
vn 0.000000 0.000000 0.100000
vn 0.000000 0.000000 0.100000
vn 0.000000 0.000000 0.100000
vn 0.000000 0.000000 0.100000
vn 0.000000 -0.100000 0.000000
vn 0.000000 -0.100000 0.000000
vn 0.000000 -0.100000 0.000000
vn 0.000000 -0.100000 0.000000
vn 0.000000 0.000000 0.100000
vn 0.000000 0.000000 0.100000
vn 0.000000 0.000000 0.100000
vn 0.000000 0.000000 0.100000
vn 0.000000 0.000000 0.100000
vn 0.000000 0.000000 0.100000
vn 0.000000 0.000000 0.100000
vn 0.000000 0.000000 0.100000
vn 0.000000 0.100000 0.000000
vn 0.000000 0.100000 0.000000
vn 0.000000 0.100000 0.000000
vn 0.000000 0.100000 0.000000
vn 0.000000 0.000000 0.100000
vn 0.000000 0.000000 0.100000
vn 0.000000 0.000000 0.100000
vn 0.000000 0.000000 0.100000
vn 0.100000 0.000000 0.000000
vn 0.100000 0.000000 0.000000
vn 0.100000 0.000000 0.000000
vn 0.100000 0.000000 0.000000
vn 0.100000 0.000000 0.000000
vn 0.100000 0.000000 0.000000
vn 0.100000 0.000000 0.000000
vn 0.100000 0.000000 0.000000
vn 0.100000 0.000000 0.000000
vn 0.100000 0.000000 0.000000
vn 0.100000 0.000000 0.000000
vn 0.100000 0.000000 0.000000
vn 0.100000 0.000000 0.000000
vn 0.100000 0.000000 0.000000
vn 0.100000 0.000000 0.000000
vn 0.100000 0.000000 0.000000
vn 0.100000 0.000000 0.000000
vn 0.100000 0.000000 0.000000
vn 0.100000 0.000000 0.000000
vn 0.100000 0.000000 0.000000
vn 0.100000 0.000000 0.000000
vn 0.100000 0.000000 0.000000
vn 0.100000 0.000000 0.000000
vn 0.100000 0.000000 0.000000
vn 0.100000 0.000000 0.000000
vn 0.100000 0.000000 0.000000
vn 0.100000 0.000000 0.000000
vn 0.100000 0.000000 0.000000
vn 0.100000 0.000000 0.000000
vn 0.100000 0.000000 0.000000
vn 0.100000 0.000000 0.000000
vn 0.100000 0.000000 0.000000
vn 0.100000 0.000000 0.000000
vn 0.100000 0.000000 0.000000
vn 0.100000 0.000000 0.000000
vn 0.100000 0.000000 0.000000
vn 0.100000 0.000000 0.000000
vn 0.100000 0.000000 0.000000
vn 0.100000 0.000000 0.000000
vn 0.100000 0.000000 0.000000
vn 0.100000 0.000000 0.000000
vn 0.100000 0.000000 0.000000
vn 0.100000 0.000000 0.000000
vn 0.100000 0.000000 0.000000
vn -0.100000 0.000000 0.000000
vn -0.100000 0.000000 0.000000
vn -0.100000 0.000000 0.000000
vn -0.100000 0.000000 0.000000
vn 0.000000 0.000000 0.100000
vn 0.000000 0.000000 0.100000
vn 0.000000 0.000000 0.100000
vn 0.000000 0.000000 0.100000
vn 0.000000 0.100000 0.000000
vn 0.000000 0.100000 0.000000
vn 0.000000 0.100000 0.000000
vn 0.000000 0.100000 0.000000
vn 0.000000 0.100000 0.000000
vn 0.000000 0.100000 0.000000
vn 0.000000 0.100000 0.000000
vn 0.000000 0.100000 0.000000
vn 0.100000 0.000000 0.000000
vn 0.100000 0.000000 0.000000
vn 0.100000 0.000000 0.000000
vn 0.100000 0.000000 0.000000
vn 0.000000 -0.100000 0.000000
vn 0.000000 -0.100000 0.000000
vn 0.000000 -0.100000 0.000000
vn 0.000000 -0.100000 0.000000
vn 0.000000 -0.100000 0.000000
vn 0.000000 -0.100000 0.000000
vn 0.000000 -0.100000 0.000000
vn 0.000000 -0.100000 0.000000
vn 0.000000 0.000000 0.100000
vn 0.000000 0.000000 0.100000
vn 0.000000 0.000000 0.100000
vn 0.000000 0.000000 0.100000
vn 0.000000 0.100000 0.000000
vn 0.000000 0.100000 0.000000
vn 0.000000 0.100000 0.000000
vn 0.000000 0.100000 0.000000
vn 0.000000 0.000000 0.100000
vn 0.000000 0.000000 0.100000
vn 0.000000 0.000000 0.100000
vn 0.000000 0.000000 0.100000
vn 0.000000 -0.100000 0.000000
vn 0.000000 -0.100000 0.000000
vn 0.000000 -0.100000 0.000000
vn 0.000000 -0.100000 0.000000
vn 0.000000 -0.100000 0.000000
vn 0.000000 -0.100000 0.000000
vn 0.000000 -0.100000 0.000000
vn 0.000000 -0.100000 0.000000
vn 0.000000 0.000000 0.100000
vn 0.000000 0.000000 0.100000
vn 0.000000 0.000000 0.100000
vn 0.000000 0.000000 0.100000
vn 0.000000 0.100000 0.000000
vn 0.000000 0.100000 0.000000
vn 0.000000 0.100000 0.000000
vn 0.000000 0.100000 0.000000
vn 0.000000 -0.100000 0.000000
vn 0.000000 -0.100000 0.000000
vn 0.000000 -0.100000 0.000000
vn 0.000000 -0.100000 0.000000
vn 0.000000 0.000000 0.100000
vn 0.000000 0.000000 0.100000
vn 0.000000 0.000000 0.100000
vn 0.000000 0.000000 0.100000
vn 0.000000 0.100000 0.000000
vn 0.000000 0.100000 0.000000
vn 0.000000 0.100000 0.000000
vn 0.000000 0.100000 0.000000
vn 0.000000 -0.100000 0.000000
vn 0.000000 -0.100000 0.000000
vn 0.000000 -0.100000 0.000000
vn 0.000000 -0.100000 0.000000
vn 0.000000 0.000000 0.100000
vn 0.000000 0.000000 0.100000
vn 0.000000 0.000000 0.100000
vn 0.000000 0.000000 0.100000
vn 0.000000 0.100000 0.000000
vn 0.000000 0.100000 0.000000
vn 0.000000 0.100000 0.000000
vn 0.000000 0.100000 0.000000
vn 0.000000 -0.100000 0.000000
vn 0.000000 -0.100000 0.000000
vn 0.000000 -0.100000 0.000000
vn 0.000000 -0.100000 0.000000
vn 0.000000 0.000000 0.100000
vn 0.000000 0.000000 0.100000
vn 0.000000 0.000000 0.100000
vn 0.000000 0.000000 0.100000
vn 0.000000 0.100000 0.000000
vn 0.000000 0.100000 0.000000
vn 0.000000 0.100000 0.000000
vn 0.000000 0.100000 0.000000
vn 0.000000 -0.100000 0.000000
vn 0.000000 -0.100000 0.000000
vn 0.000000 -0.100000 0.000000
vn 0.000000 -0.100000 0.000000
vn 0.000000 0.000000 0.100000
vn 0.000000 0.000000 0.100000
vn 0.000000 0.000000 0.100000
vn 0.000000 0.000000 0.100000
vn 0.000000 0.100000 0.000000
vn 0.000000 0.100000 0.000000
vn 0.000000 0.100000 0.000000
vn 0.000000 0.100000 0.000000
vn 0.000000 -0.100000 0.000000
vn 0.000000 -0.100000 0.000000
vn 0.000000 -0.100000 0.000000
vn 0.000000 -0.100000 0.000000
vn 0.000000 0.000000 0.100000
vn 0.000000 0.000000 0.100000
vn 0.000000 0.000000 0.100000
vn 0.000000 0.000000 0.100000
vn 0.000000 0.100000 0.000000
vn 0.000000 0.100000 0.000000
vn 0.000000 0.100000 0.000000
vn 0.000000 0.100000 0.000000
vn 0.000000 -0.100000 0.000000
vn 0.000000 -0.100000 0.000000
vn 0.000000 -0.100000 0.000000
vn 0.000000 -0.100000 0.000000
vn 0.000000 0.000000 0.100000
vn 0.000000 0.000000 0.100000
vn 0.000000 0.000000 0.100000
vn 0.000000 0.000000 0.100000
vn 0.000000 0.100000 0.000000
vn 0.000000 0.100000 0.000000
vn 0.000000 0.100000 0.000000
vn 0.000000 0.100000 0.000000
vn 0.000000 -0.100000 0.000000
vn 0.000000 -0.100000 0.000000
vn 0.000000 -0.100000 0.000000
vn 0.000000 -0.100000 0.000000
vn 0.000000 0.000000 0.100000
vn 0.000000 0.000000 0.100000
vn 0.000000 0.000000 0.100000
vn 0.000000 0.000000 0.100000
vn 0.000000 0.100000 0.000000
vn 0.000000 0.100000 0.000000
vn 0.000000 0.100000 0.000000
vn 0.000000 0.100000 0.000000
vn 0.000000 -0.100000 0.000000
vn 0.000000 -0.100000 0.000000
vn 0.000000 -0.100000 0.000000
vn 0.000000 -0.100000 0.000000
vn 0.000000 0.000000 0.100000
vn 0.000000 0.000000 0.100000
vn 0.000000 0.000000 0.100000
vn 0.000000 0.000000 0.100000
vn 0.000000 0.100000 0.000000
vn 0.000000 0.100000 0.000000
vn 0.000000 0.100000 0.000000
vn 0.000000 0.100000 0.000000
vn 0.000000 0.000000 -0.100000
vn 0.000000 0.000000 -0.100000
vn 0.000000 0.000000 -0.100000
vn 0.000000 0.000000 -0.100000
vn 0.000000 0.000000 -0.100000
vn 0.000000 0.000000 -0.100000
vn 0.000000 0.000000 -0.100000
vn 0.000000 0.000000 -0.100000
vn 0.000000 0.000000 -0.100000
vn 0.000000 0.000000 -0.100000
vn 0.000000 0.000000 -0.100000
vn 0.000000 0.000000 -0.100000
vn 0.000000 0.000000 -0.100000
vn 0.000000 0.000000 -0.100000
vn 0.000000 0.000000 -0.100000
vn 0.000000 0.000000 -0.100000
vn 0.000000 0.000000 -0.100000
vn 0.000000 0.000000 -0.100000
vn 0.000000 0.000000 -0.100000
vn 0.000000 0.000000 -0.100000
vn 0.000000 0.000000 -0.100000
vn 0.000000 0.000000 -0.100000
vn 0.000000 0.000000 -0.100000
vn 0.000000 0.000000 -0.100000
vn 0.000000 0.000000 -0.100000
vn 0.000000 0.000000 -0.100000
vn 0.000000 0.000000 -0.100000
vn 0.000000 0.000000 -0.100000
vn 0.000000 0.000000 -0.100000
vn 0.000000 0.000000 -0.100000
vn 0.000000 0.000000 -0.100000
vn 0.000000 0.000000 -0.100000
vn 0.000000 0.000000 -0.100000
vn 0.000000 0.000000 -0.100000
vn 0.000000 0.000000 -0.100000
vn 0.000000 0.000000 -0.100000
vn 0.000000 0.000000 -0.100000
vn 0.000000 0.000000 -0.100000
vn 0.000000 0.000000 -0.100000
vn 0.000000 0.000000 -0.100000
vn 0.000000 0.000000 -0.100000
vn 0.000000 0.000000 -0.100000
vn 0.000000 0.000000 -0.100000
vn 0.000000 0.000000 -0.100000
vn 0.000000 0.000000 -0.100000
vn 0.000000 0.000000 -0.100000
vn 0.000000 0.000000 -0.100000
vn 0.000000 0.000000 -0.100000
vn 0.000000 0.000000 -0.100000
vn 0.000000 0.000000 -0.100000
vn 0.000000 0.000000 -0.100000
vn 0.000000 0.000000 -0.100000
vn 0.000000 0.000000 -0.100000
vn 0.000000 0.000000 -0.100000
vn 0.000000 0.000000 -0.100000
vn 0.000000 0.000000 -0.100000
vn 0.000000 0.000000 -0.100000
vn 0.000000 0.000000 -0.100000
vn 0.000000 0.000000 -0.100000
vn 0.000000 0.000000 -0.100000
vn 0.000000 0.000000 -0.100000
vn 0.000000 0.000000 -0.100000
vn 0.000000 0.000000 -0.100000
vn 0.000000 0.000000 -0.100000
vn 0.000000 0.000000 -0.100000
vn 0.000000 0.000000 -0.100000
vn 0.000000 0.000000 -0.100000
vn 0.000000 0.000000 -0.100000
vn 0.000000 0.000000 -0.100000
vn 0.000000 0.000000 -0.100000
vn 0.000000 0.000000 -0.100000
vn 0.000000 0.000000 -0.100000
vn 0.000000 0.000000 -0.100000
vn 0.000000 0.000000 -0.100000
vn 0.000000 0.000000 -0.100000
vn 0.000000 0.000000 -0.100000
vn 0.000000 0.000000 -0.100000
vn 0.000000 0.000000 -0.100000
vn 0.000000 0.000000 -0.100000
vn 0.000000 0.000000 -0.100000
vn 0.000000 0.000000 -0.100000
vn 0.000000 0.000000 -0.100000
vn 0.000000 0.000000 -0.100000
vn 0.000000 0.000000 -0.100000
vn 0.000000 0.000000 -0.100000
vn 0.000000 0.000000 -0.100000
vn 0.000000 0.000000 -0.100000
vn 0.000000 0.000000 -0.100000
vn 0.000000 0.000000 -0.100000
vn 0.000000 0.000000 -0.100000
vn 0.000000 0.000000 -0.100000
vn 0.000000 0.000000 -0.100000
vn 0.000000 0.000000 -0.100000
vn 0.000000 0.000000 -0.100000
vn 0.000000 0.000000 -0.100000
vn 0.000000 0.000000 -0.100000
vn 0.000000 0.000000 -0.100000
vn 0.000000 0.000000 -0.100000
vn 0.000000 0.000000 -0.100000
vn 0.000000 0.000000 -0.100000
vn 0.000000 0.000000 -0.100000
vn 0.000000 0.000000 -0.100000
vn 0.000000 0.000000 -0.100000
vn 0.000000 0.000000 -0.100000
vn 0.000000 0.000000 -0.100000
vn 0.000000 0.000000 -0.100000
vn 0.000000 0.000000 -0.100000
vn 0.000000 0.000000 -0.100000
vn 0.000000 0.000000 -0.100000
vn 0.000000 0.000000 -0.100000
vn 0.000000 0.000000 -0.100000
vn 0.000000 0.000000 -0.100000
vn 0.000000 0.000000 -0.100000
vn 0.000000 0.000000 -0.100000
vn 0.000000 0.000000 -0.100000
vn 0.000000 0.000000 -0.100000
vn 0.000000 0.000000 -0.100000
vn 0.000000 0.000000 -0.100000
vn 0.000000 0.000000 -0.100000
vn 0.000000 0.000000 -0.100000
vn 0.000000 0.000000 -0.100000
vn 0.000000 0.000000 -0.100000
vn 0.000000 0.000000 -0.100000
vn 0.000000 0.000000 -0.100000
vn 0.000000 0.000000 -0.100000
vn 0.000000 0.000000 -0.100000
vn 0.000000 0.000000 -0.100000
vn 0.000000 0.000000 -0.100000
vn 0.000000 0.000000 -0.100000
vn 0.000000 0.000000 -0.100000
vn 0.000000 0.000000 -0.100000
vn 0.000000 0.000000 -0.100000
vn 0.000000 0.000000 -0.100000
vn 0.000000 0.000000 -0.100000
vn 0.000000 0.000000 -0.100000
vn 0.000000 0.000000 -0.100000
vn 0.000000 0.000000 -0.100000
vn 0.000000 0.000000 -0.100000
vn 0.000000 0.000000 -0.100000
vn 0.000000 0.000000 -0.100000
vn 0.000000 0.000000 -0.100000
vn 0.000000 0.000000 -0.100000
vn 0.000000 0.000000 -0.100000
vn 0.000000 0.000000 -0.100000
vn 0.000000 0.000000 -0.100000
vn 0.000000 0.000000 -0.100000
vn 0.000000 0.000000 -0.100000
vn 0.000000 0.000000 -0.100000
vn 0.000000 0.100000 0.000000
vn 0.000000 0.100000 0.000000
vn 0.000000 0.100000 0.000000
vn 0.000000 0.100000 0.000000
vn 0.000000 0.100000 0.000000
vn 0.000000 0.100000 0.000000
vn 0.000000 0.100000 0.000000
vn 0.000000 0.100000 0.000000
vn 0.000000 0.100000 0.000000
vn 0.000000 0.100000 0.000000
vn 0.000000 0.100000 0.000000
vn 0.000000 0.100000 0.000000
vn 0.000000 0.100000 0.000000
vn 0.000000 0.100000 0.000000
vn 0.000000 0.100000 0.000000
vn 0.000000 0.100000 0.000000
vn 0.000000 -0.100000 0.000000
vn 0.000000 -0.100000 0.000000
vn 0.000000 -0.100000 0.000000
vn 0.000000 -0.100000 0.000000
vn 0.000000 -0.100000 0.000000
vn 0.000000 -0.100000 0.000000
vn 0.000000 -0.100000 0.000000
vn 0.000000 -0.100000 0.000000
vn 0.000000 -0.100000 0.000000
vn 0.000000 -0.100000 0.000000
vn 0.000000 -0.100000 0.000000
vn 0.000000 -0.100000 0.000000
vn 0.000000 -0.100000 0.000000
vn 0.000000 -0.100000 0.000000
vn 0.000000 -0.100000 0.000000
vn 0.000000 -0.100000 0.000000
vn 0.100000 0.000000 0.000000
vn 0.100000 0.000000 0.000000
vn 0.100000 0.000000 0.000000
vn 0.100000 0.000000 0.000000
vn 0.100000 0.000000 0.000000
vn 0.100000 0.000000 0.000000
vn 0.100000 0.000000 0.000000
vn 0.100000 0.000000 0.000000
vn 0.100000 0.000000 0.000000
vn 0.100000 0.000000 0.000000
vn 0.100000 0.000000 0.000000
vn 0.100000 0.000000 0.000000
vn 0.100000 0.000000 0.000000
vn 0.100000 0.000000 0.000000
vn 0.100000 0.000000 0.000000
vn 0.100000 0.000000 0.000000
vn 0.100000 0.000000 0.000000
vn 0.100000 0.000000 0.000000
vn 0.100000 0.000000 0.000000
vn 0.100000 0.000000 0.000000
vn 0.100000 0.000000 0.000000
vn 0.100000 0.000000 0.000000
vn 0.100000 0.000000 0.000000
vn 0.100000 0.000000 0.000000
vn 0.100000 0.000000 0.000000
vn 0.100000 0.000000 0.000000
vn 0.100000 0.000000 0.000000
vn 0.100000 0.000000 0.000000
vn 0.100000 0.000000 0.000000
vn 0.100000 0.000000 0.000000
vn 0.100000 0.000000 0.000000
vn 0.100000 0.000000 0.000000
vn 0.100000 0.000000 0.000000
vn 0.100000 0.000000 0.000000
vn 0.100000 0.000000 0.000000
vn 0.100000 0.000000 0.000000
vn 0.100000 0.000000 0.000000
vn 0.100000 0.000000 0.000000
vn 0.100000 0.000000 0.000000
vn 0.100000 0.000000 0.000000
vn 0.100000 0.000000 0.000000
vn 0.100000 0.000000 0.000000
vn 0.100000 0.000000 0.000000
vn 0.100000 0.000000 0.000000
vn 0.100000 0.000000 0.000000
vn 0.100000 0.000000 0.000000
vn 0.100000 0.000000 0.000000
vn 0.100000 0.000000 0.000000
vn 0.100000 0.000000 0.000000
vn 0.100000 0.000000 0.000000
vn 0.100000 0.000000 0.000000
vn 0.100000 0.000000 0.000000
vn 0.100000 0.000000 0.000000
vn 0.100000 0.000000 0.000000
vn 0.100000 0.000000 0.000000
vn 0.100000 0.000000 0.000000
vn 0.100000 0.000000 0.000000
vn 0.100000 0.000000 0.000000
vn 0.100000 0.000000 0.000000
vn 0.100000 0.000000 0.000000
vn 0.100000 0.000000 0.000000
vn 0.100000 0.000000 0.000000
vn 0.100000 0.000000 0.000000
vn 0.100000 0.000000 0.000000
vn 0.100000 0.000000 0.000000
vn 0.100000 0.000000 0.000000
vn 0.100000 0.000000 0.000000
vn 0.100000 0.000000 0.000000
vn 0.100000 0.000000 0.000000
vn 0.100000 0.000000 0.000000
vn 0.100000 0.000000 0.000000
vn 0.100000 0.000000 0.000000
vn 0.100000 0.000000 0.000000
vn 0.100000 0.000000 0.000000
vn 0.100000 0.000000 0.000000
vn 0.100000 0.000000 0.000000
vn 0.100000 0.000000 0.000000
vn 0.100000 0.000000 0.000000
vn 0.100000 0.000000 0.000000
vn 0.100000 0.000000 0.000000
vn 0.100000 0.000000 0.000000
vn 0.100000 0.000000 0.000000
vn 0.100000 0.000000 0.000000
vn 0.100000 0.000000 0.000000
vn 0.100000 0.000000 0.000000
vn 0.100000 0.000000 0.000000
vn 0.100000 0.000000 0.000000
vn 0.100000 0.000000 0.000000
vn 0.100000 0.000000 0.000000
vn 0.100000 0.000000 0.000000
vn 0.100000 0.000000 0.000000
vn 0.100000 0.000000 0.000000
vn 0.100000 0.000000 0.000000
vn 0.100000 0.000000 0.000000
vn 0.100000 0.000000 0.000000
vn 0.100000 0.000000 0.000000
vn 0.100000 0.000000 0.000000
vn 0.100000 0.000000 0.000000
vn 0.100000 0.000000 0.000000
vn 0.100000 0.000000 0.000000
vn 0.100000 0.000000 0.000000
vn 0.100000 0.000000 0.000000
vn 0.100000 0.000000 0.000000
vn 0.100000 0.000000 0.000000
vn 0.100000 0.000000 0.000000
vn 0.100000 0.000000 0.000000
vn 0.100000 0.000000 0.000000
vn 0.100000 0.000000 0.000000
vn 0.000000 0.000000 0.100000
vn 0.000000 0.000000 0.100000
vn 0.000000 0.000000 0.100000
vn 0.000000 0.000000 0.100000
vn 0.000000 0.000000 0.100000
vn 0.000000 0.000000 0.100000
vn 0.000000 0.000000 0.100000
vn 0.000000 0.000000 0.100000
vn 0.000000 0.000000 0.100000
vn 0.000000 0.000000 0.100000
vn 0.000000 0.000000 0.100000
vn 0.000000 0.000000 0.100000
vn -0.100000 0.000000 0.000000
vn -0.100000 0.000000 0.000000
vn -0.100000 0.000000 0.000000
vn -0.100000 0.000000 0.000000
vn -0.100000 0.000000 0.000000
vn -0.100000 0.000000 0.000000
vn -0.100000 0.000000 0.000000
vn -0.100000 0.000000 0.000000
vn -0.100000 0.000000 0.000000
vn -0.100000 0.000000 0.000000
vn -0.100000 0.000000 0.000000
vn -0.100000 0.000000 0.000000
vn -0.100000 0.000000 0.000000
vn -0.100000 0.000000 0.000000
vn -0.100000 0.000000 0.000000
vn -0.100000 0.000000 0.000000
vn -0.100000 0.000000 0.000000
vn -0.100000 0.000000 0.000000
vn -0.100000 0.000000 0.000000
vn -0.100000 0.000000 0.000000
vn -0.100000 0.000000 0.000000
vn -0.100000 0.000000 0.000000
vn -0.100000 0.000000 0.000000
vn -0.100000 0.000000 0.000000
vn -0.100000 0.000000 0.000000
vn -0.100000 0.000000 0.000000
vn -0.100000 0.000000 0.000000
vn -0.100000 0.000000 0.000000
vn -0.100000 0.000000 0.000000
vn -0.100000 0.000000 0.000000
vn -0.100000 0.000000 0.000000
vn -0.100000 0.000000 0.000000
vn -0.100000 0.000000 0.000000
vn -0.100000 0.000000 0.000000
vn -0.100000 0.000000 0.000000
vn -0.100000 0.000000 0.000000
vn -0.100000 0.000000 0.000000
vn -0.100000 0.000000 0.000000
vn -0.100000 0.000000 0.000000
vn -0.100000 0.000000 0.000000
vn -0.100000 0.000000 0.000000
vn -0.100000 0.000000 0.000000
vn -0.100000 0.000000 0.000000
vn -0.100000 0.000000 0.000000
vn -0.100000 0.000000 0.000000
vn -0.100000 0.000000 0.000000
vn -0.100000 0.000000 0.000000
vn -0.100000 0.000000 0.000000
vn -0.100000 0.000000 0.000000
vn -0.100000 0.000000 0.000000
vn -0.100000 0.000000 0.000000
vn -0.100000 0.000000 0.000000
vn -0.100000 0.000000 0.000000
vn -0.100000 0.000000 0.000000
vn -0.100000 0.000000 0.000000
vn -0.100000 0.000000 0.000000
vn -0.100000 0.000000 0.000000
vn -0.100000 0.000000 0.000000
vn -0.100000 0.000000 0.000000
vn -0.100000 0.000000 0.000000
vn -0.100000 0.000000 0.000000
vn -0.100000 0.000000 0.000000
vn -0.100000 0.000000 0.000000
vn -0.100000 0.000000 0.000000
vn -0.100000 0.000000 0.000000
vn -0.100000 0.000000 0.000000
vn -0.100000 0.000000 0.000000
vn -0.100000 0.000000 0.000000
vn -0.100000 0.000000 0.000000
vn -0.100000 0.000000 0.000000
vn -0.100000 0.000000 0.000000
vn -0.100000 0.000000 0.000000
vn -0.100000 0.000000 0.000000
vn -0.100000 0.000000 0.000000
vn -0.100000 0.000000 0.000000
vn -0.100000 0.000000 0.000000
vn -0.100000 0.000000 0.000000
vn -0.100000 0.000000 0.000000
vn -0.100000 0.000000 0.000000
vn -0.100000 0.000000 0.000000
vn -0.100000 0.000000 0.000000
vn -0.100000 0.000000 0.000000
vn -0.100000 0.000000 0.000000
vn -0.100000 0.000000 0.000000
vn -0.100000 0.000000 0.000000
vn -0.100000 0.000000 0.000000
vn -0.100000 0.000000 0.000000
vn -0.100000 0.000000 0.000000
vn -0.100000 0.000000 0.000000
vn -0.100000 0.000000 0.000000
vn -0.100000 0.000000 0.000000
vn -0.100000 0.000000 0.000000
vn -0.100000 0.000000 0.000000
vn -0.100000 0.000000 0.000000
vn -0.100000 0.000000 0.000000
vn -0.100000 0.000000 0.000000
vn -0.100000 0.000000 0.000000
vn -0.100000 0.000000 0.000000
vn -0.100000 0.000000 0.000000
vn -0.100000 0.000000 0.000000
vn -0.100000 0.000000 0.000000
vn -0.100000 0.000000 0.000000
vn -0.100000 0.000000 0.000000
vn -0.100000 0.000000 0.000000
vn -0.100000 0.000000 0.000000
vn -0.100000 0.000000 0.000000
vn -0.100000 0.000000 0.000000
vn -0.100000 0.000000 0.000000
usemtl 191,191,191
f 231/1/1 273/2/2 232/4/4
f 232/4/4 273/2/2 274/3/3
f 276/6/6 234/7/7 274/5/5
f 274/5/5 234/7/7 232/8/8
f 275/9/9 233/10/10 276/12/12
f 276/12/12 233/10/10 234/11/11
f 247/13/13 289/14/14 248/16/16
f 248/16/16 289/14/14 290/15/15
f 292/18/18 250/19/19 290/17/17
f 290/17/17 250/19/19 248/20/20
f 291/21/21 249/22/22 292/24/24
f 292/24/24 249/22/22 250/23/23
f 239/25/25 281/26/26 240/28/28
f 240/28/28 281/26/26 282/27/27
f 284/30/30 242/31/31 282/29/29
f 282/29/29 242/31/31 240/32/32
f 283/33/33 241/34/34 284/36/36
f 284/36/36 241/34/34 242/35/35
f 235/37/37 277/38/38 236/40/40
f 236/40/40 277/38/38 278/39/39
f 280/42/42 238/43/43 278/41/41
f 278/41/41 238/43/43 236/44/44
f 279/45/45 237/46/46 280/48/48
f 280/48/48 237/46/46 238/47/47
f 243/49/49 285/50/50 244/52/52
f 244/52/52 285/50/50 286/51/51
f 288/54/54 246/55/55 286/53/53
f 286/53/53 246/55/55 244/56/56
f 287/57/57 245/58/58 288/60/60
f 288/60/60 245/58/58 246/59/59
f 255/61/61 297/62/62 256/64/64
f 256/64/64 297/62/62 298/63/63
f 300/66/66 258/67/67 298/65/65
f 298/65/65 258/67/67 256/68/68
f 299/69/69 257/70/70 300/72/72
f 300/72/72 257/70/70 258/71/71
f 259/73/73 301/74/74 260/76/76
f 260/76/76 301/74/74 302/75/75
f 304/78/78 262/79/79 302/77/77
f 302/77/77 262/79/79 260/80/80
f 303/81/81 261/82/82 304/84/84
f 304/84/84 261/82/82 262/83/83
f 251/85/85 293/86/86 252/88/88
f 252/88/88 293/86/86 294/87/87
f 296/90/90 254/91/91 294/89/89
f 294/89/89 254/91/91 252/92/92
f 295/93/93 253/94/94 296/96/96
f 296/96/96 253/94/94 254/95/95
f 13/97/97 51/98/98 14/100/100
f 14/100/100 51/98/98 52/99/99
f 54/102/102 16/103/103 52/101/101
f 52/101/101 16/103/103 14/104/104
f 53/105/105 15/106/106 54/108/108
f 54/108/108 15/106/106 16/107/107
f 37/109/109 75/110/110 38/112/112
f 38/112/112 75/110/110 76/111/111
f 78/114/114 40/115/115 76/113/113
f 76/113/113 40/115/115 38/116/116
f 77/117/117 39/118/118 78/120/120
f 78/120/120 39/118/118 40/119/119
f 41/121/121 79/122/122 42/124/124
f 42/124/124 79/122/122 80/123/123
f 82/126/126 44/127/127 80/125/125
f 80/125/125 44/127/127 42/128/128
f 81/129/129 43/130/130 82/132/132
f 82/132/132 43/130/130 44/131/131
f 33/133/133 71/134/134 34/136/136
f 34/136/136 71/134/134 72/135/135
f 74/138/138 36/139/139 72/137/137
f 72/137/137 36/139/139 34/140/140
f 73/141/141 35/142/142 74/144/144
f 74/144/144 35/142/142 36/143/143
f 25/145/145 63/146/146 26/148/148
f 26/148/148 63/146/146 64/147/147
f 66/150/150 28/151/151 64/149/149
f 64/149/149 28/151/151 26/152/152
f 65/153/153 27/154/154 66/156/156
f 66/156/156 27/154/154 28/155/155
f 17/157/157 55/158/158 18/160/160
f 18/160/160 55/158/158 56/159/159
f 58/162/162 20/163/163 56/161/161
f 56/161/161 20/163/163 18/164/164
f 57/165/165 19/166/166 58/168/168
f 58/168/168 19/166/166 20/167/167
f 21/169/169 59/170/170 22/172/172
f 22/172/172 59/170/170 60/171/171
f 62/174/174 24/175/175 60/173/173
f 60/173/173 24/175/175 22/176/176
f 61/177/177 23/178/178 62/180/180
f 62/180/180 23/178/178 24/179/179
f 29/181/181 67/182/182 30/184/184
f 30/184/184 67/182/182 68/183/183
f 70/186/186 32/187/187 68/185/185
f 68/185/185 32/187/187 30/188/188
f 69/189/189 31/190/190 70/192/192
f 70/192/192 31/190/190 32/191/191
f 163/193/193 199/194/194 164/196/196
f 164/196/196 199/194/194 200/195/195
f 202/198/198 166/199/199 200/197/197
f 200/197/197 166/199/199 164/200/200
f 201/201/201 165/202/202 202/204/204
f 202/204/204 165/202/202 166/203/203
f 91/205/205 127/206/206 92/208/208
f 92/208/208 127/206/206 128/207/207
f 130/210/210 94/211/211 128/209/209
f 128/209/209 94/211/211 92/212/212
f 129/213/213 93/214/214 130/216/216
f 130/216/216 93/214/214 94/215/215
f 183/217/217 219/218/218 184/220/220
f 184/220/220 219/218/218 220/219/219
f 222/222/222 186/223/223 220/221/221
f 220/221/221 186/223/223 184/224/224
f 221/225/225 185/226/226 222/228/228
f 222/228/228 185/226/226 186/227/227
f 225/229/229 189/230/230 226/232/232
f 226/232/232 189/230/230 190/231/231
f 188/234/234 224/235/235 190/233/233
f 190/233/233 224/235/235 226/236/236
f 187/237/237 223/238/238 188/240/240
f 188/240/240 223/238/238 224/239/239
f 179/241/241 215/242/242 180/244/244
f 180/244/244 215/242/242 216/243/243
f 218/246/246 182/247/247 216/245/245
f 216/245/245 182/247/247 180/248/248
f 217/249/249 181/250/250 218/252/252
f 218/252/252 181/250/250 182/251/251
f 103/253/253 139/254/254 104/256/256
f 104/256/256 139/254/254 140/255/255
f 7/258/258 267/259/259 9/257/257
f 9/257/257 267/259/259 269/260/260
f 273/262/262 271/263/263 274/261/261
f 274/261/261 271/263/263 272/264/264
f 274/261/261 272/264/264 276/304/304
f 276/304/304 272/264/264 278/301/301
f 276/304/304 278/301/301 275/303/303
f 275/303/303 278/301/301 277/302/302
f 270/265/265 266/270/270 272/264/264
f 272/264/264 266/270/270 308/271/271
f 272/264/264 308/271/271 306/273/273
f 306/273/273 308/271/271 307/272/272
f 269/266/266 267/267/267 270/265/265
f 270/265/265 267/267/267 268/268/268
f 270/265/265 268/268/268 266/270/270
f 266/270/270 268/268/268 265/269/269
f 305/274/274 304/276/276 306/273/273
f 306/273/273 304/276/276 302/277/277
f 306/273/273 302/277/277 300/280/280
f 300/280/280 302/277/277 299/279/279
f 299/279/279 302/277/277 301/278/278
f 305/274/274 303/275/275 304/276/276
f 300/280/280 298/281/281 306/273/273
f 306/273/273 298/281/281 296/284/284
f 306/273/273 296/284/284 294/285/285
f 297/282/282 295/283/283 298/281/281
f 298/281/281 295/283/283 296/284/284
f 293/286/286 291/287/287 294/285/285
f 294/285/285 291/287/287 292/288/288
f 294/285/285 292/288/288 306/273/273
f 306/273/273 292/288/288 290/289/289
f 306/273/273 290/289/289 288/292/292
f 288/292/292 290/289/289 287/291/291
f 287/291/291 290/289/289 289/290/290
f 306/273/273 288/292/292 272/264/264
f 272/264/264 288/292/292 286/293/293
f 272/264/264 286/293/293 284/296/296
f 284/296/296 286/293/293 283/295/295
f 283/295/295 286/293/293 285/294/294
f 284/296/296 282/297/297 272/264/264
f 272/264/264 282/297/297 280/300/300
f 272/264/264 280/300/300 278/301/301
f 281/298/298 279/299/299 282/297/297
f 282/297/297 279/299/299 280/300/300
f 267/305/305 7/306/306 268/308/308
f 268/308/308 7/306/306 8/307/307
f 268/310/310 8/311/311 265/309/309
f 265/309/309 8/311/311 5/312/312
f 9/313/313 269/314/314 10/316/316
f 10/316/316 269/314/314 270/315/315
f 142/318/318 106/319/319 140/317/317
f 140/317/317 106/319/319 104/320/320
f 272/322/322 12/323/323 270/321/321
f 270/321/321 12/323/323 10/324/324
f 141/325/325 105/326/326 142/328/328
f 142/328/328 105/326/326 106/327/327
f 46/330/330 306/331/331 47/329/329
f 47/329/329 306/331/331 307/332/332
f 15/334/334 17/335/335 16/333/333
f 16/333/333 17/335/335 18/336/336
f 16/333/333 18/336/336 12/373/373
f 12/373/373 18/336/336 20/337/337
f 12/373/373 20/337/337 22/340/340
f 22/340/340 20/337/337 21/339/339
f 21/339/339 20/337/337 19/338/338
f 22/340/340 24/341/341 12/373/373
f 12/373/373 24/341/341 26/344/344
f 12/373/373 26/344/344 28/345/345
f 23/342/342 25/343/343 24/341/341
f 24/341/341 25/343/343 26/344/344
f 27/346/346 29/347/347 28/345/345
f 28/345/345 29/347/347 30/348/348
f 28/345/345 30/348/348 12/373/373
f 12/373/373 30/348/348 46/364/364
f 12/373/373 46/364/364 48/366/366
f 48/366/366 46/364/364 47/365/365
f 30/348/348 32/349/349 46/364/364
f 46/364/364 32/349/349 34/352/352
f 46/364/364 34/352/352 36/353/353
f 31/350/350 33/351/351 32/349/349
f 32/349/349 33/351/351 34/352/352
f 35/354/354 37/355/355 36/353/353
f 36/353/353 37/355/355 38/356/356
f 36/353/353 38/356/356 46/364/364
f 46/364/364 38/356/356 40/357/357
f 46/364/364 40/357/357 42/360/360
f 42/360/360 40/357/357 41/359/359
f 41/359/359 40/357/357 39/358/358
f 42/360/360 44/361/361 46/364/364
f 46/364/364 44/361/361 45/363/363
f 45/363/363 44/361/361 43/362/362
f 48/366/366 6/367/367 12/373/373
f 12/373/373 6/367/367 10/372/372
f 10/372/372 6/367/367 8/369/369
f 10/372/372 8/369/369 9/371/371
f 9/371/371 8/369/369 7/370/370
f 6/367/367 5/368/368 8/369/369
f 16/333/333 12/373/373 14/376/376
f 14/376/376 12/373/373 11/374/374
f 14/376/376 11/374/374 13/375/375
f 3/377/377 1/378/378 4/380/380
f 4/380/380 1/378/378 2/379/379
f 2/382/382 6/383/383 4/381/381
f 4/381/381 6/383/383 48/384/384
f 312/392/392 311/385/385 307/390/390
f 307/390/390 311/385/385 3/386/386
f 307/390/390 3/386/386 47/389/389
f 47/389/389 3/386/386 4/387/387
f 47/389/389 4/387/387 48/388/388
f 307/390/390 308/391/391 312/392/392
f 309/393/393 311/394/394 310/396/396
f 310/396/396 311/394/394 312/395/395
f 2/404/404 1/397/397 5/402/402
f 5/402/402 1/397/397 309/398/398
f 5/402/402 309/398/398 265/401/401
f 265/401/401 309/398/398 310/399/399
f 265/401/401 310/399/399 266/400/400
f 5/402/402 6/403/403 2/404/404
f 266/406/406 310/407/407 308/405/405
f 308/405/405 310/407/407 312/408/408
f 209/409/409 173/410/410 210/412/412
f 210/412/412 173/410/410 174/411/411
f 172/414/414 208/415/415 174/413/413
f 174/413/413 208/415/415 210/416/416
f 171/417/417 207/418/418 172/420/420
f 172/420/420 207/418/418 208/419/419
f 95/421/421 131/422/422 96/424/424
f 96/424/424 131/422/422 132/423/423
f 134/426/426 98/427/427 132/425/425
f 132/425/425 98/427/427 96/428/428
f 133/429/429 97/430/430 134/432/432
f 134/432/432 97/430/430 98/431/431
f 159/433/433 195/434/434 160/436/436
f 160/436/436 195/434/434 196/435/435
f 198/438/438 162/439/439 196/437/437
f 196/437/437 162/439/439 160/440/440
f 197/441/441 161/442/442 198/444/444
f 198/444/444 161/442/442 162/443/443
f 87/445/445 123/446/446 88/448/448
f 88/448/448 123/446/446 124/447/447
f 126/450/450 90/451/451 124/449/449
f 124/449/449 90/451/451 88/452/452
f 125/453/453 89/454/454 126/456/456
f 126/456/456 89/454/454 90/455/455
f 167/457/457 203/458/458 168/460/460
f 168/460/460 203/458/458 204/459/459
f 206/462/462 170/463/463 204/461/461
f 204/461/461 170/463/463 168/464/464
f 205/465/465 169/466/466 206/468/468
f 206/468/468 169/466/466 170/467/467
f 99/469/469 135/470/470 100/472/472
f 100/472/472 135/470/470 136/471/471
f 138/474/474 102/475/475 136/473/473
f 136/473/473 102/475/475 100/476/476
f 137/477/477 101/478/478 138/480/480
f 138/480/480 101/478/478 102/479/479
f 175/481/481 211/482/482 176/484/484
f 176/484/484 211/482/482 212/483/483
f 214/486/486 178/487/487 212/485/485
f 212/485/485 178/487/487 176/488/488
f 213/489/489 177/490/490 214/492/492
f 214/492/492 177/490/490 178/491/491
f 107/493/493 143/494/494 108/496/496
f 108/496/496 143/494/494 144/495/495
f 146/498/498 110/499/499 144/497/497
f 144/497/497 110/499/499 108/500/500
f 145/501/501 109/502/502 146/504/504
f 146/504/504 109/502/502 110/503/503
f 111/505/505 147/506/506 112/508/508
f 112/508/508 147/506/506 148/507/507
f 150/510/510 114/511/511 148/509/509
f 148/509/509 114/511/511 112/512/512
f 149/513/513 113/514/514 150/516/516
f 150/516/516 113/514/514 114/515/515
f 115/517/517 151/518/518 116/520/520
f 116/520/520 151/518/518 152/519/519
f 154/522/522 118/523/523 152/521/521
f 152/521/521 118/523/523 116/524/524
f 153/525/525 117/526/526 154/528/528
f 154/528/528 117/526/526 118/527/527
f 275/530/530 231/561/561 233/529/529
f 233/529/529 231/561/561 195/570/570
f 233/529/529 195/570/570 197/668/668
f 197/668/668 195/570/570 159/571/571
f 197/668/668 159/571/571 161/667/667
f 161/667/667 159/571/571 123/578/578
f 161/667/667 123/578/578 125/620/620
f 125/620/620 123/578/578 87/579/579
f 125/620/620 87/579/579 89/619/619
f 89/619/619 87/579/579 51/582/582
f 89/619/619 51/582/582 53/601/601
f 53/601/601 51/582/582 13/583/583
f 53/601/601 13/583/583 15/604/604
f 15/604/604 13/583/583 1/674/674
f 15/604/604 1/674/674 17/603/603
f 17/603/603 1/674/674 19/608/608
f 17/603/603 19/608/608 57/605/605
f 277/531/531 309/673/673 275/530/530
f 275/530/530 309/673/673 273/564/564
f 275/530/530 273/564/564 231/561/561
f 309/673/673 277/531/531 279/543/543
f 279/543/543 277/531/531 235/532/532
f 279/543/543 235/532/532 237/542/542
f 237/542/542 235/532/532 199/665/665
f 237/542/542 199/665/665 201/613/613
f 201/613/613 199/665/665 163/666/666
f 201/613/613 163/666/666 165/616/616
f 165/616/616 163/666/666 127/617/617
f 165/616/616 127/617/617 129/661/661
f 129/661/661 127/617/617 91/618/618
f 129/661/661 91/618/618 93/664/664
f 93/664/664 91/618/618 55/602/602
f 93/664/664 55/602/602 57/605/605
f 57/605/605 55/602/602 17/603/603
f 199/665/665 235/532/532 197/668/668
f 197/668/668 235/532/532 233/529/529
f 291/534/534 247/545/545 249/533/533
f 249/533/533 247/545/545 211/630/630
f 249/533/533 211/630/630 213/656/656
f 213/656/656 211/630/630 175/631/631
f 213/656/656 175/631/631 177/655/655
f 177/655/655 175/631/631 139/625/625
f 177/655/655 139/625/625 141/649/649
f 141/649/649 139/625/625 103/626/626
f 141/649/649 103/626/626 105/652/652
f 105/652/652 103/626/626 67/610/610
f 105/652/652 67/610/610 69/596/596
f 69/596/596 67/610/610 29/611/611
f 69/596/596 29/611/611 31/595/595
f 31/595/595 29/611/611 3/675/675
f 31/595/595 3/675/675 33/594/594
f 33/594/594 3/675/675 35/587/587
f 33/594/594 35/587/587 73/588/588
f 293/535/535 311/676/676 291/534/534
f 291/534/534 311/676/676 289/548/548
f 291/534/534 289/548/548 247/545/545
f 311/676/676 293/535/535 295/559/559
f 295/559/559 293/535/535 251/536/536
f 295/559/559 251/536/536 253/558/558
f 253/558/558 251/536/536 215/653/653
f 253/558/558 215/653/653 217/660/660
f 217/660/660 215/653/653 179/654/654
f 217/660/660 179/654/654 181/659/659
f 181/659/659 179/654/654 143/650/650
f 181/659/659 143/650/650 145/637/637
f 145/637/637 143/650/650 107/651/651
f 145/637/637 107/651/651 109/640/640
f 109/640/640 107/651/651 71/593/593
f 109/640/640 71/593/593 73/588/588
f 73/588/588 71/593/593 33/594/594
f 215/653/653 251/536/536 213/656/656
f 213/656/656 251/536/536 249/533/533
f 283/538/538 239/541/541 241/537/537
f 241/537/537 239/541/541 203/614/614
f 241/537/537 203/614/614 205/648/648
f 205/648/648 203/614/614 167/615/615
f 205/648/648 167/615/615 169/647/647
f 169/647/647 167/615/615 131/662/662
f 169/647/647 131/662/662 133/641/641
f 133/641/641 131/662/662 95/663/663
f 133/641/641 95/663/663 97/644/644
f 97/644/644 95/663/663 59/606/606
f 97/644/644 59/606/606 61/600/600
f 61/600/600 59/606/606 21/607/607
f 61/600/600 21/607/607 23/599/599
f 23/599/599 21/607/607 3/675/675
f 23/599/599 3/675/675 25/598/598
f 25/598/598 3/675/675 27/612/612
f 25/598/598 27/612/612 65/609/609
f 285/539/539 311/676/676 283/538/538
f 283/538/538 311/676/676 281/544/544
f 283/538/538 281/544/544 239/541/541
f 311/676/676 285/539/539 287/547/547
f 287/547/547 285/539/539 243/540/540
f 287/547/547 243/540/540 245/546/546
f 245/546/546 243/540/540 207/645/645
f 245/546/546 207/645/645 209/629/629
f 209/629/629 207/645/645 171/646/646
f 209/629/629 171/646/646 173/632/632
f 173/632/632 171/646/646 135/642/642
f 173/632/632 135/642/642 137/628/628
f 137/628/628 135/642/642 99/643/643
f 137/628/628 99/643/643 101/627/627
f 101/627/627 99/643/643 63/597/597
f 101/627/627 63/597/597 65/609/609
f 65/609/609 63/597/597 25/598/598
f 207/645/645 243/540/540 205/648/648
f 205/648/648 243/540/540 241/537/537
f 203/614/614 239/541/541 201/613/613
f 201/613/613 239/541/541 237/542/542
f 309/673/673 279/543/543 311/676/676
f 311/676/676 279/543/543 281/544/544
f 211/630/630 247/545/545 209/629/629
f 209/629/629 247/545/545 245/546/546
f 287/547/547 289/548/548 311/676/676
f 299/550/550 255/557/557 257/549/549
f 257/549/549 255/557/557 219/657/657
f 257/549/549 219/657/657 221/621/621
f 221/621/621 219/657/657 183/658/658
f 221/621/621 183/658/658 185/624/624
f 185/624/624 183/658/658 147/638/638
f 185/624/624 147/638/638 149/633/633
f 149/633/633 147/638/638 111/639/639
f 149/633/633 111/639/639 113/636/636
f 113/636/636 111/639/639 75/585/585
f 113/636/636 75/585/585 77/589/589
f 77/589/589 75/585/585 37/586/586
f 77/589/589 37/586/586 39/592/592
f 39/592/592 37/586/586 3/675/675
f 39/592/592 3/675/675 41/591/591
f 41/591/591 3/675/675 43/672/672
f 41/591/591 43/672/672 81/669/669
f 301/551/551 311/676/676 299/550/550
f 299/550/550 311/676/676 297/560/560
f 299/550/550 297/560/560 255/557/557
f 311/676/676 301/551/551 303/554/554
f 303/554/554 301/551/551 259/552/552
f 303/554/554 259/552/552 261/553/553
f 261/553/553 259/552/552 223/622/622
f 261/553/553 223/622/622 225/568/568
f 225/568/568 223/622/622 187/623/623
f 225/568/568 187/623/623 189/567/567
f 189/567/567 187/623/623 151/634/634
f 189/567/567 151/634/634 153/576/576
f 153/576/576 151/634/634 115/635/635
f 153/576/576 115/635/635 117/575/575
f 117/575/575 115/635/635 79/590/590
f 117/575/575 79/590/590 81/669/669
f 81/669/669 79/590/590 41/591/591
f 223/622/622 259/552/552 221/621/621
f 221/621/621 259/552/552 257/549/549
f 303/554/554 305/555/555 311/676/676
f 311/676/676 305/555/555 263/556/556
f 311/676/676 263/556/556 227/565/565
f 227/565/565 263/556/556 225/568/568
f 225/568/568 263/556/556 261/553/553
f 219/657/657 255/557/557 217/660/660
f 217/660/660 255/557/557 253/558/558
f 295/559/559 297/560/560 311/676/676
f 195/570/570 231/561/561 193/569/569
f 193/569/569 231/561/561 229/562/562
f 193/569/569 229/562/562 309/673/673
f 309/673/673 229/562/562 271/563/563
f 309/673/673 271/563/563 273/564/564
f 227/565/565 191/566/566 311/676/676
f 311/676/676 191/566/566 155/573/573
f 311/676/676 155/573/573 3/675/675
f 3/675/675 155/573/573 119/574/574
f 3/675/675 119/574/574 83/670/670
f 83/670/670 119/574/574 81/669/669
f 81/669/669 119/574/574 117/575/575
f 155/573/573 191/566/566 153/576/576
f 153/576/576 191/566/566 189/567/567
f 123/578/578 159/571/571 121/577/577
f 121/577/577 159/571/571 157/572/572
f 121/577/577 157/572/572 1/674/674
f 1/674/674 157/572/572 309/673/673
f 309/673/673 157/572/572 193/569/569
f 51/582/582 87/579/579 49/581/581
f 49/581/581 87/579/579 85/580/580
f 49/581/581 85/580/580 1/674/674
f 1/674/674 85/580/580 121/577/577
f 13/583/583 11/584/584 1/674/674
f 1/674/674 11/584/584 49/581/581
f 37/586/586 35/587/587 3/675/675
f 109/640/640 73/588/588 111/639/639
f 111/639/639 73/588/588 75/585/585
f 113/636/636 77/589/589 115/635/635
f 115/635/635 77/589/589 79/590/590
f 105/652/652 69/596/596 107/651/651
f 107/651/651 69/596/596 71/593/593
f 97/644/644 61/600/600 99/643/643
f 99/643/643 61/600/600 63/597/597
f 89/619/619 53/601/601 91/618/618
f 91/618/618 53/601/601 55/602/602
f 93/664/664 57/605/605 95/663/663
f 95/663/663 57/605/605 59/606/606
f 21/607/607 19/608/608 3/675/675
f 3/675/675 19/608/608 1/674/674
f 101/627/627 65/609/609 103/626/626
f 103/626/626 65/609/609 67/610/610
f 29/611/611 27/612/612 3/675/675
f 131/662/662 167/615/615 129/661/661
f 129/661/661 167/615/615 165/616/616
f 161/667/667 125/620/620 163/666/666
f 163/666/666 125/620/620 127/617/617
f 151/634/634 187/623/623 149/633/633
f 149/633/633 187/623/623 185/624/624
f 173/632/632 137/628/628 175/631/631
f 175/631/631 137/628/628 139/625/625
f 181/659/659 145/637/637 183/658/658
f 183/658/658 145/637/637 147/638/638
f 169/647/647 133/641/641 171/646/646
f 171/646/646 133/641/641 135/642/642
f 177/655/655 141/649/649 179/654/654
f 179/654/654 141/649/649 143/650/650
f 83/670/670 45/671/671 3/675/675
f 3/675/675 45/671/671 43/672/672
f 193/678/678 157/679/679 194/677/677
f 194/677/677 157/679/679 158/680/680
f 194/677/677 158/680/680 272/689/689
f 272/689/689 158/680/680 122/681/681
f 272/689/689 122/681/681 12/688/688
f 12/688/688 122/681/681 86/684/684
f 12/688/688 86/684/684 50/685/685
f 121/682/682 85/683/683 122/681/681
f 122/681/681 85/683/683 86/684/684
f 49/686/686 11/687/687 50/685/685
f 50/685/685 11/687/687 12/688/688
f 194/677/677 272/689/689 230/692/692
f 230/692/692 272/689/689 271/690/690
f 230/692/692 271/690/690 229/691/691
f 263/694/694 305/695/695 264/693/693
f 264/693/693 305/695/695 306/696/696
f 264/693/693 306/696/696 228/708/708
f 228/708/708 306/696/696 192/705/705
f 228/708/708 192/705/705 227/707/707
f 227/707/707 192/705/705 191/706/706
f 306/696/696 46/697/697 192/705/705
f 192/705/705 46/697/697 156/704/704
f 156/704/704 46/697/697 120/701/701
f 156/704/704 120/701/701 155/703/703
f 155/703/703 120/701/701 119/702/702
f 120/701/701 46/697/697 84/700/700
f 84/700/700 46/697/697 45/698/698
f 84/700/700 45/698/698 83/699/699
f 231/709/709 232/710/710 229/744/744
f 229/744/744 232/710/710 230/743/743
f 230/743/743 232/710/710 234/711/711
f 230/743/743 234/711/711 236/714/714
f 236/714/714 234/711/711 235/713/713
f 235/713/713 234/711/711 233/712/712
f 236/714/714 238/715/715 230/743/743
f 230/743/743 238/715/715 240/718/718
f 230/743/743 240/718/718 242/719/719
f 237/716/716 239/717/717 238/715/715
f 238/715/715 239/717/717 240/718/718
f 241/720/720 243/721/721 242/719/719
f 242/719/719 243/721/721 244/722/722
f 242/719/719 244/722/722 230/743/743
f 230/743/743 244/722/722 246/723/723
f 230/743/743 246/723/723 248/726/726
f 248/726/726 246/723/723 247/725/725
f 247/725/725 246/723/723 245/724/724
f 230/743/743 248/726/726 264/742/742
f 264/742/742 248/726/726 250/727/727
f 264/742/742 250/727/727 252/730/730
f 252/730/730 250/727/727 251/729/729
f 251/729/729 250/727/727 249/728/728
f 252/730/730 254/731/731 264/742/742
f 264/742/742 254/731/731 256/734/734
f 264/742/742 256/734/734 258/735/735
f 253/732/732 255/733/733 254/731/731
f 254/731/731 255/733/733 256/734/734
f 257/736/736 259/737/737 258/735/735
f 258/735/735 259/737/737 260/738/738
f 258/735/735 260/738/738 264/742/742
f 264/742/742 260/738/738 262/739/739
f 264/742/742 262/739/739 263/741/741
f 263/741/741 262/739/739 261/740/740
f 161/780/780 163/745/745 162/779/779
f 162/779/779 163/745/745 164/746/746
f 162/779/779 164/746/746 158/775/775
f 158/775/775 164/746/746 166/747/747
f 158/775/775 166/747/747 168/750/750
f 168/750/750 166/747/747 167/749/749
f 167/749/749 166/747/747 165/748/748
f 168/750/750 170/751/751 158/775/775
f 158/775/775 170/751/751 172/754/754
f 158/775/775 172/754/754 174/755/755
f 169/752/752 171/753/753 170/751/751
f 170/751/751 171/753/753 172/754/754
f 173/756/756 175/757/757 174/755/755
f 174/755/755 175/757/757 176/758/758
f 174/755/755 176/758/758 158/775/775
f 158/775/775 176/758/758 192/774/774
f 192/774/774 176/758/758 178/759/759
f 192/774/774 178/759/759 180/762/762
f 180/762/762 178/759/759 179/761/761
f 179/761/761 178/759/759 177/760/760
f 180/762/762 182/763/763 192/774/774
f 192/774/774 182/763/763 184/766/766
f 192/774/774 184/766/766 186/767/767
f 181/764/764 183/765/765 182/763/763
f 182/763/763 183/765/765 184/766/766
f 185/768/768 187/769/769 186/767/767
f 186/767/767 187/769/769 188/770/770
f 186/767/767 188/770/770 192/774/774
f 192/774/774 188/770/770 190/771/771
f 192/774/774 190/771/771 191/773/773
f 191/773/773 190/771/771 189/772/772
f 162/779/779 158/775/775 160/778/778
f 160/778/778 158/775/775 157/776/776
f 160/778/778 157/776/776 159/777/777
f 89/816/816 91/781/781 90/815/815
f 90/815/815 91/781/781 92/782/782
f 90/815/815 92/782/782 86/811/811
f 86/811/811 92/782/782 94/783/783
f 86/811/811 94/783/783 96/786/786
f 96/786/786 94/783/783 95/785/785
f 95/785/785 94/783/783 93/784/784
f 96/786/786 98/787/787 86/811/811
f 86/811/811 98/787/787 100/790/790
f 86/811/811 100/790/790 102/791/791
f 97/788/788 99/789/789 98/787/787
f 98/787/787 99/789/789 100/790/790
f 101/792/792 103/793/793 102/791/791
f 102/791/791 103/793/793 104/794/794
f 102/791/791 104/794/794 86/811/811
f 86/811/811 104/794/794 120/810/810
f 120/810/810 104/794/794 106/795/795
f 120/810/810 106/795/795 108/798/798
f 108/798/798 106/795/795 107/797/797
f 107/797/797 106/795/795 105/796/796
f 108/798/798 110/799/799 120/810/810
f 120/810/810 110/799/799 112/802/802
f 120/810/810 112/802/802 114/803/803
f 109/800/800 111/801/801 110/799/799
f 110/799/799 111/801/801 112/802/802
f 113/804/804 115/805/805 114/803/803
f 114/803/803 115/805/805 116/806/806
f 114/803/803 116/806/806 120/810/810
f 120/810/810 116/806/806 118/807/807
f 120/810/810 118/807/807 119/809/809
f 119/809/809 118/807/807 117/808/808
f 90/815/815 86/811/811 88/814/814
f 88/814/814 86/811/811 85/812/812
f 88/814/814 85/812/812 87/813/813
f 120/817/817 84/818/818 86/820/820
f 86/820/820 84/818/818 50/819/819
f 192/821/821 156/822/822 158/824/824
f 158/824/824 156/822/822 122/823/823
f 264/825/825 228/826/826 230/828/828
f 230/828/828 228/826/826 194/827/827
f 51/830/830 49/831/831 52/829/829
f 52/829/829 49/831/831 50/832/832
f 52/829/829 50/832/832 54/864/864
f 54/864/864 50/832/832 56/861/861
f 54/864/864 56/861/861 53/863/863
f 53/863/863 56/861/861 55/862/862
f 84/833/833 66/852/852 50/832/832
f 50/832/832 66/852/852 64/853/853
f 50/832/832 64/853/853 62/856/856
f 62/856/856 64/853/853 61/855/855
f 61/855/855 64/853/853 63/854/854
f 83/834/834 82/836/836 84/833/833
f 84/833/833 82/836/836 80/837/837
f 84/833/833 80/837/837 78/840/840
f 78/840/840 80/837/837 77/839/839
f 77/839/839 80/837/837 79/838/838
f 83/834/834 81/835/835 82/836/836
f 78/840/840 76/841/841 84/833/833
f 84/833/833 76/841/841 74/844/844
f 84/833/833 74/844/844 72/845/845
f 75/842/842 73/843/843 76/841/841
f 76/841/841 73/843/843 74/844/844
f 71/846/846 69/847/847 72/845/845
f 72/845/845 69/847/847 70/848/848
f 72/845/845 70/848/848 84/833/833
f 84/833/833 70/848/848 68/849/849
f 84/833/833 68/849/849 66/852/852
f 66/852/852 68/849/849 65/851/851
f 65/851/851 68/849/849 67/850/850
f 62/856/856 60/857/857 50/832/832
f 50/832/832 60/857/857 58/860/860
f 50/832/832 58/860/860 56/861/861
f 59/858/858 57/859/859 60/857/857
f 60/857/857 57/859/859 58/860/860
f 127/866/866 125/867/867 128/865/865
f 128/865/865 125/867/867 126/868/868
f 128/865/865 126/868/868 122/872/872
f 122/872/872 126/868/868 124/869/869
f 122/872/872 124/869/869 121/871/871
f 121/871/871 124/869/869 123/870/870
f 156/873/873 138/892/892 122/872/872
f 122/872/872 138/892/892 136/893/893
f 122/872/872 136/893/893 134/896/896
f 134/896/896 136/893/893 133/895/895
f 133/895/895 136/893/893 135/894/894
f 155/874/874 154/876/876 156/873/873
f 156/873/873 154/876/876 152/877/877
f 156/873/873 152/877/877 150/880/880
f 150/880/880 152/877/877 149/879/879
f 149/879/879 152/877/877 151/878/878
f 155/874/874 153/875/875 154/876/876
f 150/880/880 148/881/881 156/873/873
f 156/873/873 148/881/881 146/884/884
f 156/873/873 146/884/884 144/885/885
f 147/882/882 145/883/883 148/881/881
f 148/881/881 145/883/883 146/884/884
f 143/886/886 141/887/887 144/885/885
f 144/885/885 141/887/887 142/888/888
f 144/885/885 142/888/888 156/873/873
f 156/873/873 142/888/888 140/889/889
f 156/873/873 140/889/889 138/892/892
f 138/892/892 140/889/889 137/891/891
f 137/891/891 140/889/889 139/890/890
f 134/896/896 132/897/897 122/872/872
f 122/872/872 132/897/897 130/900/900
f 122/872/872 130/900/900 128/865/865
f 131/898/898 129/899/899 132/897/897
f 132/897/897 129/899/899 130/900/900
f 199/902/902 197/903/903 200/901/901
f 200/901/901 197/903/903 198/904/904
f 200/901/901 198/904/904 194/908/908
f 194/908/908 198/904/904 196/905/905
f 194/908/908 196/905/905 193/907/907
f 193/907/907 196/905/905 195/906/906
f 228/909/909 210/928/928 194/908/908
f 194/908/908 210/928/928 208/929/929
f 194/908/908 208/929/929 206/932/932
f 206/932/932 208/929/929 205/931/931
f 205/931/931 208/929/929 207/930/930
f 227/910/910 226/912/912 228/909/909
f 228/909/909 226/912/912 224/913/913
f 228/909/909 224/913/913 222/916/916
f 222/916/916 224/913/913 221/915/915
f 221/915/915 224/913/913 223/914/914
f 227/910/910 225/911/911 226/912/912
f 222/916/916 220/917/917 228/909/909
f 228/909/909 220/917/917 218/920/920
f 228/909/909 218/920/920 216/921/921
f 219/918/918 217/919/919 220/917/917
f 220/917/917 217/919/919 218/920/920
f 215/922/922 213/923/923 216/921/921
f 216/921/921 213/923/923 214/924/924
f 216/921/921 214/924/924 228/909/909
f 228/909/909 214/924/924 212/925/925
f 228/909/909 212/925/925 210/928/928
f 210/928/928 212/925/925 209/927/927
f 209/927/927 212/925/925 211/926/926
f 206/932/932 204/933/933 194/908/908
f 194/908/908 204/933/933 202/936/936
f 194/908/908 202/936/936 200/901/901
f 203/934/934 201/935/935 204/933/933
f 204/933/933 201/935/935 202/936/936
# 312 vertices
# 936 texture params
# 936 normals
# 764 facets

# 1 groups
