# WaveFront *.obj file (generated by Autodesk ATF)

mtllib 看板.mtl

g ソリッド1

v -20.225000 19.883090 -3.000000
v -20.225000 19.883090 3.000000
v -19.857093 18.428909 -3.000000
v -19.857093 18.428909 3.000000
v -15.750000 0.000000 -1.000000
v -15.750000 0.000000 1.000000
v -15.750000 9.734000 1.000000
v -15.750000 9.734000 2.500000
v -15.750000 11.234000 1.000000
v -15.750000 11.234000 2.500000
v -15.750000 19.468000 -1.000000
v -15.750000 19.468000 1.000000
v 0.000000 23.452737 -3.000000
v 0.000000 23.452737 -1.000000
v 0.000000 23.452737 1.000000
v 0.000000 23.452737 3.000000
v 0.000000 25.000000 -3.000000
v 0.000000 25.000000 3.000000
v 15.750000 0.000000 -1.000000
v 15.750000 0.000000 1.000000
v 15.750000 9.734000 1.000000
v 15.750000 9.734000 2.500000
v 15.750000 11.234000 1.000000
v 15.750000 11.234000 2.500000
v 15.750000 19.468000 -1.000000
v 15.750000 19.468000 1.000000
v 19.857093 18.428909 -3.000000
v 19.857093 18.428909 3.000000
v 20.225000 19.883090 -3.000000
v 20.225000 19.883090 3.000000
vt 0.000000 0.000000 0.000000
vt 3.150000 0.000000 0.000000
vt 3.150000 0.150000 0.000000
vt 0.000000 0.150000 0.000000
vt 0.000000 0.000000 0.000000
vt 3.150000 0.000000 0.000000
vt 3.150000 0.150000 0.000000
vt 0.000000 0.150000 0.000000
vt -1.575000 -0.075000 0.000000
vt 1.575000 -0.075000 0.000000
vt 1.575000 0.075000 0.000000
vt -1.575000 0.075000 0.000000
vt 1.575000 -0.199237 0.000000
vt -1.575000 -0.199237 0.000000
vt -1.575000 -1.172637 0.000000
vt 1.575000 -1.172637 0.000000
vt 1.575000 -1.172637 0.000000
vt 1.575000 0.774163 0.000000
vt 0.000000 1.172637 0.000000
vt -1.575000 0.774163 0.000000
vt -1.575000 -1.172637 0.000000
vt 1.946800 -0.100000 0.000000
vt 1.946800 0.100000 0.000000
vt 1.123400 0.100000 0.000000
vt 1.123400 0.250000 0.000000
vt 0.973400 0.250000 0.000000
vt 0.973400 0.100000 0.000000
vt 0.000000 0.100000 0.000000
vt 0.000000 -0.100000 0.000000
vt 3.150000 -0.100000 0.000000
vt 3.150000 0.100000 0.000000
vt 0.000000 0.100000 0.000000
vt 0.000000 -0.100000 0.000000
vt 1.946800 -0.100000 0.000000
vt 1.946800 0.100000 0.000000
vt 0.973400 0.100000 0.000000
vt 0.973400 0.250000 0.000000
vt 0.823400 0.250000 0.000000
vt 0.823400 0.100000 0.000000
vt 0.000000 0.100000 0.000000
vt 0.000000 -0.100000 0.000000
vt -1.575000 -0.049237 0.000000
vt 1.575000 -0.049237 0.000000
vt 1.575000 0.774163 0.000000
vt 0.000000 1.172637 0.000000
vt -1.575000 0.774163 0.000000
vt 0.000000 0.100000 0.000000
vt 1.624625 0.100000 0.000000
vt 1.624625 -0.100000 0.000000
vt 0.000000 -0.100000 0.000000
vt 0.000000 -0.300000 0.000000
vt 2.048275 -0.300000 0.000000
vt 2.048275 0.300000 0.000000
vt 0.000000 0.300000 0.000000
vt 0.000000 0.328555 0.000000
vt -2.022500 -0.183136 0.000000
vt -1.985709 -0.328555 0.000000
vt 0.000000 0.173828 0.000000
vt 1.985709 -0.328555 0.000000
vt 2.022500 -0.183136 0.000000
vt 0.150000 -0.300000 0.000000
vt 0.150000 0.300000 0.000000
vt 0.000000 0.300000 0.000000
vt 0.000000 -0.300000 0.000000
vt 0.423650 0.100000 0.000000
vt 2.048275 0.100000 0.000000
vt 2.048275 0.300000 0.000000
vt 0.000000 0.300000 0.000000
vt 0.000000 -0.300000 0.000000
vt 2.048275 -0.300000 0.000000
vt 2.048275 -0.100000 0.000000
vt 0.423650 -0.100000 0.000000
vt 0.150000 -0.300000 0.000000
vt 0.150000 0.300000 0.000000
vt 0.000000 0.300000 0.000000
vt 0.000000 -0.300000 0.000000
vt 2.086225 -0.300000 0.000000
vt 2.086225 0.300000 0.000000
vt 0.000000 0.300000 0.000000
vt 0.000000 -0.300000 0.000000
vt 2.086225 -0.300000 0.000000
vt 2.086225 0.300000 0.000000
vt 0.000000 0.300000 0.000000
vt 0.000000 -0.300000 0.000000
vt 2.022500 -0.183136 0.000000
vt 0.000000 0.328555 0.000000
vt -2.022500 -0.183136 0.000000
vt -1.985709 -0.328555 0.000000
vt 0.000000 0.173828 0.000000
vt 1.985709 -0.328555 0.000000
vn 0.000000 0.100000 0.000000
vn 0.000000 0.100000 0.000000
vn 0.000000 0.100000 0.000000
vn 0.000000 0.100000 0.000000
vn 0.000000 -0.100000 0.000000
vn 0.000000 -0.100000 0.000000
vn 0.000000 -0.100000 0.000000
vn 0.000000 -0.100000 0.000000
vn 0.000000 0.000000 0.100000
vn 0.000000 0.000000 0.100000
vn 0.000000 0.000000 0.100000
vn 0.000000 0.000000 0.100000
vn 0.000000 0.000000 0.100000
vn 0.000000 0.000000 0.100000
vn 0.000000 0.000000 0.100000
vn 0.000000 0.000000 0.100000
vn 0.000000 0.000000 -0.100000
vn 0.000000 0.000000 -0.100000
vn 0.000000 0.000000 -0.100000
vn 0.000000 0.000000 -0.100000
vn 0.000000 0.000000 -0.100000
vn 0.100000 0.000000 0.000000
vn 0.100000 0.000000 0.000000
vn 0.100000 0.000000 0.000000
vn 0.100000 0.000000 0.000000
vn 0.100000 0.000000 0.000000
vn 0.100000 0.000000 0.000000
vn 0.100000 0.000000 0.000000
vn 0.100000 0.000000 0.000000
vn 0.000000 -0.100000 0.000000
vn 0.000000 -0.100000 0.000000
vn 0.000000 -0.100000 0.000000
vn 0.000000 -0.100000 0.000000
vn -0.100000 0.000000 0.000000
vn -0.100000 0.000000 0.000000
vn -0.100000 0.000000 0.000000
vn -0.100000 0.000000 0.000000
vn -0.100000 0.000000 0.000000
vn -0.100000 0.000000 0.000000
vn -0.100000 0.000000 0.000000
vn -0.100000 0.000000 0.000000
vn 0.000000 0.000000 0.100000
vn 0.000000 0.000000 0.100000
vn 0.000000 0.000000 0.100000
vn 0.000000 0.000000 0.100000
vn 0.000000 0.000000 0.100000
vn -0.024527 -0.096945 0.000000
vn -0.024527 -0.096945 0.000000
vn -0.024527 -0.096945 0.000000
vn -0.024527 -0.096945 0.000000
vn -0.024527 -0.096945 0.000000
vn -0.024527 -0.096945 0.000000
vn -0.024527 -0.096945 0.000000
vn -0.024527 -0.096945 0.000000
vn 0.000000 0.000000 -0.100000
vn 0.000000 0.000000 -0.100000
vn 0.000000 0.000000 -0.100000
vn 0.000000 0.000000 -0.100000
vn 0.000000 0.000000 -0.100000
vn 0.000000 0.000000 -0.100000
vn 0.096945 -0.024527 0.000000
vn 0.096945 -0.024527 0.000000
vn 0.096945 -0.024527 0.000000
vn 0.096945 -0.024527 0.000000
vn 0.024527 -0.096945 0.000000
vn 0.024527 -0.096945 0.000000
vn 0.024527 -0.096945 0.000000
vn 0.024527 -0.096945 0.000000
vn 0.024527 -0.096945 0.000000
vn 0.024527 -0.096945 0.000000
vn 0.024527 -0.096945 0.000000
vn 0.024527 -0.096945 0.000000
vn -0.096945 -0.024527 0.000000
vn -0.096945 -0.024527 0.000000
vn -0.096945 -0.024527 0.000000
vn -0.096945 -0.024527 0.000000
vn -0.024527 0.096945 0.000000
vn -0.024527 0.096945 0.000000
vn -0.024527 0.096945 0.000000
vn -0.024527 0.096945 0.000000
vn 0.024527 0.096945 0.000000
vn 0.024527 0.096945 0.000000
vn 0.024527 0.096945 0.000000
vn 0.024527 0.096945 0.000000
vn 0.000000 0.000000 0.100000
vn 0.000000 0.000000 0.100000
vn 0.000000 0.000000 0.100000
vn 0.000000 0.000000 0.100000
vn 0.000000 0.000000 0.100000
vn 0.000000 0.000000 0.100000
usemtl 231,214,172
f 23/1/1 9/2/2 24/4/4
f 24/4/4 9/2/2 10/3/3
f 7/5/5 21/6/6 8/8/8
f 8/8/8 21/6/6 22/7/7
f 8/9/9 22/10/10 10/12/12
f 10/12/12 22/10/10 24/11/11
f 21/13/13 7/14/14 20/16/16
f 20/16/16 7/14/14 6/15/15
f 11/18/18 14/19/19 5/17/17
f 5/17/17 14/19/19 19/21/21
f 19/21/21 14/19/19 25/20/20
f 26/23/23 23/24/24 25/22/22
f 25/22/22 23/24/24 21/27/27
f 25/22/22 21/27/27 19/29/29
f 19/29/29 21/27/27 20/28/28
f 24/25/25 22/26/26 23/24/24
f 23/24/24 22/26/26 21/27/27
f 20/31/31 6/32/32 19/30/30
f 19/30/30 6/32/32 5/33/33
f 6/35/35 7/36/36 5/34/34
f 5/34/34 7/36/36 11/41/41
f 11/41/41 7/36/36 9/39/39
f 11/41/41 9/39/39 12/40/40
f 8/37/37 10/38/38 7/36/36
f 7/36/36 10/38/38 9/39/39
f 9/42/42 23/43/43 12/46/46
f 12/46/46 23/43/43 26/44/44
f 12/46/46 26/44/44 15/45/45
f 15/47/47 26/48/48 16/54/54
f 16/54/54 26/48/48 28/53/53
f 28/53/53 26/48/48 27/52/52
f 27/52/52 26/48/48 25/49/49
f 27/52/52 25/49/49 13/51/51
f 13/51/51 25/49/49 14/50/50
f 1/60/60 17/55/55 13/58/58
f 13/58/58 17/55/55 29/56/56
f 13/58/58 29/56/56 27/57/57
f 13/58/58 3/59/59 1/60/60
f 30/62/62 28/63/63 29/61/61
f 29/61/61 28/63/63 27/64/64
f 15/66/66 16/67/67 12/65/65
f 12/65/65 16/67/67 4/68/68
f 12/65/65 4/68/68 3/69/69
f 12/65/65 3/69/69 11/72/72
f 11/72/72 3/69/69 13/70/70
f 11/72/72 13/70/70 14/71/71
f 4/74/74 2/75/75 3/73/73
f 3/73/73 2/75/75 1/76/76
f 2/78/78 18/79/79 1/77/77
f 1/77/77 18/79/79 17/80/80
f 18/82/82 30/83/83 17/81/81
f 17/81/81 30/83/83 29/84/84
f 28/90/90 30/85/85 16/89/89
f 16/89/89 30/85/85 18/86/86
f 16/89/89 18/86/86 2/87/87
f 2/87/87 4/88/88 16/89/89
# 30 vertices
# 90 texture params
# 90 normals
# 56 facets

# 1 groups
