# WaveFront *.obj file (generated by Autodesk ATF)

mtllib Part1.mtl

g ソリッド1

v -6.989371 0.411289 -0.385614
v -6.989371 0.411289 0.385614
v -6.989371 9.911289 -0.385614
v -6.989371 9.911289 0.385614
v -6.904529 0.411289 -1.152162
v -6.904529 0.411289 1.152162
v -6.904529 9.911289 -1.152162
v -6.904529 9.911289 1.152162
v -6.750000 0.822857 0.000000
v -6.750000 9.911289 0.000000
v -6.735876 0.411289 -1.904724
v -6.735876 0.411289 1.904724
v -6.735876 9.911289 -1.904724
v -6.735876 9.911289 1.904724
v -6.707557 0.822857 -0.755760
v -6.707557 0.822857 0.755760
v -6.707557 9.911289 -0.755760
v -6.707557 9.911289 0.755760
v -6.580763 0.822857 -1.502016
v -6.580763 0.822857 1.502016
v -6.580763 9.911289 -1.502016
v -6.580763 9.911289 1.502016
v -6.485459 0.411289 -2.634166
v -6.485459 0.411289 2.634166
v -6.485459 9.911289 -2.634166
v -6.485459 9.911289 2.634166
v -6.371213 0.822857 -2.229384
v -6.371213 0.822857 2.229384
v -6.371213 9.911289 -2.229384
v -6.371213 9.911289 2.229384
v -6.156316 0.411289 -3.331632
v -6.156316 0.411289 3.331632
v -6.156316 9.911289 -3.331632
v -6.156316 9.911289 3.331632
v -6.081540 0.822857 -2.928715
v -6.081540 0.822857 2.928715
v -6.081540 9.911289 -2.928715
v -6.081540 9.911289 2.928715
v -5.752445 0.411289 -3.988656
v -5.752445 0.411289 3.988656
v -5.752445 9.911289 -3.988656
v -5.752445 9.911289 3.988656
v -5.715388 0.822857 -3.591217
v -5.715388 0.822857 3.591217
v -5.715388 9.911289 -3.591217
v -5.715388 9.911289 3.591217
v -5.278746 0.411289 -4.597264
v -5.278746 0.411289 4.597264
v -5.278746 9.911289 -4.597264
v -5.278746 9.911289 4.597264
v -5.277362 0.822857 -4.208556
v -5.277362 0.822857 4.208556
v -5.277362 9.911289 -4.208556
v -5.277362 9.911289 4.208556
v -4.772971 0.822857 -4.772971
v -4.772971 0.822857 4.772971
v -4.772971 9.911289 -4.772971
v -4.772971 9.911289 4.772971
v -4.740971 0.411289 -5.150067
v -4.740971 0.411289 5.150067
v -4.740971 9.911289 -5.150067
v -4.740971 9.911289 5.150067
v -4.208556 0.822857 -5.277362
v -4.208556 0.822857 5.277362
v -4.208556 9.911289 -5.277362
v -4.208556 9.911289 5.277362
v -4.145647 0.411289 -5.640356
v -4.145647 0.411289 5.640356
v -4.145647 9.911289 -5.640356
v -4.145647 9.911289 5.640356
v -3.591217 0.822857 -5.715388
v -3.591217 0.822857 5.715388
v -3.591217 9.911289 -5.715388
v -3.591217 9.911289 5.715388
v -3.500000 0.411289 -6.062178
v -3.500000 0.411289 6.062178
v -3.500000 9.911289 -6.062178
v -3.500000 9.911289 6.062178
v -2.928715 0.822857 -6.081540
v -2.928715 0.822857 6.081540
v -2.928715 9.911289 -6.081540
v -2.928715 9.911289 6.081540
v -2.811868 0.411289 -6.410413
v -2.811868 0.411289 6.410413
v -2.811868 9.911289 -6.410413
v -2.811868 9.911289 6.410413
v -2.229384 0.822857 -6.371213
v -2.229384 0.822857 6.371213
v -2.229384 9.911289 -6.371213
v -2.229384 9.911289 6.371213
v -2.089604 0.411289 -6.680835
v -2.089604 0.411289 6.680835
v -2.089604 9.911289 -6.680835
v -2.089604 9.911289 6.680835
v -1.502016 0.822857 -6.580763
v -1.502016 0.822857 6.580763
v -1.502016 9.911289 -6.580763
v -1.502016 9.911289 6.580763
v -1.341974 0.411289 -6.870161
v -1.341974 0.411289 6.870161
v -1.341974 9.911289 -6.870161
v -1.341974 9.911289 6.870161
v -0.755760 0.822857 -6.707557
v -0.755760 0.822857 6.707557
v -0.755760 9.911289 -6.707557
v -0.755760 9.911289 6.707557
v -0.578055 0.411289 -6.976091
v -0.578055 0.411289 6.976091
v -0.578055 9.911289 -6.976091
v -0.578055 9.911289 6.976091
v 0.000000 0.822857 -6.750000
v 0.000000 0.822857 6.750000
v 0.000000 9.911289 -6.750000
v 0.000000 9.911289 6.750000
v 0.192880 0.411289 -6.997342
v 0.192880 0.411289 6.997342
v 0.192880 9.911289 -6.997342
v 0.192880 9.911289 6.997342
v 0.755760 0.822857 -6.707557
v 0.755760 0.822857 6.707557
v 0.755760 9.911289 -6.707557
v 0.755760 9.911289 6.707557
v 0.961475 0.411289 -6.933655
v 0.961475 0.411289 6.933655
v 0.961475 9.911289 -6.933655
v 0.961475 9.911289 6.933655
v 1.502016 0.822857 -6.580763
v 1.502016 0.822857 6.580763
v 1.502016 9.911289 -6.580763
v 1.502016 9.911289 6.580763
v 1.718398 0.411289 -6.785802
v 1.718398 0.411289 6.785802
v 1.718398 9.911289 -6.785802
v 1.718398 9.911289 6.785802
v 2.229384 0.822857 -6.371213
v 2.229384 0.822857 6.371213
v 2.229384 9.911289 -6.371213
v 2.229384 9.911289 6.371213
v 2.454463 0.411289 -6.555579
v 2.454463 0.411289 6.555579
v 2.454463 9.911289 -6.555579
v 2.454463 9.911289 6.555579
v 2.928715 0.822857 -6.081540
v 2.928715 0.822857 6.081540
v 2.928715 9.911289 -6.081540
v 2.928715 9.911289 6.081540
v 3.160734 0.411289 -6.245779
v 3.160734 0.411289 6.245779
v 3.160734 9.911289 -6.245779
v 3.160734 9.911289 6.245779
v 3.591217 0.822857 -5.715388
v 3.591217 0.822857 5.715388
v 3.591217 9.911289 -5.715388
v 3.591217 9.911289 5.715388
v 3.828637 0.411289 -5.860165
v 3.828637 0.411289 5.860165
v 3.828637 9.911289 -5.860165
v 3.828637 9.911289 5.860165
v 4.208556 0.822857 -5.277362
v 4.208556 0.822857 5.277362
v 4.208556 9.911289 -5.277362
v 4.208556 9.911289 5.277362
v 4.450066 0.411289 -5.403417
v 4.450066 0.411289 5.403417
v 4.450066 9.911289 -5.403417
v 4.450066 9.911289 5.403417
v 4.772971 0.822857 -4.772971
v 4.772971 0.822857 4.772971
v 4.772971 9.911289 -4.772971
v 4.772971 9.911289 4.772971
v 5.017478 0.411289 -4.881078
v 5.017478 0.411289 4.881078
v 5.017478 9.911289 -4.881078
v 5.017478 9.911289 4.881078
v 5.277362 0.822857 -4.208556
v 5.277362 0.822857 4.208556
v 5.277362 9.911289 -4.208556
v 5.277362 9.911289 4.208556
v 5.523984 0.411289 -4.299489
v 5.523984 0.411289 4.299489
v 5.523984 9.911289 -4.299489
v 5.523984 9.911289 4.299489
v 5.715388 0.822857 -3.591217
v 5.715388 0.822857 3.591217
v 5.715388 9.911289 -3.591217
v 5.715388 9.911289 3.591217
v 5.963436 0.411289 -3.665710
v 5.963436 0.411289 3.665710
v 5.963436 9.911289 -3.665710
v 5.963436 9.911289 3.665710
v 6.081540 0.822857 -2.928715
v 6.081540 0.822857 2.928715
v 6.081540 9.911289 -2.928715
v 6.081540 9.911289 2.928715
v 6.330500 0.411289 -2.987435
v 6.330500 0.411289 2.987435
v 6.330500 9.911289 -2.987435
v 6.330500 9.911289 2.987435
v 6.371213 0.822857 -2.229384
v 6.371213 0.822857 2.229384
v 6.371213 9.911289 -2.229384
v 6.371213 9.911289 2.229384
v 6.580763 0.822857 -1.502016
v 6.580763 0.822857 1.502016
v 6.580763 9.911289 -1.502016
v 6.580763 9.911289 1.502016
v 6.620721 0.411289 -2.272896
v 6.620721 0.411289 2.272896
v 6.620721 9.911289 -2.272896
v 6.620721 9.911289 2.272896
v 6.707557 0.822857 -0.755760
v 6.707557 0.822857 0.755760
v 6.707557 9.911289 -0.755760
v 6.707557 9.911289 0.755760
v 6.750000 0.822857 0.000000
v 6.750000 9.911289 0.000000
v 6.830575 0.411289 -1.530768
v 6.830575 0.411289 1.530768
v 6.830575 9.911289 -1.530768
v 6.830575 9.911289 1.530768
v 6.957515 0.411289 -0.770058
v 6.957515 0.411289 0.770058
v 6.957515 9.911289 -0.770058
v 6.957515 9.911289 0.770058
v 7.000000 0.411289 0.000000
v 7.000000 9.911289 0.000000
vt -0.454422 0.000000 0.000000
vt -0.454422 -0.075735 0.000000
vt -0.454422 -0.151470 0.000000
vt -0.454422 -0.227204 0.000000
vt -0.454422 -0.302939 0.000000
vt -0.454422 -0.378674 0.000000
vt -0.454422 -0.454409 0.000000
vt -0.454422 -0.530144 0.000000
vt -0.454422 -0.605879 0.000000
vt -0.454422 -0.681613 0.000000
vt -0.454422 -0.757348 0.000000
vt -0.454422 -0.833083 0.000000
vt -0.454422 -0.908818 0.000000
vt -0.454422 -0.984553 0.000000
vt -0.454422 -1.060288 0.000000
vt -0.454422 -1.136022 0.000000
vt -0.454422 -1.211757 0.000000
vt -0.454422 -1.287492 0.000000
vt -0.454422 -1.363227 0.000000
vt -0.454422 -1.438962 0.000000
vt -0.454422 -1.514696 0.000000
vt -0.454422 -1.590431 0.000000
vt -0.454422 -1.666166 0.000000
vt -0.454422 -1.741901 0.000000
vt -0.454422 -1.817636 0.000000
vt -0.454422 -1.893371 0.000000
vt -0.454422 -1.969105 0.000000
vt -0.454422 -2.044840 0.000000
vt -0.454422 2.120575 0.000000
vt -0.454422 2.044840 0.000000
vt -0.454422 1.969105 0.000000
vt -0.454422 1.893371 0.000000
vt -0.454422 1.817636 0.000000
vt -0.454422 1.741901 0.000000
vt -0.454422 1.666166 0.000000
vt -0.454422 1.590431 0.000000
vt -0.454422 1.514696 0.000000
vt -0.454422 1.438962 0.000000
vt -0.454422 1.363227 0.000000
vt -0.454422 1.287492 0.000000
vt -0.454422 1.211757 0.000000
vt -0.454422 1.136022 0.000000
vt -0.454422 1.060288 0.000000
vt -0.454422 0.984553 0.000000
vt -0.454422 0.908818 0.000000
vt -0.454422 0.833083 0.000000
vt -0.454422 0.757348 0.000000
vt -0.454422 0.681613 0.000000
vt -0.454422 0.605879 0.000000
vt -0.454422 0.530144 0.000000
vt -0.454422 0.454409 0.000000
vt -0.454422 0.378674 0.000000
vt -0.454422 0.302939 0.000000
vt -0.454422 0.227204 0.000000
vt -0.454422 0.151470 0.000000
vt -0.454422 0.075735 0.000000
vt 0.454422 0.000000 0.000000
vt 0.454422 0.075735 0.000000
vt 0.454422 0.151470 0.000000
vt 0.454422 0.227204 0.000000
vt 0.454422 0.302939 0.000000
vt 0.454422 0.378674 0.000000
vt 0.454422 0.454409 0.000000
vt 0.454422 0.530144 0.000000
vt 0.454422 0.605879 0.000000
vt 0.454422 0.681613 0.000000
vt 0.454422 0.757348 0.000000
vt 0.454422 0.833083 0.000000
vt 0.454422 0.908818 0.000000
vt 0.454422 0.984553 0.000000
vt 0.454422 1.060288 0.000000
vt 0.454422 1.136022 0.000000
vt 0.454422 1.211757 0.000000
vt 0.454422 1.287492 0.000000
vt 0.454422 1.363227 0.000000
vt 0.454422 1.438962 0.000000
vt 0.454422 1.514696 0.000000
vt 0.454422 1.590431 0.000000
vt 0.454422 1.666166 0.000000
vt 0.454422 1.741901 0.000000
vt 0.454422 1.817636 0.000000
vt 0.454422 1.893371 0.000000
vt 0.454422 1.969105 0.000000
vt 0.454422 2.044840 0.000000
vt 0.454422 -2.120575 0.000000
vt 0.454422 -2.044840 0.000000
vt 0.454422 -1.969105 0.000000
vt 0.454422 -1.893371 0.000000
vt 0.454422 -1.817636 0.000000
vt 0.454422 -1.741901 0.000000
vt 0.454422 -1.666166 0.000000
vt 0.454422 -1.590431 0.000000
vt 0.454422 -1.514696 0.000000
vt 0.454422 -1.438962 0.000000
vt 0.454422 -1.363227 0.000000
vt 0.454422 -1.287492 0.000000
vt 0.454422 -1.211757 0.000000
vt 0.454422 -1.136022 0.000000
vt 0.454422 -1.060288 0.000000
vt 0.454422 -0.984553 0.000000
vt 0.454422 -0.908818 0.000000
vt 0.454422 -0.833083 0.000000
vt 0.454422 -0.757348 0.000000
vt 0.454422 -0.681613 0.000000
vt 0.454422 -0.605879 0.000000
vt 0.454422 -0.530144 0.000000
vt 0.454422 -0.454409 0.000000
vt 0.454422 -0.378674 0.000000
vt 0.454422 -0.302939 0.000000
vt 0.454422 -0.227204 0.000000
vt 0.454422 -0.151470 0.000000
vt 0.454422 -0.075735 0.000000
vt 0.454422 2.120575 0.000000
vt -0.454422 -2.120575 0.000000
vt 0.000000 0.675000 0.000000
vt -0.075576 0.670756 0.000000
vt -0.150202 0.658076 0.000000
vt -0.222938 0.637121 0.000000
vt -0.292872 0.608154 0.000000
vt -0.359122 0.571539 0.000000
vt -0.420856 0.527736 0.000000
vt -0.477297 0.477297 0.000000
vt -0.527736 0.420856 0.000000
vt -0.571539 0.359122 0.000000
vt -0.608154 0.292872 0.000000
vt -0.637121 0.222938 0.000000
vt -0.658076 0.150202 0.000000
vt -0.670756 0.075576 0.000000
vt -0.675000 0.000000 0.000000
vt -0.670756 -0.075576 0.000000
vt -0.658076 -0.150202 0.000000
vt -0.637121 -0.222938 0.000000
vt -0.608154 -0.292872 0.000000
vt -0.571539 -0.359122 0.000000
vt -0.527736 -0.420856 0.000000
vt -0.477297 -0.477297 0.000000
vt -0.420856 -0.527736 0.000000
vt -0.359122 -0.571539 0.000000
vt -0.292872 -0.608154 0.000000
vt -0.222938 -0.637121 0.000000
vt -0.150202 -0.658076 0.000000
vt -0.075576 -0.670756 0.000000
vt 0.000000 -0.675000 0.000000
vt 0.075576 -0.670756 0.000000
vt 0.150202 -0.658076 0.000000
vt 0.222938 -0.637121 0.000000
vt 0.292872 -0.608154 0.000000
vt 0.359122 -0.571539 0.000000
vt 0.420856 -0.527736 0.000000
vt 0.477297 -0.477297 0.000000
vt 0.527736 -0.420856 0.000000
vt 0.571539 -0.359122 0.000000
vt 0.608154 -0.292872 0.000000
vt 0.637121 -0.222938 0.000000
vt 0.658076 -0.150202 0.000000
vt 0.670756 -0.075576 0.000000
vt 0.675000 0.000000 0.000000
vt 0.670756 0.075576 0.000000
vt 0.658076 0.150202 0.000000
vt 0.637121 0.222938 0.000000
vt 0.608154 0.292872 0.000000
vt 0.571539 0.359122 0.000000
vt 0.527736 0.420856 0.000000
vt 0.477297 0.477297 0.000000
vt 0.420856 0.527736 0.000000
vt 0.359122 0.571539 0.000000
vt 0.292872 0.608154 0.000000
vt 0.222938 0.637121 0.000000
vt 0.150202 0.658076 0.000000
vt 0.075576 0.670756 0.000000
vt 0.000000 0.000000 0.000000
vt -0.077006 -0.004249 0.000000
vt -0.153077 -0.016943 0.000000
vt -0.227290 -0.037928 0.000000
vt -0.298744 -0.066950 0.000000
vt -0.366571 -0.103656 0.000000
vt -0.429949 -0.147602 0.000000
vt -0.488108 -0.198252 0.000000
vt -0.540342 -0.254993 0.000000
vt -0.586017 -0.317136 0.000000
vt -0.624578 -0.383927 0.000000
vt -0.655558 -0.454554 0.000000
vt -0.678580 -0.528160 0.000000
vt -0.693365 -0.603853 0.000000
vt -0.699734 -0.680712 0.000000
vt -0.697609 -0.757806 0.000000
vt -0.687016 -0.834197 0.000000
vt -0.668083 -0.908960 0.000000
vt -0.641041 -0.981187 0.000000
vt -0.606218 -1.050000 0.000000
vt -0.564036 -1.114565 0.000000
vt -0.515007 -1.174097 0.000000
vt -0.459726 -1.227875 0.000000
vt -0.398866 -1.275244 0.000000
vt -0.333163 -1.315632 0.000000
vt -0.263417 -1.348546 0.000000
vt -0.190472 -1.373588 0.000000
vt -0.115216 -1.390453 0.000000
vt -0.038561 -1.398937 0.000000
vt 0.038561 -1.398937 0.000000
vt 0.115216 -1.390453 0.000000
vt 0.190472 -1.373588 0.000000
vt 0.263417 -1.348546 0.000000
vt 0.333163 -1.315632 0.000000
vt 0.398866 -1.275244 0.000000
vt 0.459726 -1.227875 0.000000
vt 0.515007 -1.174097 0.000000
vt 0.564036 -1.114565 0.000000
vt 0.606218 -1.050000 0.000000
vt 0.641041 -0.981187 0.000000
vt 0.668083 -0.908960 0.000000
vt 0.687016 -0.834197 0.000000
vt 0.697609 -0.757806 0.000000
vt 0.699734 -0.680712 0.000000
vt 0.693365 -0.603853 0.000000
vt 0.678580 -0.528160 0.000000
vt 0.655558 -0.454554 0.000000
vt 0.624578 -0.383927 0.000000
vt 0.586017 -0.317136 0.000000
vt 0.540342 -0.254993 0.000000
vt 0.488108 -0.198252 0.000000
vt 0.429949 -0.147602 0.000000
vt 0.366571 -0.103656 0.000000
vt 0.298744 -0.066950 0.000000
vt 0.227290 -0.037928 0.000000
vt 0.153077 -0.016943 0.000000
vt 0.077006 -0.004249 0.000000
vt -0.475000 0.000000 0.000000
vt -0.475000 -0.077162 0.000000
vt -0.475000 -0.154324 0.000000
vt -0.475000 -0.231486 0.000000
vt -0.475000 -0.308648 0.000000
vt -0.475000 -0.385810 0.000000
vt -0.475000 -0.462972 0.000000
vt -0.475000 -0.540133 0.000000
vt -0.475000 -0.617295 0.000000
vt -0.475000 -0.694457 0.000000
vt -0.475000 -0.771619 0.000000
vt -0.475000 -0.848781 0.000000
vt -0.475000 -0.925943 0.000000
vt -0.475000 -1.003105 0.000000
vt -0.475000 -1.080267 0.000000
vt -0.475000 -1.157429 0.000000
vt -0.475000 -1.234591 0.000000
vt -0.475000 -1.311753 0.000000
vt -0.475000 -1.388915 0.000000
vt -0.475000 -1.466077 0.000000
vt -0.475000 -1.543238 0.000000
vt -0.475000 -1.620400 0.000000
vt -0.475000 -1.697562 0.000000
vt -0.475000 -1.774724 0.000000
vt -0.475000 -1.851886 0.000000
vt -0.475000 -1.929048 0.000000
vt -0.475000 -2.006210 0.000000
vt -0.475000 -2.083372 0.000000
vt -0.475000 -2.160534 0.000000
vt -0.475000 2.160534 0.000000
vt -0.475000 2.083372 0.000000
vt -0.475000 2.006210 0.000000
vt -0.475000 1.929048 0.000000
vt -0.475000 1.851886 0.000000
vt -0.475000 1.774724 0.000000
vt -0.475000 1.697562 0.000000
vt -0.475000 1.620400 0.000000
vt -0.475000 1.543238 0.000000
vt -0.475000 1.466077 0.000000
vt -0.475000 1.388915 0.000000
vt -0.475000 1.311753 0.000000
vt -0.475000 1.234591 0.000000
vt -0.475000 1.157429 0.000000
vt -0.475000 1.080267 0.000000
vt -0.475000 1.003105 0.000000
vt -0.475000 0.925943 0.000000
vt -0.475000 0.848781 0.000000
vt -0.475000 0.771619 0.000000
vt -0.475000 0.694457 0.000000
vt -0.475000 0.617295 0.000000
vt -0.475000 0.540133 0.000000
vt -0.475000 0.462972 0.000000
vt -0.475000 0.385810 0.000000
vt -0.475000 0.308648 0.000000
vt -0.475000 0.231486 0.000000
vt -0.475000 0.154324 0.000000
vt -0.475000 0.077162 0.000000
vt 0.475000 0.000000 0.000000
vt 0.475000 0.077162 0.000000
vt 0.475000 0.154324 0.000000
vt 0.475000 0.231486 0.000000
vt 0.475000 0.308648 0.000000
vt 0.475000 0.385810 0.000000
vt 0.475000 0.462972 0.000000
vt 0.475000 0.540133 0.000000
vt 0.475000 0.617295 0.000000
vt 0.475000 0.694457 0.000000
vt 0.475000 0.771619 0.000000
vt 0.475000 0.848781 0.000000
vt 0.475000 0.925943 0.000000
vt 0.475000 1.003105 0.000000
vt 0.475000 1.080267 0.000000
vt 0.475000 1.157429 0.000000
vt 0.475000 1.234591 0.000000
vt 0.475000 1.311753 0.000000
vt 0.475000 1.388915 0.000000
vt 0.475000 1.466077 0.000000
vt 0.475000 1.543238 0.000000
vt 0.475000 1.620400 0.000000
vt 0.475000 1.697562 0.000000
vt 0.475000 1.774724 0.000000
vt 0.475000 1.851886 0.000000
vt 0.475000 1.929048 0.000000
vt 0.475000 2.006210 0.000000
vt 0.475000 2.083372 0.000000
vt 0.475000 -2.237696 0.000000
vt 0.475000 -2.160534 0.000000
vt 0.475000 -2.083372 0.000000
vt 0.475000 -2.006210 0.000000
vt 0.475000 -1.929048 0.000000
vt 0.475000 -1.851886 0.000000
vt 0.475000 -1.774724 0.000000
vt 0.475000 -1.697562 0.000000
vt 0.475000 -1.620400 0.000000
vt 0.475000 -1.543238 0.000000
vt 0.475000 -1.466077 0.000000
vt 0.475000 -1.388915 0.000000
vt 0.475000 -1.311753 0.000000
vt 0.475000 -1.234591 0.000000
vt 0.475000 -1.157429 0.000000
vt 0.475000 -1.080267 0.000000
vt 0.475000 -1.003105 0.000000
vt 0.475000 -0.925943 0.000000
vt 0.475000 -0.848781 0.000000
vt 0.475000 -0.771619 0.000000
vt 0.475000 -0.694457 0.000000
vt 0.475000 -0.617295 0.000000
vt 0.475000 -0.540133 0.000000
vt 0.475000 -0.462972 0.000000
vt 0.475000 -0.385810 0.000000
vt 0.475000 -0.308648 0.000000
vt 0.475000 -0.231486 0.000000
vt 0.475000 -0.154324 0.000000
vt 0.475000 -0.077162 0.000000
vt -0.475000 -2.237696 0.000000
vt -0.475000 -2.237696 0.000000
vt 0.475000 2.160534 0.000000
vt 0.475000 2.160534 0.000000
vt 0.000000 0.000000 0.000000
vt 0.075576 -0.004244 0.000000
vt 0.150202 -0.016924 0.000000
vt 0.222938 -0.037879 0.000000
vt 0.292872 -0.066846 0.000000
vt 0.359122 -0.103461 0.000000
vt 0.420856 -0.147264 0.000000
vt 0.477297 -0.197703 0.000000
vt 0.527736 -0.254144 0.000000
vt 0.571539 -0.315878 0.000000
vt 0.608154 -0.382128 0.000000
vt 0.637121 -0.452062 0.000000
vt 0.658076 -0.524798 0.000000
vt 0.670756 -0.599424 0.000000
vt 0.675000 -0.675000 0.000000
vt 0.670756 -0.750576 0.000000
vt 0.658076 -0.825202 0.000000
vt 0.637121 -0.897938 0.000000
vt 0.608154 -0.967872 0.000000
vt 0.571539 -1.034122 0.000000
vt 0.527736 -1.095856 0.000000
vt 0.477297 -1.152297 0.000000
vt 0.420856 -1.202736 0.000000
vt 0.359122 -1.246539 0.000000
vt 0.292872 -1.283154 0.000000
vt 0.222938 -1.312121 0.000000
vt 0.150202 -1.333076 0.000000
vt 0.075576 -1.345756 0.000000
vt 0.000000 -1.350000 0.000000
vt -0.075576 -1.345756 0.000000
vt -0.150202 -1.333076 0.000000
vt -0.222938 -1.312121 0.000000
vt -0.292872 -1.283154 0.000000
vt -0.359122 -1.246539 0.000000
vt -0.420856 -1.202736 0.000000
vt -0.477297 -1.152297 0.000000
vt -0.527736 -1.095856 0.000000
vt -0.571539 -1.034122 0.000000
vt -0.608154 -0.967872 0.000000
vt -0.637121 -0.897938 0.000000
vt -0.658076 -0.825202 0.000000
vt -0.670756 -0.750576 0.000000
vt -0.675000 -0.675000 0.000000
vt -0.670756 -0.599424 0.000000
vt -0.658076 -0.524798 0.000000
vt -0.637121 -0.452062 0.000000
vt -0.608154 -0.382128 0.000000
vt -0.571539 -0.315878 0.000000
vt -0.527736 -0.254144 0.000000
vt -0.477297 -0.197703 0.000000
vt -0.420856 -0.147264 0.000000
vt -0.359122 -0.103461 0.000000
vt -0.292872 -0.066846 0.000000
vt -0.222938 -0.037879 0.000000
vt -0.150202 -0.016924 0.000000
vt -0.075576 -0.004244 0.000000
vt 0.000000 0.025000 0.000000
vt -0.077006 0.020751 0.000000
vt -0.153077 0.008057 0.000000
vt -0.227290 -0.012928 0.000000
vt -0.298744 -0.041950 0.000000
vt -0.366571 -0.078656 0.000000
vt -0.429949 -0.122602 0.000000
vt -0.488108 -0.173252 0.000000
vt -0.540342 -0.229993 0.000000
vt -0.586017 -0.292136 0.000000
vt -0.624578 -0.358927 0.000000
vt -0.655558 -0.429554 0.000000
vt -0.678580 -0.503160 0.000000
vt -0.693365 -0.578853 0.000000
vt -0.699734 -0.655712 0.000000
vt -0.697609 -0.732806 0.000000
vt -0.687016 -0.809197 0.000000
vt -0.668083 -0.883960 0.000000
vt -0.641041 -0.956187 0.000000
vt -0.606218 -1.025000 0.000000
vt -0.564036 -1.089565 0.000000
vt -0.515007 -1.149097 0.000000
vt -0.459726 -1.202875 0.000000
vt -0.398866 -1.250244 0.000000
vt -0.333163 -1.290632 0.000000
vt -0.263417 -1.323546 0.000000
vt -0.190472 -1.348588 0.000000
vt -0.115216 -1.365453 0.000000
vt -0.038561 -1.373937 0.000000
vt 0.038561 -1.373937 0.000000
vt 0.115216 -1.365453 0.000000
vt 0.190472 -1.348588 0.000000
vt 0.263417 -1.323546 0.000000
vt 0.333163 -1.290632 0.000000
vt 0.398866 -1.250244 0.000000
vt 0.459726 -1.202875 0.000000
vt 0.515007 -1.149097 0.000000
vt 0.564036 -1.089565 0.000000
vt 0.606218 -1.025000 0.000000
vt 0.641041 -0.956187 0.000000
vt 0.668083 -0.883960 0.000000
vt 0.687016 -0.809197 0.000000
vt 0.697609 -0.732806 0.000000
vt 0.699734 -0.655712 0.000000
vt 0.693365 -0.578853 0.000000
vt 0.678580 -0.503160 0.000000
vt 0.655558 -0.429554 0.000000
vt 0.624578 -0.358927 0.000000
vt 0.586017 -0.292136 0.000000
vt 0.540342 -0.229993 0.000000
vt 0.488108 -0.173252 0.000000
vt 0.429949 -0.122602 0.000000
vt 0.366571 -0.078656 0.000000
vt 0.298744 -0.041950 0.000000
vt 0.227290 -0.012928 0.000000
vt 0.153077 0.008057 0.000000
vt 0.077006 0.020751 0.000000
vn -0.100000 0.000000 0.000000
vn -0.099371 0.000000 -0.011196
vn -0.097493 0.000000 -0.022252
vn -0.094388 0.000000 -0.033028
vn -0.090097 0.000000 -0.043388
vn -0.084672 0.000000 -0.053203
vn -0.078183 0.000000 -0.062349
vn -0.070711 0.000000 -0.070711
vn -0.062349 0.000000 -0.078183
vn -0.053203 0.000000 -0.084672
vn -0.043388 0.000000 -0.090097
vn -0.033028 0.000000 -0.094388
vn -0.022252 0.000000 -0.097493
vn -0.011196 0.000000 -0.099371
vn 0.000000 0.000000 -0.100000
vn 0.011196 0.000000 -0.099371
vn 0.022252 0.000000 -0.097493
vn 0.033028 0.000000 -0.094388
vn 0.043388 0.000000 -0.090097
vn 0.053203 0.000000 -0.084672
vn 0.062349 0.000000 -0.078183
vn 0.070711 0.000000 -0.070711
vn 0.078183 0.000000 -0.062349
vn 0.084672 0.000000 -0.053203
vn 0.090097 0.000000 -0.043388
vn 0.094388 0.000000 -0.033028
vn 0.097493 0.000000 -0.022252
vn 0.099371 0.000000 -0.011196
vn 0.100000 0.000000 0.000000
vn 0.099371 0.000000 0.011196
vn 0.097493 0.000000 0.022252
vn 0.094388 0.000000 0.033028
vn 0.090097 0.000000 0.043388
vn 0.084672 0.000000 0.053203
vn 0.078183 0.000000 0.062349
vn 0.070711 0.000000 0.070711
vn 0.062349 0.000000 0.078183
vn 0.053203 0.000000 0.084672
vn 0.043388 0.000000 0.090097
vn 0.033028 0.000000 0.094388
vn 0.022252 0.000000 0.097493
vn 0.011196 0.000000 0.099371
vn 0.000000 0.000000 0.100000
vn -0.011196 0.000000 0.099371
vn -0.022252 0.000000 0.097493
vn -0.033028 0.000000 0.094388
vn -0.043388 0.000000 0.090097
vn -0.053203 0.000000 0.084672
vn -0.062349 0.000000 0.078183
vn -0.070711 0.000000 0.070711
vn -0.078183 0.000000 0.062349
vn -0.084672 0.000000 0.053203
vn -0.090097 0.000000 0.043388
vn -0.094388 0.000000 0.033028
vn -0.097493 0.000000 0.022252
vn -0.099371 0.000000 0.011196
vn -0.100000 0.000000 0.000000
vn -0.099371 0.000000 0.011196
vn -0.097493 0.000000 0.022252
vn -0.094388 0.000000 0.033028
vn -0.090097 0.000000 0.043388
vn -0.084672 0.000000 0.053203
vn -0.078183 0.000000 0.062349
vn -0.070711 0.000000 0.070711
vn -0.062349 0.000000 0.078183
vn -0.053203 0.000000 0.084672
vn -0.043388 0.000000 0.090097
vn -0.033028 0.000000 0.094388
vn -0.022252 0.000000 0.097493
vn -0.011196 0.000000 0.099371
vn 0.000000 0.000000 0.100000
vn 0.011196 0.000000 0.099371
vn 0.022252 0.000000 0.097493
vn 0.033028 0.000000 0.094388
vn 0.043388 0.000000 0.090097
vn 0.053203 0.000000 0.084672
vn 0.062349 0.000000 0.078183
vn 0.070711 0.000000 0.070711
vn 0.078183 0.000000 0.062349
vn 0.084672 0.000000 0.053203
vn 0.090097 0.000000 0.043388
vn 0.094388 0.000000 0.033028
vn 0.097493 0.000000 0.022252
vn 0.099371 0.000000 0.011196
vn 0.100000 0.000000 0.000000
vn 0.099371 0.000000 -0.011196
vn 0.097493 0.000000 -0.022252
vn 0.094388 0.000000 -0.033028
vn 0.090097 0.000000 -0.043388
vn 0.084672 0.000000 -0.053203
vn 0.078183 0.000000 -0.062349
vn 0.070711 0.000000 -0.070711
vn 0.062349 0.000000 -0.078183
vn 0.053203 0.000000 -0.084672
vn 0.043388 0.000000 -0.090097
vn 0.033028 0.000000 -0.094388
vn 0.022252 0.000000 -0.097493
vn 0.011196 0.000000 -0.099371
vn 0.000000 0.000000 -0.100000
vn -0.011196 0.000000 -0.099371
vn -0.022252 0.000000 -0.097493
vn -0.033028 0.000000 -0.094388
vn -0.043388 0.000000 -0.090097
vn -0.053203 0.000000 -0.084672
vn -0.062349 0.000000 -0.078183
vn -0.070711 0.000000 -0.070711
vn -0.078183 0.000000 -0.062349
vn -0.084672 0.000000 -0.053203
vn -0.090097 0.000000 -0.043388
vn -0.094388 0.000000 -0.033028
vn -0.097493 0.000000 -0.022252
vn -0.099371 0.000000 -0.011196
vn 0.100000 0.000000 0.000000
vn 0.100000 0.000000 0.000000
vn 0.000000 0.100000 0.000000
vn 0.000000 0.100000 0.000000
vn 0.000000 0.100000 0.000000
vn 0.000000 0.100000 0.000000
vn 0.000000 0.100000 0.000000
vn 0.000000 0.100000 0.000000
vn 0.000000 0.100000 0.000000
vn 0.000000 0.100000 0.000000
vn 0.000000 0.100000 0.000000
vn 0.000000 0.100000 0.000000
vn 0.000000 0.100000 0.000000
vn 0.000000 0.100000 0.000000
vn 0.000000 0.100000 0.000000
vn 0.000000 0.100000 0.000000
vn 0.000000 0.100000 0.000000
vn 0.000000 0.100000 0.000000
vn 0.000000 0.100000 0.000000
vn 0.000000 0.100000 0.000000
vn 0.000000 0.100000 0.000000
vn 0.000000 0.100000 0.000000
vn 0.000000 0.100000 0.000000
vn 0.000000 0.100000 0.000000
vn 0.000000 0.100000 0.000000
vn 0.000000 0.100000 0.000000
vn 0.000000 0.100000 0.000000
vn 0.000000 0.100000 0.000000
vn 0.000000 0.100000 0.000000
vn 0.000000 0.100000 0.000000
vn 0.000000 0.100000 0.000000
vn 0.000000 0.100000 0.000000
vn 0.000000 0.100000 0.000000
vn 0.000000 0.100000 0.000000
vn 0.000000 0.100000 0.000000
vn 0.000000 0.100000 0.000000
vn 0.000000 0.100000 0.000000
vn 0.000000 0.100000 0.000000
vn 0.000000 0.100000 0.000000
vn 0.000000 0.100000 0.000000
vn 0.000000 0.100000 0.000000
vn 0.000000 0.100000 0.000000
vn 0.000000 0.100000 0.000000
vn 0.000000 0.100000 0.000000
vn 0.000000 0.100000 0.000000
vn 0.000000 0.100000 0.000000
vn 0.000000 0.100000 0.000000
vn 0.000000 0.100000 0.000000
vn 0.000000 0.100000 0.000000
vn 0.000000 0.100000 0.000000
vn 0.000000 0.100000 0.000000
vn 0.000000 0.100000 0.000000
vn 0.000000 0.100000 0.000000
vn 0.000000 0.100000 0.000000
vn 0.000000 0.100000 0.000000
vn 0.000000 0.100000 0.000000
vn 0.000000 0.100000 0.000000
vn 0.000000 0.100000 0.000000
vn 0.000000 -0.100000 0.000000
vn 0.000000 -0.100000 0.000000
vn 0.000000 -0.100000 0.000000
vn 0.000000 -0.100000 0.000000
vn 0.000000 -0.100000 0.000000
vn 0.000000 -0.100000 0.000000
vn 0.000000 -0.100000 0.000000
vn 0.000000 -0.100000 0.000000
vn 0.000000 -0.100000 0.000000
vn 0.000000 -0.100000 0.000000
vn 0.000000 -0.100000 0.000000
vn 0.000000 -0.100000 0.000000
vn 0.000000 -0.100000 0.000000
vn 0.000000 -0.100000 0.000000
vn 0.000000 -0.100000 0.000000
vn 0.000000 -0.100000 0.000000
vn 0.000000 -0.100000 0.000000
vn 0.000000 -0.100000 0.000000
vn 0.000000 -0.100000 0.000000
vn 0.000000 -0.100000 0.000000
vn 0.000000 -0.100000 0.000000
vn 0.000000 -0.100000 0.000000
vn 0.000000 -0.100000 0.000000
vn 0.000000 -0.100000 0.000000
vn 0.000000 -0.100000 0.000000
vn 0.000000 -0.100000 0.000000
vn 0.000000 -0.100000 0.000000
vn 0.000000 -0.100000 0.000000
vn 0.000000 -0.100000 0.000000
vn 0.000000 -0.100000 0.000000
vn 0.000000 -0.100000 0.000000
vn 0.000000 -0.100000 0.000000
vn 0.000000 -0.100000 0.000000
vn 0.000000 -0.100000 0.000000
vn 0.000000 -0.100000 0.000000
vn 0.000000 -0.100000 0.000000
vn 0.000000 -0.100000 0.000000
vn 0.000000 -0.100000 0.000000
vn 0.000000 -0.100000 0.000000
vn 0.000000 -0.100000 0.000000
vn 0.000000 -0.100000 0.000000
vn 0.000000 -0.100000 0.000000
vn 0.000000 -0.100000 0.000000
vn 0.000000 -0.100000 0.000000
vn 0.000000 -0.100000 0.000000
vn 0.000000 -0.100000 0.000000
vn 0.000000 -0.100000 0.000000
vn 0.000000 -0.100000 0.000000
vn 0.000000 -0.100000 0.000000
vn 0.000000 -0.100000 0.000000
vn 0.000000 -0.100000 0.000000
vn 0.000000 -0.100000 0.000000
vn 0.000000 -0.100000 0.000000
vn 0.000000 -0.100000 0.000000
vn 0.000000 -0.100000 0.000000
vn 0.000000 -0.100000 0.000000
vn 0.000000 -0.100000 0.000000
vn 0.100000 0.000000 0.000000
vn 0.099393 0.000000 0.011001
vn 0.097580 0.000000 0.021868
vn 0.094582 0.000000 0.032470
vn 0.090436 0.000000 0.042678
vn 0.085192 0.000000 0.052367
vn 0.078914 0.000000 0.061421
vn 0.071678 0.000000 0.069730
vn 0.063572 0.000000 0.077192
vn 0.054695 0.000000 0.083717
vn 0.045153 0.000000 0.089225
vn 0.035064 0.000000 0.093651
vn 0.024549 0.000000 0.096940
vn 0.013735 0.000000 0.099052
vn 0.002755 0.000000 0.099962
vn -0.008258 0.000000 0.099658
vn -0.019171 0.000000 0.098145
vn -0.029851 0.000000 0.095441
vn -0.040170 0.000000 0.091577
vn -0.050000 0.000000 0.086603
vn -0.059224 0.000000 0.080577
vn -0.067728 0.000000 0.073572
vn -0.075411 0.000000 0.065675
vn -0.082178 0.000000 0.056981
vn -0.087947 0.000000 0.047595
vn -0.092649 0.000000 0.037631
vn -0.096227 0.000000 0.027210
vn -0.098636 0.000000 0.016459
vn -0.099848 0.000000 0.005509
vn -0.099848 0.000000 -0.005509
vn -0.098636 0.000000 -0.016459
vn -0.096227 0.000000 -0.027210
vn -0.092649 0.000000 -0.037631
vn -0.087947 0.000000 -0.047595
vn -0.082178 0.000000 -0.056981
vn -0.075411 0.000000 -0.065675
vn -0.067728 0.000000 -0.073572
vn -0.059224 0.000000 -0.080577
vn -0.050000 0.000000 -0.086603
vn -0.040170 0.000000 -0.091577
vn -0.029851 0.000000 -0.095441
vn -0.019171 0.000000 -0.098145
vn -0.008258 0.000000 -0.099658
vn 0.002755 0.000000 -0.099962
vn 0.013735 0.000000 -0.099052
vn 0.024549 0.000000 -0.096940
vn 0.035064 0.000000 -0.093651
vn 0.045153 0.000000 -0.089225
vn 0.054695 0.000000 -0.083717
vn 0.063572 0.000000 -0.077192
vn 0.071678 0.000000 -0.069730
vn 0.078914 0.000000 -0.061421
vn 0.085192 0.000000 -0.052367
vn 0.090436 0.000000 -0.042678
vn 0.094582 0.000000 -0.032470
vn 0.097580 0.000000 -0.021868
vn 0.099393 0.000000 -0.011001
vn 0.100000 0.000000 0.000000
vn 0.099393 0.000000 -0.011001
vn 0.097580 0.000000 -0.021868
vn 0.094582 0.000000 -0.032470
vn 0.090436 0.000000 -0.042678
vn 0.085192 0.000000 -0.052367
vn 0.078914 0.000000 -0.061421
vn 0.071678 0.000000 -0.069730
vn 0.063572 0.000000 -0.077192
vn 0.054695 0.000000 -0.083717
vn 0.045153 0.000000 -0.089225
vn 0.035064 0.000000 -0.093651
vn 0.024549 0.000000 -0.096940
vn 0.013735 0.000000 -0.099052
vn 0.002755 0.000000 -0.099962
vn -0.008258 0.000000 -0.099658
vn -0.019171 0.000000 -0.098145
vn -0.029851 0.000000 -0.095441
vn -0.040170 0.000000 -0.091577
vn -0.050000 0.000000 -0.086603
vn -0.059224 0.000000 -0.080577
vn -0.067728 0.000000 -0.073572
vn -0.075411 0.000000 -0.065675
vn -0.082178 0.000000 -0.056981
vn -0.087947 0.000000 -0.047595
vn -0.092649 0.000000 -0.037631
vn -0.096227 0.000000 -0.027210
vn -0.098636 0.000000 -0.016459
vn -0.099848 0.000000 -0.005509
vn -0.099848 0.000000 0.005509
vn -0.098636 0.000000 0.016459
vn -0.096227 0.000000 0.027210
vn -0.092649 0.000000 0.037631
vn -0.087947 0.000000 0.047595
vn -0.082178 0.000000 0.056981
vn -0.075411 0.000000 0.065675
vn -0.067728 0.000000 0.073572
vn -0.059224 0.000000 0.080577
vn -0.050000 0.000000 0.086603
vn -0.040170 0.000000 0.091577
vn -0.029851 0.000000 0.095441
vn -0.019171 0.000000 0.098145
vn -0.008258 0.000000 0.099658
vn 0.002755 0.000000 0.099962
vn 0.013735 0.000000 0.099052
vn 0.024549 0.000000 0.096940
vn 0.035064 0.000000 0.093651
vn 0.045153 0.000000 0.089225
vn 0.054695 0.000000 0.083717
vn 0.063572 0.000000 0.077192
vn 0.071678 0.000000 0.069730
vn 0.078914 0.000000 0.061421
vn 0.085192 0.000000 0.052367
vn 0.090436 0.000000 0.042678
vn 0.094582 0.000000 0.032470
vn 0.097580 0.000000 0.021868
vn 0.099393 0.000000 0.011001
vn -0.099848 0.000000 -0.005509
vn -0.099848 0.000000 -0.005509
vn -0.099848 0.000000 -0.005509
vn -0.099848 0.000000 -0.005509
vn 0.000000 0.100000 0.000000
vn 0.000000 0.100000 0.000000
vn 0.000000 0.100000 0.000000
vn 0.000000 0.100000 0.000000
vn 0.000000 0.100000 0.000000
vn 0.000000 0.100000 0.000000
vn 0.000000 0.100000 0.000000
vn 0.000000 0.100000 0.000000
vn 0.000000 0.100000 0.000000
vn 0.000000 0.100000 0.000000
vn 0.000000 0.100000 0.000000
vn 0.000000 0.100000 0.000000
vn 0.000000 0.100000 0.000000
vn 0.000000 0.100000 0.000000
vn 0.000000 0.100000 0.000000
vn 0.000000 0.100000 0.000000
vn 0.000000 0.100000 0.000000
vn 0.000000 0.100000 0.000000
vn 0.000000 0.100000 0.000000
vn 0.000000 0.100000 0.000000
vn 0.000000 0.100000 0.000000
vn 0.000000 0.100000 0.000000
vn 0.000000 0.100000 0.000000
vn 0.000000 0.100000 0.000000
vn 0.000000 0.100000 0.000000
vn 0.000000 0.100000 0.000000
vn 0.000000 0.100000 0.000000
vn 0.000000 0.100000 0.000000
vn 0.000000 0.100000 0.000000
vn 0.000000 0.100000 0.000000
vn 0.000000 0.100000 0.000000
vn 0.000000 0.100000 0.000000
vn 0.000000 0.100000 0.000000
vn 0.000000 0.100000 0.000000
vn 0.000000 0.100000 0.000000
vn 0.000000 0.100000 0.000000
vn 0.000000 0.100000 0.000000
vn 0.000000 0.100000 0.000000
vn 0.000000 0.100000 0.000000
vn 0.000000 0.100000 0.000000
vn 0.000000 0.100000 0.000000
vn 0.000000 0.100000 0.000000
vn 0.000000 0.100000 0.000000
vn 0.000000 0.100000 0.000000
vn 0.000000 0.100000 0.000000
vn 0.000000 0.100000 0.000000
vn 0.000000 0.100000 0.000000
vn 0.000000 0.100000 0.000000
vn 0.000000 0.100000 0.000000
vn 0.000000 0.100000 0.000000
vn 0.000000 0.100000 0.000000
vn 0.000000 0.100000 0.000000
vn 0.000000 0.100000 0.000000
vn 0.000000 0.100000 0.000000
vn 0.000000 0.100000 0.000000
vn 0.000000 0.100000 0.000000
vn 0.000000 0.100000 0.000000
vn 0.000000 0.100000 0.000000
vn 0.000000 0.100000 0.000000
vn 0.000000 0.100000 0.000000
vn 0.000000 0.100000 0.000000
vn 0.000000 0.100000 0.000000
vn 0.000000 0.100000 0.000000
vn 0.000000 0.100000 0.000000
vn 0.000000 0.100000 0.000000
vn 0.000000 0.100000 0.000000
vn 0.000000 0.100000 0.000000
vn 0.000000 0.100000 0.000000
vn 0.000000 0.100000 0.000000
vn 0.000000 0.100000 0.000000
vn 0.000000 0.100000 0.000000
vn 0.000000 0.100000 0.000000
vn 0.000000 0.100000 0.000000
vn 0.000000 0.100000 0.000000
vn 0.000000 0.100000 0.000000
vn 0.000000 0.100000 0.000000
vn 0.000000 0.100000 0.000000
vn 0.000000 0.100000 0.000000
vn 0.000000 0.100000 0.000000
vn 0.000000 0.100000 0.000000
vn 0.000000 0.100000 0.000000
vn 0.000000 0.100000 0.000000
vn 0.000000 0.100000 0.000000
vn 0.000000 0.100000 0.000000
vn 0.000000 0.100000 0.000000
vn 0.000000 0.100000 0.000000
vn 0.000000 0.100000 0.000000
vn 0.000000 0.100000 0.000000
vn 0.000000 0.100000 0.000000
vn 0.000000 0.100000 0.000000
vn 0.000000 0.100000 0.000000
vn 0.000000 0.100000 0.000000
vn 0.000000 0.100000 0.000000
vn 0.000000 0.100000 0.000000
vn 0.000000 0.100000 0.000000
vn 0.000000 0.100000 0.000000
vn 0.000000 0.100000 0.000000
vn 0.000000 0.100000 0.000000
vn 0.000000 0.100000 0.000000
vn 0.000000 0.100000 0.000000
vn 0.000000 0.100000 0.000000
vn 0.000000 0.100000 0.000000
vn 0.000000 0.100000 0.000000
vn 0.000000 0.100000 0.000000
vn 0.000000 0.100000 0.000000
vn 0.000000 0.100000 0.000000
vn 0.000000 0.100000 0.000000
vn 0.000000 0.100000 0.000000
vn 0.000000 0.100000 0.000000
vn 0.000000 0.100000 0.000000
vn 0.000000 0.100000 0.000000
vn 0.000000 0.100000 0.000000
vn 0.000000 0.100000 0.000000
usemtl 191,191,191
f 212/2/2 216/57/57 215/1/1
f 215/1/1 216/57/57 213/58/58
f 215/1/1 213/58/58 211/56/56
f 211/56/56 213/58/58 205/59/59
f 211/56/56 205/59/59 203/55/55
f 203/55/55 205/59/59 201/60/60
f 203/55/55 201/60/60 199/54/54
f 199/54/54 201/60/60 193/61/61
f 199/54/54 193/61/61 191/53/53
f 191/53/53 193/61/61 185/62/62
f 191/53/53 185/62/62 183/52/52
f 183/52/52 185/62/62 177/63/63
f 183/52/52 177/63/63 175/51/51
f 175/51/51 177/63/63 169/64/64
f 175/51/51 169/64/64 167/50/50
f 167/50/50 169/64/64 161/65/65
f 167/50/50 161/65/65 159/49/49
f 159/49/49 161/65/65 153/66/66
f 159/49/49 153/66/66 151/48/48
f 151/48/48 153/66/66 145/67/67
f 151/48/48 145/67/67 143/47/47
f 143/47/47 145/67/67 137/68/68
f 143/47/47 137/68/68 135/46/46
f 135/46/46 137/68/68 129/69/69
f 135/46/46 129/69/69 127/45/45
f 127/45/45 129/69/69 121/70/70
f 127/45/45 121/70/70 119/44/44
f 119/44/44 121/70/70 113/71/71
f 119/44/44 113/71/71 111/43/43
f 111/43/43 113/71/71 105/72/72
f 111/43/43 105/72/72 103/42/42
f 103/42/42 105/72/72 97/73/73
f 103/42/42 97/73/73 95/41/41
f 95/41/41 97/73/73 89/74/74
f 95/41/41 89/74/74 87/40/40
f 87/40/40 89/74/74 81/75/75
f 87/40/40 81/75/75 79/39/39
f 79/39/39 81/75/75 73/76/76
f 79/39/39 73/76/76 71/38/38
f 71/38/38 73/76/76 65/77/77
f 71/38/38 65/77/77 63/37/37
f 63/37/37 65/77/77 57/78/78
f 63/37/37 57/78/78 55/36/36
f 55/36/36 57/78/78 53/79/79
f 55/36/36 53/79/79 51/35/35
f 51/35/35 53/79/79 45/80/80
f 51/35/35 45/80/80 43/34/34
f 43/34/34 45/80/80 37/81/81
f 43/34/34 37/81/81 35/33/33
f 35/33/33 37/81/81 29/82/82
f 35/33/33 29/82/82 27/32/32
f 27/32/32 29/82/82 21/83/83
f 27/32/32 21/83/83 19/31/31
f 19/31/31 21/83/83 17/84/84
f 19/31/31 17/84/84 15/30/30
f 15/30/30 17/84/84 9/29/29
f 9/29/29 17/84/84 10/113/113
f 9/114/114 10/85/85 16/28/28
f 16/28/28 10/85/85 18/86/86
f 16/28/28 18/86/86 22/87/87
f 216/57/57 212/2/2 214/112/112
f 214/112/112 212/2/2 204/3/3
f 214/112/112 204/3/3 206/111/111
f 206/111/111 204/3/3 200/4/4
f 206/111/111 200/4/4 202/110/110
f 202/110/110 200/4/4 192/5/5
f 202/110/110 192/5/5 194/109/109
f 194/109/109 192/5/5 184/6/6
f 194/109/109 184/6/6 186/108/108
f 186/108/108 184/6/6 176/7/7
f 186/108/108 176/7/7 178/107/107
f 178/107/107 176/7/7 168/8/8
f 178/107/107 168/8/8 170/106/106
f 170/106/106 168/8/8 160/9/9
f 170/106/106 160/9/9 162/105/105
f 162/105/105 160/9/9 152/10/10
f 162/105/105 152/10/10 154/104/104
f 154/104/104 152/10/10 144/11/11
f 154/104/104 144/11/11 146/103/103
f 146/103/103 144/11/11 136/12/12
f 146/103/103 136/12/12 138/102/102
f 138/102/102 136/12/12 128/13/13
f 138/102/102 128/13/13 130/101/101
f 130/101/101 128/13/13 120/14/14
f 130/101/101 120/14/14 122/100/100
f 122/100/100 120/14/14 112/15/15
f 122/100/100 112/15/15 114/99/99
f 114/99/99 112/15/15 104/16/16
f 114/99/99 104/16/16 106/98/98
f 106/98/98 104/16/16 96/17/17
f 106/98/98 96/17/17 98/97/97
f 98/97/97 96/17/17 88/18/18
f 98/97/97 88/18/18 90/96/96
f 90/96/96 88/18/18 80/19/19
f 90/96/96 80/19/19 82/95/95
f 82/95/95 80/19/19 72/20/20
f 82/95/95 72/20/20 74/94/94
f 74/94/94 72/20/20 64/21/21
f 74/94/94 64/21/21 66/93/93
f 66/93/93 64/21/21 56/22/22
f 66/93/93 56/22/22 58/92/92
f 58/92/92 56/22/22 52/23/23
f 58/92/92 52/23/23 54/91/91
f 54/91/91 52/23/23 44/24/24
f 54/91/91 44/24/24 46/90/90
f 46/90/90 44/24/24 36/25/25
f 46/90/90 36/25/25 38/89/89
f 38/89/89 36/25/25 28/26/26
f 38/89/89 28/26/26 30/88/88
f 30/88/88 28/26/26 20/27/27
f 30/88/88 20/27/27 22/87/87
f 22/87/87 20/27/27 16/28/28
f 215/115/115 211/116/116 212/170/170
f 212/170/170 211/116/116 204/169/169
f 204/169/169 211/116/116 203/117/117
f 204/169/169 203/117/117 200/168/168
f 200/168/168 203/117/117 199/118/118
f 200/168/168 199/118/118 192/167/167
f 192/167/167 199/118/118 191/119/119
f 192/167/167 191/119/119 184/166/166
f 184/166/166 191/119/119 183/120/120
f 184/166/166 183/120/120 176/165/165
f 176/165/165 183/120/120 175/121/121
f 176/165/165 175/121/121 168/164/164
f 168/164/164 175/121/121 167/122/122
f 168/164/164 167/122/122 160/163/163
f 160/163/163 167/122/122 159/123/123
f 160/163/163 159/123/123 152/162/162
f 152/162/162 159/123/123 151/124/124
f 152/162/162 151/124/124 144/161/161
f 144/161/161 151/124/124 143/125/125
f 144/161/161 143/125/125 136/160/160
f 136/160/160 143/125/125 135/126/126
f 136/160/160 135/126/126 128/159/159
f 128/159/159 135/126/126 127/127/127
f 128/159/159 127/127/127 120/158/158
f 120/158/158 127/127/127 119/128/128
f 120/158/158 119/128/128 112/157/157
f 112/157/157 119/128/128 111/129/129
f 112/157/157 111/129/129 104/156/156
f 104/156/156 111/129/129 103/130/130
f 104/156/156 103/130/130 96/155/155
f 96/155/155 103/130/130 95/131/131
f 96/155/155 95/131/131 88/154/154
f 88/154/154 95/131/131 87/132/132
f 88/154/154 87/132/132 80/153/153
f 80/153/153 87/132/132 79/133/133
f 80/153/153 79/133/133 72/152/152
f 72/152/152 79/133/133 71/134/134
f 72/152/152 71/134/134 64/151/151
f 64/151/151 71/134/134 63/135/135
f 64/151/151 63/135/135 56/150/150
f 56/150/150 63/135/135 55/136/136
f 56/150/150 55/136/136 52/149/149
f 52/149/149 55/136/136 51/137/137
f 52/149/149 51/137/137 44/148/148
f 44/148/148 51/137/137 43/138/138
f 44/148/148 43/138/138 36/147/147
f 36/147/147 43/138/138 35/139/139
f 36/147/147 35/139/139 28/146/146
f 28/146/146 35/139/139 27/140/140
f 28/146/146 27/140/140 20/145/145
f 20/145/145 27/140/140 19/141/141
f 20/145/145 19/141/141 16/144/144
f 16/144/144 19/141/141 15/142/142
f 16/144/144 15/142/142 9/143/143
f 225/171/171 222/172/172 221/227/227
f 221/227/227 222/172/172 217/226/226
f 217/226/226 222/172/172 218/173/173
f 217/226/226 218/173/173 207/225/225
f 207/225/225 218/173/173 208/174/174
f 207/225/225 208/174/174 195/224/224
f 195/224/224 208/174/174 196/175/175
f 195/224/224 196/175/175 187/223/223
f 187/223/223 196/175/175 188/176/176
f 187/223/223 188/176/176 179/222/222
f 179/222/222 188/176/176 180/177/177
f 179/222/222 180/177/177 171/221/221
f 171/221/221 180/177/177 172/178/178
f 171/221/221 172/178/178 163/220/220
f 163/220/220 172/178/178 164/179/179
f 163/220/220 164/179/179 155/219/219
f 155/219/219 164/179/179 156/180/180
f 155/219/219 156/180/180 147/218/218
f 147/218/218 156/180/180 148/181/181
f 147/218/218 148/181/181 139/217/217
f 139/217/217 148/181/181 140/182/182
f 139/217/217 140/182/182 131/216/216
f 131/216/216 140/182/182 132/183/183
f 131/216/216 132/183/183 123/215/215
f 123/215/215 132/183/183 124/184/184
f 123/215/215 124/184/184 115/214/214
f 115/214/214 124/184/184 116/185/185
f 115/214/214 116/185/185 107/213/213
f 107/213/213 116/185/185 108/186/186
f 107/213/213 108/186/186 99/212/212
f 99/212/212 108/186/186 100/187/187
f 99/212/212 100/187/187 91/211/211
f 91/211/211 100/187/187 92/188/188
f 91/211/211 92/188/188 83/210/210
f 83/210/210 92/188/188 84/189/189
f 83/210/210 84/189/189 75/209/209
f 75/209/209 84/189/189 76/190/190
f 75/209/209 76/190/190 67/208/208
f 67/208/208 76/190/190 68/191/191
f 67/208/208 68/191/191 59/207/207
f 59/207/207 68/191/191 60/192/192
f 59/207/207 60/192/192 47/206/206
f 47/206/206 60/192/192 48/193/193
f 47/206/206 48/193/193 39/205/205
f 39/205/205 48/193/193 40/194/194
f 39/205/205 40/194/194 31/204/204
f 31/204/204 40/194/194 32/195/195
f 31/204/204 32/195/195 23/203/203
f 23/203/203 32/195/195 24/196/196
f 23/203/203 24/196/196 11/202/202
f 11/202/202 24/196/196 12/197/197
f 11/202/202 12/197/197 5/201/201
f 5/201/201 12/197/197 6/198/198
f 5/201/201 6/198/198 1/200/200
f 1/200/200 6/198/198 2/199/199
f 224/229/229 222/341/341 226/228/228
f 226/228/228 222/341/341 225/285/285
f 226/228/228 225/285/285 223/284/284
f 223/284/284 225/285/285 221/286/286
f 223/284/284 221/286/286 217/287/287
f 224/229/229 220/230/230 222/341/341
f 222/341/341 220/230/230 218/340/340
f 218/340/340 220/230/230 210/231/231
f 218/340/340 210/231/231 208/339/339
f 208/339/339 210/231/231 198/232/232
f 208/339/339 198/232/232 196/338/338
f 196/338/338 198/232/232 190/233/233
f 196/338/338 190/233/233 188/337/337
f 188/337/337 190/233/233 182/234/234
f 188/337/337 182/234/234 180/336/336
f 180/336/336 182/234/234 174/235/235
f 180/336/336 174/235/235 172/335/335
f 172/335/335 174/235/235 166/236/236
f 172/335/335 166/236/236 164/334/334
f 164/334/334 166/236/236 158/237/237
f 164/334/334 158/237/237 156/333/333
f 156/333/333 158/237/237 150/238/238
f 156/333/333 150/238/238 148/332/332
f 148/332/332 150/238/238 142/239/239
f 148/332/332 142/239/239 140/331/331
f 140/331/331 142/239/239 134/240/240
f 140/331/331 134/240/240 132/330/330
f 132/330/330 134/240/240 126/241/241
f 132/330/330 126/241/241 124/329/329
f 124/329/329 126/241/241 118/242/242
f 124/329/329 118/242/242 116/328/328
f 116/328/328 118/242/242 110/243/243
f 116/328/328 110/243/243 108/327/327
f 108/327/327 110/243/243 102/244/244
f 108/327/327 102/244/244 100/326/326
f 100/326/326 102/244/244 94/245/245
f 100/326/326 94/245/245 92/325/325
f 92/325/325 94/245/245 86/246/246
f 92/325/325 86/246/246 84/324/324
f 84/324/324 86/246/246 78/247/247
f 84/324/324 78/247/247 76/323/323
f 76/323/323 78/247/247 70/248/248
f 76/323/323 70/248/248 68/322/322
f 68/322/322 70/248/248 62/249/249
f 68/322/322 62/249/249 60/321/321
f 60/321/321 62/249/249 50/250/250
f 60/321/321 50/250/250 48/320/320
f 48/320/320 50/250/250 42/251/251
f 48/320/320 42/251/251 40/319/319
f 40/319/319 42/251/251 34/252/252
f 40/319/319 34/252/252 32/318/318
f 32/318/318 34/252/252 26/253/253
f 32/318/318 26/253/253 24/317/317
f 24/317/317 26/253/253 14/254/254
f 24/317/317 14/254/254 12/316/316
f 12/316/316 14/254/254 8/255/255
f 12/316/316 8/255/255 6/315/315
f 6/315/315 8/255/255 4/256/256
f 6/315/315 4/256/256 2/314/314
f 2/314/314 4/256/256 3/342/342
f 2/314/314 3/343/343 1/313/313
f 1/344/344 3/257/257 7/258/258
f 1/345/345 7/258/258 5/312/312
f 5/312/312 7/258/258 13/259/259
f 5/312/312 13/259/259 11/311/311
f 11/311/311 13/259/259 25/260/260
f 11/311/311 25/260/260 23/310/310
f 23/310/310 25/260/260 33/261/261
f 23/310/310 33/261/261 31/309/309
f 31/309/309 33/261/261 41/262/262
f 31/309/309 41/262/262 39/308/308
f 39/308/308 41/262/262 49/263/263
f 39/308/308 49/263/263 47/307/307
f 47/307/307 49/263/263 61/264/264
f 47/307/307 61/264/264 59/306/306
f 59/306/306 61/264/264 69/265/265
f 59/306/306 69/265/265 67/305/305
f 67/305/305 69/265/265 77/266/266
f 67/305/305 77/266/266 75/304/304
f 75/304/304 77/266/266 85/267/267
f 75/304/304 85/267/267 83/303/303
f 83/303/303 85/267/267 93/268/268
f 83/303/303 93/268/268 91/302/302
f 91/302/302 93/268/268 101/269/269
f 91/302/302 101/269/269 99/301/301
f 99/301/301 101/269/269 109/270/270
f 99/301/301 109/270/270 107/300/300
f 107/300/300 109/270/270 117/271/271
f 107/300/300 117/271/271 115/299/299
f 115/299/299 117/271/271 125/272/272
f 115/299/299 125/272/272 123/298/298
f 123/298/298 125/272/272 133/273/273
f 123/298/298 133/273/273 131/297/297
f 131/297/297 133/273/273 141/274/274
f 131/297/297 141/274/274 139/296/296
f 139/296/296 141/274/274 149/275/275
f 139/296/296 149/275/275 147/295/295
f 147/295/295 149/275/275 157/276/276
f 147/295/295 157/276/276 155/294/294
f 155/294/294 157/276/276 165/277/277
f 155/294/294 165/277/277 163/293/293
f 163/293/293 165/277/277 173/278/278
f 163/293/293 173/278/278 171/292/292
f 171/292/292 173/278/278 181/279/279
f 171/292/292 181/279/279 179/291/291
f 179/291/291 181/279/279 189/280/280
f 179/291/291 189/280/280 187/290/290
f 187/290/290 189/280/280 197/281/281
f 187/290/290 197/281/281 195/289/289
f 195/289/289 197/281/281 209/282/282
f 195/289/289 209/282/282 207/288/288
f 207/288/288 209/282/282 219/283/283
f 207/288/288 219/283/283 217/287/287
f 217/287/287 219/283/283 223/284/284
f 214/347/347 224/458/458 216/346/346
f 216/346/346 224/458/458 226/402/402
f 216/346/346 226/402/402 223/403/403
f 224/458/458 214/347/347 220/457/457
f 220/457/457 214/347/347 206/348/348
f 220/457/457 206/348/348 210/456/456
f 210/456/456 206/348/348 202/349/349
f 210/456/456 202/349/349 198/455/455
f 198/455/455 202/349/349 194/350/350
f 198/455/455 194/350/350 190/454/454
f 190/454/454 194/350/350 186/351/351
f 190/454/454 186/351/351 182/453/453
f 182/453/453 186/351/351 178/352/352
f 182/453/453 178/352/352 174/452/452
f 174/452/452 178/352/352 170/353/353
f 174/452/452 170/353/353 166/451/451
f 166/451/451 170/353/353 162/354/354
f 166/451/451 162/354/354 158/450/450
f 158/450/450 162/354/354 154/355/355
f 158/450/450 154/355/355 150/449/449
f 150/449/449 154/355/355 146/356/356
f 150/449/449 146/356/356 142/448/448
f 142/448/448 146/356/356 138/357/357
f 142/448/448 138/357/357 134/447/447
f 134/447/447 138/357/357 130/358/358
f 134/447/447 130/358/358 126/446/446
f 126/446/446 130/358/358 122/359/359
f 126/446/446 122/359/359 118/445/445
f 118/445/445 122/359/359 114/360/360
f 118/445/445 114/360/360 110/444/444
f 110/444/444 114/360/360 106/361/361
f 110/444/444 106/361/361 102/443/443
f 102/443/443 106/361/361 98/362/362
f 102/443/443 98/362/362 94/442/442
f 94/442/442 98/362/362 90/363/363
f 94/442/442 90/363/363 86/441/441
f 86/441/441 90/363/363 82/364/364
f 86/441/441 82/364/364 78/440/440
f 78/440/440 82/364/364 74/365/365
f 78/440/440 74/365/365 70/439/439
f 70/439/439 74/365/365 66/366/366
f 70/439/439 66/366/366 62/438/438
f 62/438/438 66/366/366 58/367/367
f 62/438/438 58/367/367 50/437/437
f 50/437/437 58/367/367 54/368/368
f 50/437/437 54/368/368 42/436/436
f 42/436/436 54/368/368 46/369/369
f 42/436/436 46/369/369 34/435/435
f 34/435/435 46/369/369 38/370/370
f 34/435/435 38/370/370 26/434/434
f 26/434/434 38/370/370 30/371/371
f 26/434/434 30/371/371 14/433/433
f 14/433/433 30/371/371 22/372/372
f 14/433/433 22/372/372 8/432/432
f 8/432/432 22/372/372 18/373/373
f 8/432/432 18/373/373 4/431/431
f 4/431/431 18/373/373 10/374/374
f 4/431/431 10/374/374 3/430/430
f 3/430/430 10/374/374 17/375/375
f 3/430/430 17/375/375 7/429/429
f 7/429/429 17/375/375 21/376/376
f 7/429/429 21/376/376 13/428/428
f 13/428/428 21/376/376 29/377/377
f 13/428/428 29/377/377 25/427/427
f 25/427/427 29/377/377 37/378/378
f 25/427/427 37/378/378 33/426/426
f 33/426/426 37/378/378 45/379/379
f 33/426/426 45/379/379 41/425/425
f 41/425/425 45/379/379 53/380/380
f 41/425/425 53/380/380 49/424/424
f 49/424/424 53/380/380 57/381/381
f 49/424/424 57/381/381 61/423/423
f 61/423/423 57/381/381 65/382/382
f 61/423/423 65/382/382 69/422/422
f 69/422/422 65/382/382 73/383/383
f 69/422/422 73/383/383 77/421/421
f 77/421/421 73/383/383 81/384/384
f 77/421/421 81/384/384 85/420/420
f 85/420/420 81/384/384 89/385/385
f 85/420/420 89/385/385 93/419/419
f 93/419/419 89/385/385 97/386/386
f 93/419/419 97/386/386 101/418/418
f 101/418/418 97/386/386 105/387/387
f 101/418/418 105/387/387 109/417/417
f 109/417/417 105/387/387 113/388/388
f 109/417/417 113/388/388 117/416/416
f 117/416/416 113/388/388 121/389/389
f 117/416/416 121/389/389 125/415/415
f 125/415/415 121/389/389 129/390/390
f 125/415/415 129/390/390 133/414/414
f 133/414/414 129/390/390 137/391/391
f 133/414/414 137/391/391 141/413/413
f 141/413/413 137/391/391 145/392/392
f 141/413/413 145/392/392 149/412/412
f 149/412/412 145/392/392 153/393/393
f 149/412/412 153/393/393 157/411/411
f 157/411/411 153/393/393 161/394/394
f 157/411/411 161/394/394 165/410/410
f 165/410/410 161/394/394 169/395/395
f 165/410/410 169/395/395 173/409/409
f 173/409/409 169/395/395 177/396/396
f 173/409/409 177/396/396 181/408/408
f 181/408/408 177/396/396 185/397/397
f 181/408/408 185/397/397 189/407/407
f 189/407/407 185/397/397 193/398/398
f 189/407/407 193/398/398 197/406/406
f 197/406/406 193/398/398 201/399/399
f 197/406/406 201/399/399 209/405/405
f 209/405/405 201/399/399 205/400/400
f 209/405/405 205/400/400 219/404/404
f 219/404/404 205/400/400 213/401/401
f 219/404/404 213/401/401 223/403/403
f 223/403/403 213/401/401 216/346/346
# 226 vertices
# 458 texture params
# 458 normals
# 448 facets

# 1 groups
