# WaveFront *.obj file (generated by Autodesk ATF)

mtllib 椅子.mtl

g ソリッド1

v -200.000000 0.000000 -900.000000
v -200.000000 0.000000 -860.000000
v -200.000000 0.000000 -40.000000
v -200.000000 0.000000 0.000000
v -200.000000 300.000000 -860.000000
v -200.000000 300.000000 -40.000000
v -200.000000 365.000000 -900.000000
v -200.000000 365.000000 0.000000
v 200.000000 0.000000 -900.000000
v 200.000000 0.000000 -860.000000
v 200.000000 0.000000 -40.000000
v 200.000000 0.000000 0.000000
v 200.000000 300.000000 -860.000000
v 200.000000 300.000000 -40.000000
v 200.000000 365.000000 -900.000000
v 200.000000 365.000000 0.000000
vt 4.559811 1.306775 0.000000
vt 4.559811 -2.029672 0.000000
vt 5.004671 -2.029672 0.000000
vt 5.004671 2.029672 0.000000
vt -5.004671 2.029672 0.000000
vt -5.004671 -2.029672 0.000000
vt -4.559811 -2.029672 0.000000
vt -4.559811 1.306775 0.000000
vt 0.444860 -2.224298 0.000000
vt 0.444860 2.224298 0.000000
vt 0.000000 2.224298 0.000000
vt 0.000000 -2.224298 0.000000
vt 4.059344 -2.224298 0.000000
vt 4.059344 2.224298 0.000000
vt 0.000000 2.224298 0.000000
vt 0.000000 -2.224298 0.000000
vt 10.009342 -2.224298 0.000000
vt 10.009342 2.224298 0.000000
vt 0.000000 2.224298 0.000000
vt 0.000000 -2.224298 0.000000
vt 4.059344 -2.224298 0.000000
vt 4.059344 2.224298 0.000000
vt 0.000000 2.224298 0.000000
vt 0.000000 -2.224298 0.000000
vt 0.444860 -2.224298 0.000000
vt 0.444860 2.224298 0.000000
vt 0.000000 2.224298 0.000000
vt 0.000000 -2.224298 0.000000
vt 3.336447 -2.224298 0.000000
vt 3.336447 2.224298 0.000000
vt 0.000000 2.224298 0.000000
vt 0.000000 -2.224298 0.000000
vt 9.119623 -2.224298 0.000000
vt 9.119623 2.224298 0.000000
vt 0.000000 2.224298 0.000000
vt 0.000000 -2.224298 0.000000
vt 3.336447 -2.224298 0.000000
vt 3.336447 2.224298 0.000000
vt 0.000000 2.224298 0.000000
vt 0.000000 -2.224298 0.000000
vt -4.559811 -2.029672 0.000000
vt -4.559811 1.306775 0.000000
vt 4.559811 1.306775 0.000000
vt 4.559811 -2.029672 0.000000
vt 5.004671 -2.029672 0.000000
vt 5.004671 2.029672 0.000000
vt -5.004671 2.029672 0.000000
vt -5.004671 -2.029672 0.000000
vn -0.100000 0.000000 0.000000
vn -0.100000 0.000000 0.000000
vn -0.100000 0.000000 0.000000
vn -0.100000 0.000000 0.000000
vn -0.100000 0.000000 0.000000
vn -0.100000 0.000000 0.000000
vn -0.100000 0.000000 0.000000
vn -0.100000 0.000000 0.000000
vn 0.000000 -0.100000 0.000000
vn 0.000000 -0.100000 0.000000
vn 0.000000 -0.100000 0.000000
vn 0.000000 -0.100000 0.000000
vn 0.000000 0.000000 0.100000
vn 0.000000 0.000000 0.100000
vn 0.000000 0.000000 0.100000
vn 0.000000 0.000000 0.100000
vn 0.000000 0.100000 0.000000
vn 0.000000 0.100000 0.000000
vn 0.000000 0.100000 0.000000
vn 0.000000 0.100000 0.000000
vn 0.000000 0.000000 -0.100000
vn 0.000000 0.000000 -0.100000
vn 0.000000 0.000000 -0.100000
vn 0.000000 0.000000 -0.100000
vn 0.000000 -0.100000 0.000000
vn 0.000000 -0.100000 0.000000
vn 0.000000 -0.100000 0.000000
vn 0.000000 -0.100000 0.000000
vn 0.000000 0.000000 0.100000
vn 0.000000 0.000000 0.100000
vn 0.000000 0.000000 0.100000
vn 0.000000 0.000000 0.100000
vn 0.000000 -0.100000 0.000000
vn 0.000000 -0.100000 0.000000
vn 0.000000 -0.100000 0.000000
vn 0.000000 -0.100000 0.000000
vn 0.000000 0.000000 -0.100000
vn 0.000000 0.000000 -0.100000
vn 0.000000 0.000000 -0.100000
vn 0.000000 0.000000 -0.100000
vn 0.100000 0.000000 0.000000
vn 0.100000 0.000000 0.000000
vn 0.100000 0.000000 0.000000
vn 0.100000 0.000000 0.000000
vn 0.100000 0.000000 0.000000
vn 0.100000 0.000000 0.000000
vn 0.100000 0.000000 0.000000
vn 0.100000 0.000000 0.000000
usemtl 255,255,255
f 3/2/2 4/3/3 6/1/1
f 6/1/1 4/3/3 8/4/4
f 6/1/1 8/4/4 7/5/5
f 6/1/1 7/5/5 5/8/8
f 5/8/8 7/5/5 1/6/6
f 5/8/8 1/6/6 2/7/7
f 11/10/10 12/11/11 3/9/9
f 3/9/9 12/11/11 4/12/12
f 12/14/14 16/15/15 4/13/13
f 4/13/13 16/15/15 8/16/16
f 16/18/18 15/19/19 8/17/17
f 8/17/17 15/19/19 7/20/20
f 15/22/22 9/23/23 7/21/21
f 7/21/21 9/23/23 1/24/24
f 9/26/26 10/27/27 1/25/25
f 1/25/25 10/27/27 2/28/28
f 10/30/30 13/31/31 2/29/29
f 2/29/29 13/31/31 5/32/32
f 13/34/34 14/35/35 5/33/33
f 5/33/33 14/35/35 6/36/36
f 14/38/38 11/39/39 6/37/37
f 6/37/37 11/39/39 3/40/40
f 11/41/41 14/42/42 12/48/48
f 12/48/48 14/42/42 16/47/47
f 16/47/47 14/42/42 13/43/43
f 16/47/47 13/43/43 15/46/46
f 15/46/46 13/43/43 9/45/45
f 9/45/45 13/43/43 10/44/44
# 16 vertices
# 48 texture params
# 48 normals
# 28 facets

# 1 groups
