# WaveFront *.obj file (generated by Autodesk ATF)

mtllib 掛け軸.mtl

g ソリッド1

v 0.000000 0.000000 0.000000
v 0.000000 0.000000 1.000000
v 0.000000 1400.000000 0.000000
v 0.000000 1400.000000 1.000000
v 30.000000 180.000000 1.000000
v 30.000000 180.000000 2.000000
v 30.000000 1100.000000 1.000000
v 30.000000 1100.000000 2.000000
v 40.000000 230.000000 2.000000
v 40.000000 230.000000 3.000000
v 40.000000 1050.000000 2.000000
v 40.000000 1050.000000 3.000000
v 310.000000 230.000000 2.000000
v 310.000000 230.000000 3.000000
v 310.000000 1050.000000 2.000000
v 310.000000 1050.000000 3.000000
v 320.000000 180.000000 1.000000
v 320.000000 180.000000 2.000000
v 320.000000 1100.000000 1.000000
v 320.000000 1100.000000 2.000000
v 350.000000 0.000000 0.000000
v 350.000000 0.000000 1.000000
v 350.000000 1400.000000 0.000000
v 350.000000 1400.000000 1.000000
vt 0.000000 0.000000 0.000000
vt 82.000000 0.000000 0.000000
vt 82.000000 0.100000 0.000000
vt 0.000000 0.100000 0.000000
vt 0.000000 0.000000 0.000000
vt 27.000000 0.000000 0.000000
vt 27.000000 0.100000 0.000000
vt 0.000000 0.100000 0.000000
vt 0.000000 0.000000 0.000000
vt 82.000000 0.000000 0.000000
vt 82.000000 0.100000 0.000000
vt 0.000000 0.100000 0.000000
vt 0.000000 0.000000 0.000000
vt 27.000000 0.000000 0.000000
vt 27.000000 0.100000 0.000000
vt 0.000000 0.100000 0.000000
vt -13.500000 -41.000000 0.000000
vt 13.500000 -41.000000 0.000000
vt 13.500000 41.000000 0.000000
vt -13.500000 41.000000 0.000000
vt 0.000000 0.000000 0.000000
vt 92.000000 0.000000 0.000000
vt 92.000000 0.100000 0.000000
vt 0.000000 0.100000 0.000000
vt 0.000000 0.000000 0.000000
vt 29.000000 0.000000 0.000000
vt 29.000000 0.100000 0.000000
vt 0.000000 0.100000 0.000000
vt 0.000000 0.000000 0.000000
vt 92.000000 0.000000 0.000000
vt 92.000000 0.100000 0.000000
vt 0.000000 0.100000 0.000000
vt 0.000000 0.000000 0.000000
vt 29.000000 0.000000 0.000000
vt 29.000000 0.100000 0.000000
vt 0.000000 0.100000 0.000000
vt -13.500000 -41.000000 0.000000
vt -13.500000 41.000000 0.000000
vt 13.500000 41.000000 0.000000
vt 13.500000 -41.000000 0.000000
vt -14.500000 -46.000000 0.000000
vt 14.500000 -46.000000 0.000000
vt 14.500000 46.000000 0.000000
vt -14.500000 46.000000 0.000000
vt 0.000000 0.000000 0.000000
vt 35.000000 0.000000 0.000000
vt 35.000000 0.100000 0.000000
vt 0.000000 0.100000 0.000000
vt 0.000000 0.000000 0.000000
vt 140.000000 0.000000 0.000000
vt 140.000000 0.100000 0.000000
vt 0.000000 0.100000 0.000000
vt 0.000000 0.000000 0.000000
vt 35.000000 0.000000 0.000000
vt 35.000000 0.100000 0.000000
vt 0.000000 0.100000 0.000000
vt 0.000000 0.000000 0.000000
vt 140.000000 0.000000 0.000000
vt 140.000000 0.100000 0.000000
vt 0.000000 0.100000 0.000000
vt -14.500000 -52.000000 0.000000
vt -14.500000 40.000000 0.000000
vt 14.500000 40.000000 0.000000
vt 14.500000 -52.000000 0.000000
vt 17.500000 -70.000000 0.000000
vt 17.500000 70.000000 0.000000
vt -17.500000 70.000000 0.000000
vt -17.500000 -70.000000 0.000000
vt -17.500000 70.000000 0.000000
vt -17.500000 -70.000000 0.000000
vt 17.500000 -70.000000 0.000000
vt 17.500000 70.000000 0.000000
vn -0.100000 0.000000 0.000000
vn -0.100000 0.000000 0.000000
vn -0.100000 0.000000 0.000000
vn -0.100000 0.000000 0.000000
vn 0.000000 0.100000 0.000000
vn 0.000000 0.100000 0.000000
vn 0.000000 0.100000 0.000000
vn 0.000000 0.100000 0.000000
vn 0.100000 0.000000 0.000000
vn 0.100000 0.000000 0.000000
vn 0.100000 0.000000 0.000000
vn 0.100000 0.000000 0.000000
vn 0.000000 -0.100000 0.000000
vn 0.000000 -0.100000 0.000000
vn 0.000000 -0.100000 0.000000
vn 0.000000 -0.100000 0.000000
vn 0.000000 0.000000 0.100000
vn 0.000000 0.000000 0.100000
vn 0.000000 0.000000 0.100000
vn 0.000000 0.000000 0.100000
vn -0.100000 0.000000 0.000000
vn -0.100000 0.000000 0.000000
vn -0.100000 0.000000 0.000000
vn -0.100000 0.000000 0.000000
vn 0.000000 0.100000 0.000000
vn 0.000000 0.100000 0.000000
vn 0.000000 0.100000 0.000000
vn 0.000000 0.100000 0.000000
vn 0.100000 0.000000 0.000000
vn 0.100000 0.000000 0.000000
vn 0.100000 0.000000 0.000000
vn 0.100000 0.000000 0.000000
vn 0.000000 -0.100000 0.000000
vn 0.000000 -0.100000 0.000000
vn 0.000000 -0.100000 0.000000
vn 0.000000 -0.100000 0.000000
vn 0.000000 0.000000 0.100000
vn 0.000000 0.000000 0.100000
vn 0.000000 0.000000 0.100000
vn 0.000000 0.000000 0.100000
vn 0.000000 0.000000 0.100000
vn 0.000000 0.000000 0.100000
vn 0.000000 0.000000 0.100000
vn 0.000000 0.000000 0.100000
vn 0.000000 -0.100000 0.000000
vn 0.000000 -0.100000 0.000000
vn 0.000000 -0.100000 0.000000
vn 0.000000 -0.100000 0.000000
vn -0.100000 0.000000 0.000000
vn -0.100000 0.000000 0.000000
vn -0.100000 0.000000 0.000000
vn -0.100000 0.000000 0.000000
vn 0.000000 0.100000 0.000000
vn 0.000000 0.100000 0.000000
vn 0.000000 0.100000 0.000000
vn 0.000000 0.100000 0.000000
vn 0.100000 0.000000 0.000000
vn 0.100000 0.000000 0.000000
vn 0.100000 0.000000 0.000000
vn 0.100000 0.000000 0.000000
vn 0.000000 0.000000 0.100000
vn 0.000000 0.000000 0.100000
vn 0.000000 0.000000 0.100000
vn 0.000000 0.000000 0.100000
vn 0.000000 0.000000 0.100000
vn 0.000000 0.000000 0.100000
vn 0.000000 0.000000 0.100000
vn 0.000000 0.000000 0.100000
vn 0.000000 0.000000 -0.100000
vn 0.000000 0.000000 -0.100000
vn 0.000000 0.000000 -0.100000
vn 0.000000 0.000000 -0.100000
usemtl 245,245,245
f 11/1/1 9/2/2 12/4/4
f 12/4/4 9/2/2 10/3/3
f 15/5/5 11/6/6 16/8/8
f 16/8/8 11/6/6 12/7/7
f 13/9/9 15/10/10 14/12/12
f 14/12/12 15/10/10 16/11/11
f 9/13/13 13/14/14 10/16/16
f 10/16/16 13/14/14 14/15/15
usemtl 242,242,255
f 10/17/17 14/18/18 12/20/20
f 12/20/20 14/18/18 16/19/19
usemtl 245,245,245
f 7/21/21 5/22/22 8/24/24
f 8/24/24 5/22/22 6/23/23
f 19/25/25 7/26/26 20/28/28
f 20/28/28 7/26/26 8/27/27
f 17/29/29 19/30/30 18/32/32
f 18/32/32 19/30/30 20/31/31
f 5/33/33 17/34/34 6/36/36
f 6/36/36 17/34/34 18/35/35
usemtl 24,37,248
f 11/38/38 6/41/41 9/37/37
f 9/37/37 6/41/41 18/42/42
f 9/37/37 18/42/42 13/40/40
f 13/40/40 18/42/42 15/39/39
f 15/39/39 18/42/42 20/43/43
f 15/39/39 20/43/43 8/44/44
f 6/41/41 11/38/38 8/44/44
f 8/44/44 11/38/38 15/39/39
usemtl 245,245,245
f 1/45/45 21/46/46 2/48/48
f 2/48/48 21/46/46 22/47/47
f 3/49/49 1/50/50 4/52/52
f 4/52/52 1/50/50 2/51/51
f 23/53/53 3/54/54 24/56/56
f 24/56/56 3/54/54 4/55/55
f 21/57/57 23/58/58 22/60/60
f 22/60/60 23/58/58 24/59/59
f 7/62/62 2/68/68 5/61/61
f 5/61/61 2/68/68 22/65/65
f 5/61/61 22/65/65 17/64/64
f 17/64/64 22/65/65 19/63/63
f 19/63/63 22/65/65 24/66/66
f 19/63/63 24/66/66 4/67/67
f 2/68/68 7/62/62 4/67/67
f 4/67/67 7/62/62 19/63/63
f 21/70/70 1/71/71 23/69/69
f 23/69/69 1/71/71 3/72/72
# 24 vertices
# 72 texture params
# 72 normals
# 44 facets

# 1 groups
