# WaveFront *.obj file (generated by Autodesk ATF)

mtllib 茶棚.mtl

g ソリッド1

v -160.000000 0.000000 -470.000000
v -160.000000 0.000000 0.000000
v -160.000000 18.000000 -452.000008
v -160.000000 18.000000 -18.000000
v -160.000000 167.999992 -452.000008
v -160.000000 167.999992 -18.000000
v -160.000000 186.000004 -452.000008
v -160.000000 186.000004 -18.000000
v -160.000000 316.000004 -452.000008
v -160.000000 316.000004 -18.000000
v -160.000000 334.000015 -470.000000
v -160.000000 334.000015 0.000000
v 0.000000 0.000000 -470.000000
v 0.000000 0.000000 0.000000
v 0.000000 18.000000 -452.000008
v 0.000000 18.000000 -18.000000
v 0.000000 167.999992 -452.000008
v 0.000000 167.999992 -18.000000
v 0.000000 186.000004 -452.000008
v 0.000000 186.000004 -18.000000
v 0.000000 316.000004 -452.000008
v 0.000000 316.000004 -18.000000
v 0.000000 334.000015 -470.000000
v 0.000000 334.000015 0.000000
vt 0.000000 0.000000 0.000000
vt 43.400002 0.000000 0.000000
vt 43.400002 16.000000 0.000000
vt 0.000000 16.000000 0.000000
vt 0.000000 0.000000 0.000000
vt 13.000000 0.000000 0.000000
vt 13.000000 16.000000 0.000000
vt 0.000000 16.000000 0.000000
vt 0.000000 0.000000 0.000000
vt 43.400002 0.000000 0.000000
vt 43.400002 16.000000 0.000000
vt 0.000000 16.000000 0.000000
vt 0.000000 0.000000 0.000000
vt 13.000000 0.000000 0.000000
vt 13.000000 16.000000 0.000000
vt 0.000000 16.000000 0.000000
vt 0.000000 0.000000 0.000000
vt 43.400002 0.000000 0.000000
vt 43.400002 16.000000 0.000000
vt 0.000000 16.000000 0.000000
vt 0.000000 0.000000 0.000000
vt 15.000000 0.000000 0.000000
vt 15.000000 16.000000 0.000000
vt 0.000000 16.000000 0.000000
vt 0.000000 0.000000 0.000000
vt 43.400002 0.000000 0.000000
vt 43.400002 16.000000 0.000000
vt 0.000000 16.000000 0.000000
vt 0.000000 0.000000 0.000000
vt 15.000000 0.000000 0.000000
vt 15.000000 16.000000 0.000000
vt 0.000000 16.000000 0.000000
vt 0.000000 0.000000 0.000000
vt 47.000000 0.000000 0.000000
vt 47.000000 16.000000 0.000000
vt 0.000000 16.000000 0.000000
vt 0.000000 0.000000 0.000000
vt 33.400002 0.000000 0.000000
vt 33.400002 16.000000 0.000000
vt 0.000000 16.000000 0.000000
vt 0.000000 0.000000 0.000000
vt 47.000000 0.000000 0.000000
vt 47.000000 16.000000 0.000000
vt 0.000000 16.000000 0.000000
vt 0.000000 0.000000 0.000000
vt 33.400002 0.000000 0.000000
vt 33.400002 16.000000 0.000000
vt 0.000000 16.000000 0.000000
vt 23.500000 -16.700001 0.000000
vt 23.500000 16.700001 0.000000
vt -23.500000 16.700001 0.000000
vt -23.500000 -16.700001 0.000000
vt -21.700001 -14.900000 0.000000
vt -21.700001 0.100000 0.000000
vt 21.700001 0.100000 0.000000
vt 21.700001 -14.900000 0.000000
vt -21.700001 1.900000 0.000000
vt -21.700001 14.900000 0.000000
vt 21.700001 14.900000 0.000000
vt 21.700001 1.900000 0.000000
vt -23.500000 16.700001 0.000000
vt -23.500000 -16.700001 0.000000
vt 23.500000 -16.700001 0.000000
vt 23.500000 16.700001 0.000000
vt 21.700001 0.100000 0.000000
vt 21.700001 -14.900000 0.000000
vt -21.700001 -14.900000 0.000000
vt -21.700001 0.100000 0.000000
vt 21.700001 14.900000 0.000000
vt 21.700001 1.900000 0.000000
vt -21.700001 1.900000 0.000000
vt -21.700001 14.900000 0.000000
vn 0.000000 -0.100000 0.000000
vn 0.000000 -0.100000 0.000000
vn 0.000000 -0.100000 0.000000
vn 0.000000 -0.100000 0.000000
vn 0.000000 0.000000 0.100000
vn 0.000000 0.000000 0.100000
vn 0.000000 0.000000 0.100000
vn 0.000000 0.000000 0.100000
vn 0.000000 0.100000 0.000000
vn 0.000000 0.100000 0.000000
vn 0.000000 0.100000 0.000000
vn 0.000000 0.100000 0.000000
vn 0.000000 0.000000 -0.100000
vn 0.000000 0.000000 -0.100000
vn 0.000000 0.000000 -0.100000
vn 0.000000 0.000000 -0.100000
vn 0.000000 -0.100000 0.000000
vn 0.000000 -0.100000 0.000000
vn 0.000000 -0.100000 0.000000
vn 0.000000 -0.100000 0.000000
vn 0.000000 0.000000 0.100000
vn 0.000000 0.000000 0.100000
vn 0.000000 0.000000 0.100000
vn 0.000000 0.000000 0.100000
vn 0.000000 0.100000 0.000000
vn 0.000000 0.100000 0.000000
vn 0.000000 0.100000 0.000000
vn 0.000000 0.100000 0.000000
vn 0.000000 0.000000 -0.100000
vn 0.000000 0.000000 -0.100000
vn 0.000000 0.000000 -0.100000
vn 0.000000 0.000000 -0.100000
vn 0.000000 0.100000 0.000000
vn 0.000000 0.100000 0.000000
vn 0.000000 0.100000 0.000000
vn 0.000000 0.100000 0.000000
vn 0.000000 0.000000 0.100000
vn 0.000000 0.000000 0.100000
vn 0.000000 0.000000 0.100000
vn 0.000000 0.000000 0.100000
vn 0.000000 -0.100000 0.000000
vn 0.000000 -0.100000 0.000000
vn 0.000000 -0.100000 0.000000
vn 0.000000 -0.100000 0.000000
vn 0.000000 0.000000 -0.100000
vn 0.000000 0.000000 -0.100000
vn 0.000000 0.000000 -0.100000
vn 0.000000 0.000000 -0.100000
vn 0.100000 0.000000 0.000000
vn 0.100000 0.000000 0.000000
vn 0.100000 0.000000 0.000000
vn 0.100000 0.000000 0.000000
vn 0.100000 0.000000 0.000000
vn 0.100000 0.000000 0.000000
vn 0.100000 0.000000 0.000000
vn 0.100000 0.000000 0.000000
vn 0.100000 0.000000 0.000000
vn 0.100000 0.000000 0.000000
vn 0.100000 0.000000 0.000000
vn 0.100000 0.000000 0.000000
vn -0.100000 0.000000 0.000000
vn -0.100000 0.000000 0.000000
vn -0.100000 0.000000 0.000000
vn -0.100000 0.000000 0.000000
vn -0.100000 0.000000 0.000000
vn -0.100000 0.000000 0.000000
vn -0.100000 0.000000 0.000000
vn -0.100000 0.000000 0.000000
vn -0.100000 0.000000 0.000000
vn -0.100000 0.000000 0.000000
vn -0.100000 0.000000 0.000000
vn -0.100000 0.000000 0.000000
usemtl 204,0,0
f 21/1/1 22/2/2 9/4/4
f 9/4/4 22/2/2 10/3/3
f 19/5/5 21/6/6 7/8/8
f 7/8/8 21/6/6 9/7/7
f 20/9/9 19/10/10 8/12/12
f 8/12/12 19/10/10 7/11/11
f 22/13/13 20/14/14 10/16/16
f 10/16/16 20/14/14 8/15/15
f 17/17/17 18/18/18 5/20/20
f 5/20/20 18/18/18 6/19/19
f 15/21/21 17/22/22 3/24/24
f 3/24/24 17/22/22 5/23/23
f 16/25/25 15/26/26 4/28/28
f 4/28/28 15/26/26 3/27/27
f 18/29/29 16/30/30 6/32/32
f 6/32/32 16/30/30 4/31/31
f 24/33/33 23/34/34 12/36/36
f 12/36/36 23/34/34 11/35/35
f 14/37/37 24/38/38 2/40/40
f 2/40/40 24/38/38 12/39/39
f 13/41/41 14/42/42 1/44/44
f 1/44/44 14/42/42 2/43/43
f 23/45/45 13/46/46 11/48/48
f 11/48/48 13/46/46 1/47/47
f 23/50/50 17/55/55 13/49/49
f 13/49/49 17/55/55 15/56/56
f 13/49/49 15/56/56 16/53/53
f 24/51/51 21/59/59 23/50/50
f 23/50/50 21/59/59 19/60/60
f 23/50/50 19/60/60 17/55/55
f 17/55/55 19/60/60 20/57/57
f 17/55/55 20/57/57 18/54/54
f 18/54/54 20/57/57 24/51/51
f 18/54/54 24/51/51 14/52/52
f 18/54/54 14/52/52 16/53/53
f 16/53/53 14/52/52 13/49/49
f 20/57/57 22/58/58 24/51/51
f 24/51/51 22/58/58 21/59/59
f 1/62/62 5/68/68 11/61/61
f 11/61/61 5/68/68 7/71/71
f 11/61/61 7/71/71 9/72/72
f 5/68/68 1/62/62 3/67/67
f 3/67/67 1/62/62 2/63/63
f 3/67/67 2/63/63 4/66/66
f 4/66/66 2/63/63 6/65/65
f 6/65/65 2/63/63 12/64/64
f 6/65/65 12/64/64 8/70/70
f 8/70/70 12/64/64 10/69/69
f 10/69/69 12/64/64 11/61/61
f 10/69/69 11/61/61 9/72/72
f 5/68/68 6/65/65 7/71/71
f 7/71/71 6/65/65 8/70/70
# 24 vertices
# 72 texture params
# 72 normals
# 52 facets

# 1 groups
